<?xml version="1.0" encoding="utf-8" standalone="no"?>
<!DOCTYPE svg PUBLIC "-//W3C//DTD SVG 1.1//EN"
  "http://www.w3.org/Graphics/SVG/1.1/DTD/svg11.dtd">
<svg xmlns:xlink="http://www.w3.org/1999/xlink" width="747pt" height="576pt" viewBox="0 0 747 576" xmlns="http://www.w3.org/2000/svg" version="1.1">
 <metadata>
  <rdf:RDF xmlns:dc="http://purl.org/dc/elements/1.1/" xmlns:cc="http://creativecommons.org/ns#" xmlns:rdf="http://www.w3.org/1999/02/22-rdf-syntax-ns#">
   <cc:Work>
    <dc:type rdf:resource="http://purl.org/dc/dcmitype/StillImage"/>
    <dc:date>2026-05-29T21:43:34.482900</dc:date>
    <dc:format>image/svg+xml</dc:format>
    <dc:creator>
     <cc:Agent>
      <dc:title>Matplotlib v3.10.9, https://matplotlib.org/</dc:title>
     </cc:Agent>
    </dc:creator>
   </cc:Work>
  </rdf:RDF>
 </metadata>
 <defs>
  <style type="text/css">*{stroke-linejoin: round; stroke-linecap: butt}</style>
 </defs>
 <g id="figure_1">
  <g id="patch_1">
   <path d="M 0 576
L 747 576
L 747 0
L 0 0
z
" style="fill: #ffffff"/>
  </g>
  <g id="axes_1">
   <g id="patch_2">
    <path d="M 10.8 565.2
L 736.2 565.2
L 736.2 10.8
L 10.8 10.8
z
" style="fill: #ffffff"/>
   </g>
   <g id="line2d_1">
    <path d="M 47.07 565.2
L 47.07 10.8
" clip-path="url(#p872ea4c059)" style="fill: none; stroke: #e9ecef; stroke-opacity: 0.3; stroke-width: 0.4; stroke-linecap: square"/>
   </g>
   <g id="line2d_2">
    <path d="M 83.34 565.2
L 83.34 10.8
" clip-path="url(#p872ea4c059)" style="fill: none; stroke: #e9ecef; stroke-opacity: 0.3; stroke-width: 0.4; stroke-linecap: square"/>
   </g>
   <g id="line2d_3">
    <path d="M 119.61 565.2
L 119.61 10.8
" clip-path="url(#p872ea4c059)" style="fill: none; stroke: #e9ecef; stroke-opacity: 0.3; stroke-width: 0.4; stroke-linecap: square"/>
   </g>
   <g id="line2d_4">
    <path d="M 155.88 565.2
L 155.88 10.8
" clip-path="url(#p872ea4c059)" style="fill: none; stroke: #e9ecef; stroke-opacity: 0.3; stroke-width: 0.4; stroke-linecap: square"/>
   </g>
   <g id="line2d_5">
    <path d="M 192.15 565.2
L 192.15 10.8
" clip-path="url(#p872ea4c059)" style="fill: none; stroke: #e9ecef; stroke-opacity: 0.3; stroke-width: 0.4; stroke-linecap: square"/>
   </g>
   <g id="line2d_6">
    <path d="M 228.42 565.2
L 228.42 10.8
" clip-path="url(#p872ea4c059)" style="fill: none; stroke: #e9ecef; stroke-opacity: 0.3; stroke-width: 0.4; stroke-linecap: square"/>
   </g>
   <g id="line2d_7">
    <path d="M 264.69 565.2
L 264.69 10.8
" clip-path="url(#p872ea4c059)" style="fill: none; stroke: #e9ecef; stroke-opacity: 0.3; stroke-width: 0.4; stroke-linecap: square"/>
   </g>
   <g id="line2d_8">
    <path d="M 300.96 565.2
L 300.96 10.8
" clip-path="url(#p872ea4c059)" style="fill: none; stroke: #e9ecef; stroke-opacity: 0.3; stroke-width: 0.4; stroke-linecap: square"/>
   </g>
   <g id="line2d_9">
    <path d="M 337.23 565.2
L 337.23 10.8
" clip-path="url(#p872ea4c059)" style="fill: none; stroke: #e9ecef; stroke-opacity: 0.3; stroke-width: 0.4; stroke-linecap: square"/>
   </g>
   <g id="line2d_10">
    <path d="M 373.5 565.2
L 373.5 10.8
" clip-path="url(#p872ea4c059)" style="fill: none; stroke: #e9ecef; stroke-opacity: 0.3; stroke-width: 0.4; stroke-linecap: square"/>
   </g>
   <g id="line2d_11">
    <path d="M 409.77 565.2
L 409.77 10.8
" clip-path="url(#p872ea4c059)" style="fill: none; stroke: #e9ecef; stroke-opacity: 0.3; stroke-width: 0.4; stroke-linecap: square"/>
   </g>
   <g id="line2d_12">
    <path d="M 446.04 565.2
L 446.04 10.8
" clip-path="url(#p872ea4c059)" style="fill: none; stroke: #e9ecef; stroke-opacity: 0.3; stroke-width: 0.4; stroke-linecap: square"/>
   </g>
   <g id="line2d_13">
    <path d="M 482.31 565.2
L 482.31 10.8
" clip-path="url(#p872ea4c059)" style="fill: none; stroke: #e9ecef; stroke-opacity: 0.3; stroke-width: 0.4; stroke-linecap: square"/>
   </g>
   <g id="line2d_14">
    <path d="M 518.58 565.2
L 518.58 10.8
" clip-path="url(#p872ea4c059)" style="fill: none; stroke: #e9ecef; stroke-opacity: 0.3; stroke-width: 0.4; stroke-linecap: square"/>
   </g>
   <g id="line2d_15">
    <path d="M 554.85 565.2
L 554.85 10.8
" clip-path="url(#p872ea4c059)" style="fill: none; stroke: #e9ecef; stroke-opacity: 0.3; stroke-width: 0.4; stroke-linecap: square"/>
   </g>
   <g id="line2d_16">
    <path d="M 591.12 565.2
L 591.12 10.8
" clip-path="url(#p872ea4c059)" style="fill: none; stroke: #e9ecef; stroke-opacity: 0.3; stroke-width: 0.4; stroke-linecap: square"/>
   </g>
   <g id="line2d_17">
    <path d="M 627.39 565.2
L 627.39 10.8
" clip-path="url(#p872ea4c059)" style="fill: none; stroke: #e9ecef; stroke-opacity: 0.3; stroke-width: 0.4; stroke-linecap: square"/>
   </g>
   <g id="line2d_18">
    <path d="M 663.66 565.2
L 663.66 10.8
" clip-path="url(#p872ea4c059)" style="fill: none; stroke: #e9ecef; stroke-opacity: 0.3; stroke-width: 0.4; stroke-linecap: square"/>
   </g>
   <g id="line2d_19">
    <path d="M 699.93 565.2
L 699.93 10.8
" clip-path="url(#p872ea4c059)" style="fill: none; stroke: #e9ecef; stroke-opacity: 0.3; stroke-width: 0.4; stroke-linecap: square"/>
   </g>
   <g id="line2d_20">
    <path d="M 10.8 537.48
L 736.2 537.48
" clip-path="url(#p872ea4c059)" style="fill: none; stroke: #e9ecef; stroke-opacity: 0.3; stroke-width: 0.4; stroke-linecap: square"/>
   </g>
   <g id="line2d_21">
    <path d="M 10.8 509.76
L 736.2 509.76
" clip-path="url(#p872ea4c059)" style="fill: none; stroke: #e9ecef; stroke-opacity: 0.3; stroke-width: 0.4; stroke-linecap: square"/>
   </g>
   <g id="line2d_22">
    <path d="M 10.8 482.04
L 736.2 482.04
" clip-path="url(#p872ea4c059)" style="fill: none; stroke: #e9ecef; stroke-opacity: 0.3; stroke-width: 0.4; stroke-linecap: square"/>
   </g>
   <g id="line2d_23">
    <path d="M 10.8 454.32
L 736.2 454.32
" clip-path="url(#p872ea4c059)" style="fill: none; stroke: #e9ecef; stroke-opacity: 0.3; stroke-width: 0.4; stroke-linecap: square"/>
   </g>
   <g id="line2d_24">
    <path d="M 10.8 426.6
L 736.2 426.6
" clip-path="url(#p872ea4c059)" style="fill: none; stroke: #e9ecef; stroke-opacity: 0.3; stroke-width: 0.4; stroke-linecap: square"/>
   </g>
   <g id="line2d_25">
    <path d="M 10.8 398.88
L 736.2 398.88
" clip-path="url(#p872ea4c059)" style="fill: none; stroke: #e9ecef; stroke-opacity: 0.3; stroke-width: 0.4; stroke-linecap: square"/>
   </g>
   <g id="line2d_26">
    <path d="M 10.8 371.16
L 736.2 371.16
" clip-path="url(#p872ea4c059)" style="fill: none; stroke: #e9ecef; stroke-opacity: 0.3; stroke-width: 0.4; stroke-linecap: square"/>
   </g>
   <g id="line2d_27">
    <path d="M 10.8 343.44
L 736.2 343.44
" clip-path="url(#p872ea4c059)" style="fill: none; stroke: #e9ecef; stroke-opacity: 0.3; stroke-width: 0.4; stroke-linecap: square"/>
   </g>
   <g id="line2d_28">
    <path d="M 10.8 315.72
L 736.2 315.72
" clip-path="url(#p872ea4c059)" style="fill: none; stroke: #e9ecef; stroke-opacity: 0.3; stroke-width: 0.4; stroke-linecap: square"/>
   </g>
   <g id="line2d_29">
    <path d="M 10.8 288
L 736.2 288
" clip-path="url(#p872ea4c059)" style="fill: none; stroke: #e9ecef; stroke-opacity: 0.3; stroke-width: 0.4; stroke-linecap: square"/>
   </g>
   <g id="line2d_30">
    <path d="M 10.8 260.28
L 736.2 260.28
" clip-path="url(#p872ea4c059)" style="fill: none; stroke: #e9ecef; stroke-opacity: 0.3; stroke-width: 0.4; stroke-linecap: square"/>
   </g>
   <g id="line2d_31">
    <path d="M 10.8 232.56
L 736.2 232.56
" clip-path="url(#p872ea4c059)" style="fill: none; stroke: #e9ecef; stroke-opacity: 0.3; stroke-width: 0.4; stroke-linecap: square"/>
   </g>
   <g id="line2d_32">
    <path d="M 10.8 204.84
L 736.2 204.84
" clip-path="url(#p872ea4c059)" style="fill: none; stroke: #e9ecef; stroke-opacity: 0.3; stroke-width: 0.4; stroke-linecap: square"/>
   </g>
   <g id="line2d_33">
    <path d="M 10.8 177.12
L 736.2 177.12
" clip-path="url(#p872ea4c059)" style="fill: none; stroke: #e9ecef; stroke-opacity: 0.3; stroke-width: 0.4; stroke-linecap: square"/>
   </g>
   <g id="line2d_34">
    <path d="M 10.8 149.4
L 736.2 149.4
" clip-path="url(#p872ea4c059)" style="fill: none; stroke: #e9ecef; stroke-opacity: 0.3; stroke-width: 0.4; stroke-linecap: square"/>
   </g>
   <g id="line2d_35">
    <path d="M 10.8 121.68
L 736.2 121.68
" clip-path="url(#p872ea4c059)" style="fill: none; stroke: #e9ecef; stroke-opacity: 0.3; stroke-width: 0.4; stroke-linecap: square"/>
   </g>
   <g id="line2d_36">
    <path d="M 10.8 93.96
L 736.2 93.96
" clip-path="url(#p872ea4c059)" style="fill: none; stroke: #e9ecef; stroke-opacity: 0.3; stroke-width: 0.4; stroke-linecap: square"/>
   </g>
   <g id="line2d_37">
    <path d="M 10.8 66.24
L 736.2 66.24
" clip-path="url(#p872ea4c059)" style="fill: none; stroke: #e9ecef; stroke-opacity: 0.3; stroke-width: 0.4; stroke-linecap: square"/>
   </g>
   <g id="line2d_38">
    <path d="M 10.8 38.52
L 736.2 38.52
" clip-path="url(#p872ea4c059)" style="fill: none; stroke: #e9ecef; stroke-opacity: 0.3; stroke-width: 0.4; stroke-linecap: square"/>
   </g>
   <g id="patch_3">
    <path d="M 28.935 63.468
L 34.055471 63.468
L 34.055471 35.748
L 28.935 35.748
z
" clip-path="url(#p872ea4c059)" style="fill: #2c7a8c; opacity: 0.85; stroke: #1f2a36; stroke-width: 0.5; stroke-linejoin: miter"/>
   </g>
   <g id="patch_4">
    <path d="M 35.335588 60.003
L 40.456059 60.003
L 40.456059 39.213
L 35.335588 39.213
z
" clip-path="url(#p872ea4c059)" style="fill: #2c7a8c; opacity: 0.85; stroke: #1f2a36; stroke-width: 0.5; stroke-linejoin: miter"/>
   </g>
   <g id="patch_5">
    <path d="M 41.736176 56.538
L 46.856647 56.538
L 46.856647 42.678
L 41.736176 42.678
z
" clip-path="url(#p872ea4c059)" style="fill: #2c7a8c; opacity: 0.85; stroke: #1f2a36; stroke-width: 0.5; stroke-linejoin: miter"/>
   </g>
   <g id="patch_6">
    <path d="M 48.136765 53.766
L 53.257235 53.766
L 53.257235 45.45
L 48.136765 45.45
z
" clip-path="url(#p872ea4c059)" style="fill: #2c7a8c; opacity: 0.85; stroke: #1f2a36; stroke-width: 0.5; stroke-linejoin: miter"/>
   </g>
   <g id="patch_7">
    <path d="M 54.537353 56.538
L 59.657824 56.538
L 59.657824 42.678
L 54.537353 42.678
z
" clip-path="url(#p872ea4c059)" style="fill: #2c7a8c; opacity: 0.85; stroke: #1f2a36; stroke-width: 0.5; stroke-linejoin: miter"/>
   </g>
   <g id="patch_8">
    <path d="M 60.937941 60.003
L 66.058412 60.003
L 66.058412 39.213
L 60.937941 39.213
z
" clip-path="url(#p872ea4c059)" style="fill: #2c7a8c; opacity: 0.85; stroke: #1f2a36; stroke-width: 0.5; stroke-linejoin: miter"/>
   </g>
   <g id="patch_9">
    <path d="M 67.338529 63.468
L 72.459 63.468
L 72.459 35.748
L 67.338529 35.748
z
" clip-path="url(#p872ea4c059)" style="fill: #2c7a8c; opacity: 0.85; stroke: #1f2a36; stroke-width: 0.5; stroke-linejoin: miter"/>
   </g>
   <g id="patch_10">
    <path d="M 50.697 198.5568
C 54.929323 198.5568 58.988871 197.271668 61.981576 194.98444
C 64.97428 192.697212 66.6558 189.594629 66.6558 186.36
C 66.6558 183.125371 64.97428 180.022788 61.981576 177.73556
C 58.988871 175.448332 54.929323 174.1632 50.697 174.1632
C 46.464677 174.1632 42.405129 175.448332 39.412424 177.73556
C 36.41972 180.022788 34.7382 183.125371 34.7382 186.36
C 34.7382 189.594629 36.41972 192.697212 39.412424 194.98444
C 42.405129 197.271668 46.464677 198.5568 50.697 198.5568
z
" clip-path="url(#p872ea4c059)" style="fill: #ffffff; stroke: #1f2a36; stroke-linejoin: miter"/>
   </g>
   <g id="patch_11">
    <path d="M 50.697 335.3088
C 54.929323 335.3088 58.988871 334.023668 61.981576 331.73644
C 64.97428 329.449212 66.6558 326.346629 66.6558 323.112
C 66.6558 319.877371 64.97428 316.774788 61.981576 314.48756
C 58.988871 312.200332 54.929323 310.9152 50.697 310.9152
C 46.464677 310.9152 42.405129 312.200332 39.412424 314.48756
C 36.41972 316.774788 34.7382 319.877371 34.7382 323.112
C 34.7382 326.346629 36.41972 329.449212 39.412424 331.73644
C 42.405129 334.023668 46.464677 335.3088 50.697 335.3088
z
" clip-path="url(#p872ea4c059)" style="fill: #ffffff; stroke: #1f2a36; stroke-linejoin: miter"/>
   </g>
   <g id="matplotlib.axis_1"/>
   <g id="matplotlib.axis_2"/>
   <g id="patch_12">
    <path d="M 187.986708 140.7144
L 329.488149 140.7144
Q 345.446949 140.7144 345.446949 128.5176
L 345.446949 48.3144
Q 345.446949 36.1176 329.488149 36.1176
L 187.986708 36.1176
Q 172.027908 36.1176 172.027908 48.3144
L 172.027908 128.5176
Q 172.027908 140.7144 187.986708 140.7144
z
" clip-path="url(#p872ea4c059)" style="fill: #e08b3a; opacity: 0.92; stroke: #e08b3a; stroke-linejoin: miter"/>
   </g>
   <g id="line2d_39">
    <path d="M 258.737429 31.128
L 258.737429 20.04
" clip-path="url(#p872ea4c059)" style="fill: none; stroke: #c2493d; stroke-opacity: 0.7; stroke-width: 0.7; stroke-linecap: square"/>
   </g>
   <g id="patch_13">
    <path d="M 362.856549 140.7144
L 560.165349 140.7144
Q 576.124149 140.7144 576.124149 128.5176
L 576.124149 48.3144
Q 576.124149 36.1176 560.165349 36.1176
L 362.856549 36.1176
Q 346.897749 36.1176 346.897749 48.3144
L 346.897749 128.5176
Q 346.897749 140.7144 362.856549 140.7144
z
" clip-path="url(#p872ea4c059)" style="fill: #2c7a8c; opacity: 0.92; stroke: #2c7a8c; stroke-linejoin: miter"/>
   </g>
   <g id="line2d_40">
    <path d="M 461.510949 31.128
L 461.510949 20.04
" clip-path="url(#p872ea4c059)" style="fill: none; stroke: #c2493d; stroke-opacity: 0.7; stroke-width: 0.7; stroke-linecap: square"/>
   </g>
   <g id="patch_14">
    <path d="M 593.533749 140.7144
L 722.228292 140.7144
Q 738.187092 140.7144 738.187092 128.5176
L 738.187092 48.3144
Q 738.187092 36.1176 722.228292 36.1176
L 593.533749 36.1176
Q 577.574949 36.1176 577.574949 48.3144
L 577.574949 128.5176
Q 577.574949 140.7144 593.533749 140.7144
z
" clip-path="url(#p872ea4c059)" style="fill: #7bb369; opacity: 0.92; stroke: #7bb369; stroke-linejoin: miter"/>
   </g>
   <g id="line2d_41">
    <path d="M 657.881021 31.128
L 657.881021 20.04
" clip-path="url(#p872ea4c059)" style="fill: none; stroke: #c2493d; stroke-opacity: 0.7; stroke-width: 0.7; stroke-linecap: square"/>
   </g>
   <g id="line2d_42">
    <path d="M 36.692339 188.877381
L 37.343718 189.651851
L 37.995098 190.372269
L 38.646478 191.026806
L 39.297857 191.604713
L 39.949237 192.096503
L 40.600616 192.494099
L 41.251996 192.790974
L 41.903376 192.982252
L 42.554755 193.064793
L 43.206135 193.037242
L 43.857514 192.90005
L 44.508894 192.655471
L 45.160273 192.307521
L 45.811653 191.861912
L 46.463033 191.325962
L 47.114412 190.708472
L 47.765792 190.019579
L 48.417171 189.270596
L 49.068551 188.473822
L 49.719931 187.642338
L 50.37131 186.789798
L 51.02269 185.930202
L 51.674069 185.077662
L 52.325449 184.246178
L 52.976829 183.449404
L 53.628208 182.700421
L 54.279588 182.011528
L 54.930967 181.394038
L 55.582347 180.858088
L 56.233727 180.412479
L 56.885106 180.064529
L 57.536486 179.81995
L 58.187865 179.682758
L 58.839245 179.655207
L 59.490624 179.737748
L 60.142004 179.929026
L 60.793384 180.225901
L 61.444763 180.623497
L 62.096143 181.115287
L 62.747522 181.693194
L 63.398902 182.347731
L 64.050282 183.068149
L 64.701661 183.842619
" clip-path="url(#p872ea4c059)" style="fill: none; stroke: #2c7a8c; stroke-opacity: 0.85; stroke-width: 0.9; stroke-linecap: square"/>
   </g>
   <g id="line2d_43">
    <path d="M 36.692339 183.81447
L 37.343718 183.230998
L 37.995098 182.852196
L 38.646478 182.70284
L 39.297857 182.7927
L 39.949237 183.115898
L 40.600616 183.651293
L 41.251996 184.363866
L 41.903376 185.207006
L 42.554755 186.125565
L 43.206135 187.059457
L 43.857514 187.947598
L 44.508894 188.731894
L 45.160273 189.361043
L 45.811653 189.793893
L 46.463033 190.002132
L 47.114412 189.972138
L 47.765792 189.705872
L 48.417171 189.220753
L 49.068551 188.54851
L 49.719931 187.733117
L 50.37131 186.827908
L 51.02269 185.892092
L 51.674069 184.986883
L 52.325449 184.17149
L 52.976829 183.499247
L 53.628208 183.014128
L 54.279588 182.747862
L 54.930967 182.717868
L 55.582347 182.926107
L 56.233727 183.358957
L 56.885106 183.988106
L 57.536486 184.772402
L 58.187865 185.660543
L 58.839245 186.594435
L 59.490624 187.512994
L 60.142004 188.356134
L 60.793384 189.068707
L 61.444763 189.604102
L 62.096143 189.9273
L 62.747522 190.01716
L 63.398902 189.867804
L 64.050282 189.489002
L 64.701661 188.90553
" clip-path="url(#p872ea4c059)" style="fill: none; stroke: #2c7a8c; stroke-opacity: 0.85; stroke-width: 0.9; stroke-linecap: square"/>
   </g>
   <g id="line2d_44">
    <path d="M 36.692339 188.367523
L 37.343718 188.554296
L 37.995098 188.420336
L 38.646478 187.985224
L 39.297857 187.312559
L 39.949237 186.500661
L 40.600616 185.668204
L 41.251996 184.936864
L 41.903376 184.413539
L 42.554755 184.174721
L 43.206135 184.255318
L 43.857514 184.643548
L 44.508894 185.282667
L 45.160273 186.079255
L 45.811653 186.916879
L 46.463033 187.673106
L 47.114412 188.237401
L 47.765792 188.527283
L 48.417171 188.50038
L 49.068551 188.160626
L 49.719931 187.55768
L 50.37131 186.779674
L 51.02269 185.940326
L 51.674069 185.16232
L 52.325449 184.559374
L 52.976829 184.21962
L 53.628208 184.192717
L 54.279588 184.482599
L 54.930967 185.046894
L 55.582347 185.803121
L 56.233727 186.640745
L 56.885106 187.437333
L 57.536486 188.076452
L 58.187865 188.464682
L 58.839245 188.545279
L 59.490624 188.306461
L 60.142004 187.783136
L 60.793384 187.051796
L 61.444763 186.219339
L 62.096143 185.407441
L 62.747522 184.734776
L 63.398902 184.299664
L 64.050282 184.165704
L 64.701661 184.352477
" clip-path="url(#p872ea4c059)" style="fill: none; stroke: #2c7a8c; stroke-opacity: 0.85; stroke-width: 0.9; stroke-linecap: square"/>
   </g>
   <g id="patch_15">
    <path d="M 193.55714 277.4664
L 288.759969 277.4664
Q 304.718769 277.4664 304.718769 265.2696
L 304.718769 185.0664
Q 304.718769 172.8696 288.759969 172.8696
L 193.55714 172.8696
Q 177.59834 172.8696 177.59834 185.0664
L 177.59834 265.2696
Q 177.59834 277.4664 193.55714 277.4664
z
" clip-path="url(#p872ea4c059)" style="fill: #e08b3a; opacity: 0.92; stroke: #e08b3a; stroke-linejoin: miter"/>
   </g>
   <g id="line2d_45">
    <path d="M 241.158554 167.88
L 241.158554 156.792
" clip-path="url(#p872ea4c059)" style="fill: none; stroke: #c2493d; stroke-opacity: 0.7; stroke-width: 0.7; stroke-linecap: square"/>
   </g>
   <g id="patch_16">
    <path d="M 322.128369 277.4664
L 480.727431 277.4664
Q 496.686231 277.4664 496.686231 265.2696
L 496.686231 185.0664
Q 496.686231 172.8696 480.727431 172.8696
L 322.128369 172.8696
Q 306.169569 172.8696 306.169569 185.0664
L 306.169569 265.2696
Q 306.169569 277.4664 322.128369 277.4664
z
" clip-path="url(#p872ea4c059)" style="fill: #2c7a8c; opacity: 0.92; stroke: #2c7a8c; stroke-linejoin: miter"/>
   </g>
   <g id="line2d_46">
    <path d="M 401.4279 167.88
L 401.4279 156.792
" clip-path="url(#p872ea4c059)" style="fill: none; stroke: #c2493d; stroke-opacity: 0.7; stroke-width: 0.7; stroke-linecap: square"/>
   </g>
   <g id="patch_17">
    <path d="M 514.095831 277.4664
L 609.29866 277.4664
Q 625.25746 277.4664 625.25746 265.2696
L 625.25746 185.0664
Q 625.25746 172.8696 609.29866 172.8696
L 514.095831 172.8696
Q 498.137031 172.8696 498.137031 185.0664
L 498.137031 265.2696
Q 498.137031 277.4664 514.095831 277.4664
z
" clip-path="url(#p872ea4c059)" style="fill: #7bb369; opacity: 0.92; stroke: #7bb369; stroke-linejoin: miter"/>
   </g>
   <g id="line2d_47">
    <path d="M 561.697246 167.88
L 561.697246 156.792
" clip-path="url(#p872ea4c059)" style="fill: none; stroke: #c2493d; stroke-opacity: 0.7; stroke-width: 0.7; stroke-linecap: square"/>
   </g>
   <g id="patch_18">
    <path d="M 642.66706 277.4664
L 716.65786 277.4664
Q 732.61666 277.4664 732.61666 265.2696
L 732.61666 185.0664
Q 732.61666 172.8696 716.65786 172.8696
L 642.66706 172.8696
Q 626.70826 172.8696 626.70826 185.0664
L 626.70826 265.2696
Q 626.70826 277.4664 642.66706 277.4664
z
" clip-path="url(#p872ea4c059)" style="fill: #a0a0a0; opacity: 0.92; stroke: #a0a0a0; stroke-linejoin: miter"/>
   </g>
   <g id="line2d_48">
    <path d="M 679.66246 167.88
L 679.66246 156.792
" clip-path="url(#p872ea4c059)" style="fill: none; stroke: #c2493d; stroke-opacity: 0.7; stroke-width: 0.7; stroke-linecap: square"/>
   </g>
   <g id="line2d_49">
    <path d="M 50.697 314.57424
L 41.12172 320.67264
" clip-path="url(#p872ea4c059)" style="fill: none; stroke: #2c7a8c; stroke-opacity: 0.7; stroke-width: 0.6; stroke-linecap: square"/>
   </g>
   <g id="line2d_50">
    <path d="M 50.697 314.57424
L 60.27228 320.67264
" clip-path="url(#p872ea4c059)" style="fill: none; stroke: #2c7a8c; stroke-opacity: 0.7; stroke-width: 0.6; stroke-linecap: square"/>
   </g>
   <g id="line2d_51">
    <path d="M 41.12172 320.67264
L 60.27228 320.67264
" clip-path="url(#p872ea4c059)" style="fill: none; stroke: #2c7a8c; stroke-opacity: 0.7; stroke-width: 0.6; stroke-linecap: square"/>
   </g>
   <g id="line2d_52">
    <path d="M 41.12172 320.67264
L 45.11142 327.38088
" clip-path="url(#p872ea4c059)" style="fill: none; stroke: #2c7a8c; stroke-opacity: 0.7; stroke-width: 0.6; stroke-linecap: square"/>
   </g>
   <g id="line2d_53">
    <path d="M 60.27228 320.67264
L 56.28258 327.38088
" clip-path="url(#p872ea4c059)" style="fill: none; stroke: #2c7a8c; stroke-opacity: 0.7; stroke-width: 0.6; stroke-linecap: square"/>
   </g>
   <g id="line2d_54">
    <path d="M 45.11142 327.38088
L 56.28258 327.38088
" clip-path="url(#p872ea4c059)" style="fill: none; stroke: #2c7a8c; stroke-opacity: 0.7; stroke-width: 0.6; stroke-linecap: square"/>
   </g>
   <g id="line2d_55">
    <path d="M 45.11142 327.38088
L 50.697 331.64976
" clip-path="url(#p872ea4c059)" style="fill: none; stroke: #2c7a8c; stroke-opacity: 0.7; stroke-width: 0.6; stroke-linecap: square"/>
   </g>
   <g id="line2d_56">
    <path d="M 56.28258 327.38088
L 50.697 331.64976
" clip-path="url(#p872ea4c059)" style="fill: none; stroke: #2c7a8c; stroke-opacity: 0.7; stroke-width: 0.6; stroke-linecap: square"/>
   </g>
   <g id="line2d_57">
    <path d="M 41.12172 320.67264
L 50.697 323.112
" clip-path="url(#p872ea4c059)" style="fill: none; stroke: #2c7a8c; stroke-opacity: 0.7; stroke-width: 0.6; stroke-linecap: square"/>
   </g>
   <g id="line2d_58">
    <path d="M 60.27228 320.67264
L 50.697 323.112
" clip-path="url(#p872ea4c059)" style="fill: none; stroke: #2c7a8c; stroke-opacity: 0.7; stroke-width: 0.6; stroke-linecap: square"/>
   </g>
   <g id="line2d_59">
    <path d="M 45.11142 327.38088
L 50.697 323.112
" clip-path="url(#p872ea4c059)" style="fill: none; stroke: #2c7a8c; stroke-opacity: 0.7; stroke-width: 0.6; stroke-linecap: square"/>
   </g>
   <g id="line2d_60">
    <path d="M 56.28258 327.38088
L 50.697 323.112
" clip-path="url(#p872ea4c059)" style="fill: none; stroke: #2c7a8c; stroke-opacity: 0.7; stroke-width: 0.6; stroke-linecap: square"/>
   </g>
   <g id="line2d_61">
    <path d="M 50.697 314.57424
L 50.697 323.112
" clip-path="url(#p872ea4c059)" style="fill: none; stroke: #2c7a8c; stroke-opacity: 0.7; stroke-width: 0.6; stroke-linecap: square"/>
   </g>
   <g id="line2d_62">
    <path d="M 50.697 331.64976
L 50.697 323.112
" clip-path="url(#p872ea4c059)" style="fill: none; stroke: #2c7a8c; stroke-opacity: 0.7; stroke-width: 0.6; stroke-linecap: square"/>
   </g>
   <g id="patch_19">
    <path d="M 192.26939 414.2184
L 335.450849 414.2184
Q 351.409649 414.2184 351.409649 402.0216
L 351.409649 321.8184
Q 351.409649 309.6216 335.450849 309.6216
L 192.26939 309.6216
Q 176.31059 309.6216 176.31059 321.8184
L 176.31059 402.0216
Q 176.31059 414.2184 192.26939 414.2184
z
" clip-path="url(#p872ea4c059)" style="fill: #e08b3a; opacity: 0.92; stroke: #e08b3a; stroke-linejoin: miter"/>
   </g>
   <g id="line2d_63">
    <path d="M 263.860119 304.632
L 263.860119 293.544
" clip-path="url(#p872ea4c059)" style="fill: none; stroke: #c2493d; stroke-opacity: 0.7; stroke-width: 0.7; stroke-linecap: square"/>
   </g>
   <g id="patch_20">
    <path d="M 368.819249 414.2184
L 544.91602 414.2184
Q 560.87482 414.2184 560.87482 402.0216
L 560.87482 321.8184
Q 560.87482 309.6216 544.91602 309.6216
L 368.819249 309.6216
Q 352.860449 309.6216 352.860449 321.8184
L 352.860449 402.0216
Q 352.860449 414.2184 368.819249 414.2184
z
" clip-path="url(#p872ea4c059)" style="fill: #2c7a8c; opacity: 0.92; stroke: #2c7a8c; stroke-linejoin: miter"/>
   </g>
   <g id="line2d_64">
    <path d="M 456.867634 304.632
L 456.867634 293.544
" clip-path="url(#p872ea4c059)" style="fill: none; stroke: #c2493d; stroke-opacity: 0.7; stroke-width: 0.7; stroke-linecap: square"/>
   </g>
   <g id="patch_21">
    <path d="M 578.28442 414.2184
L 717.94561 414.2184
Q 733.90441 414.2184 733.90441 402.0216
L 733.90441 321.8184
Q 733.90441 309.6216 717.94561 309.6216
L 578.28442 309.6216
Q 562.32562 309.6216 562.32562 321.8184
L 562.32562 402.0216
Q 562.32562 414.2184 578.28442 414.2184
z
" clip-path="url(#p872ea4c059)" style="fill: #7bb369; opacity: 0.92; stroke: #7bb369; stroke-linejoin: miter"/>
   </g>
   <g id="line2d_65">
    <path d="M 648.115015 304.632
L 648.115015 293.544
" clip-path="url(#p872ea4c059)" style="fill: none; stroke: #c2493d; stroke-opacity: 0.7; stroke-width: 0.7; stroke-linecap: square"/>
   </g>
   <g id="patch_22">
    <path d="M 193.335221 550.9704
L 335.413064 550.9704
Q 351.371864 550.9704 351.371864 538.7736
L 351.371864 458.5704
Q 351.371864 446.3736 335.413064 446.3736
L 193.335221 446.3736
Q 177.376421 446.3736 177.376421 458.5704
L 177.376421 538.7736
Q 177.376421 550.9704 193.335221 550.9704
z
" clip-path="url(#p872ea4c059)" style="fill: #e08b3a; opacity: 0.92; stroke: #e08b3a; stroke-linejoin: miter"/>
   </g>
   <g id="line2d_66">
    <path d="M 264.374142 441.384
L 264.374142 430.296
" clip-path="url(#p872ea4c059)" style="fill: none; stroke: #c2493d; stroke-opacity: 0.7; stroke-width: 0.7; stroke-linecap: square"/>
   </g>
   <g id="patch_23">
    <path d="M 368.781464 550.9704
L 542.604078 550.9704
Q 558.562878 550.9704 558.562878 538.7736
L 558.562878 458.5704
Q 558.562878 446.3736 542.604078 446.3736
L 368.781464 446.3736
Q 352.822664 446.3736 352.822664 458.5704
L 352.822664 538.7736
Q 352.822664 550.9704 368.781464 550.9704
z
" clip-path="url(#p872ea4c059)" style="fill: #2c7a8c; opacity: 0.92; stroke: #2c7a8c; stroke-linejoin: miter"/>
   </g>
   <g id="line2d_67">
    <path d="M 455.692771 441.384
L 455.692771 430.296
" clip-path="url(#p872ea4c059)" style="fill: none; stroke: #c2493d; stroke-opacity: 0.7; stroke-width: 0.7; stroke-linecap: square"/>
   </g>
   <g id="patch_24">
    <path d="M 575.972478 550.9704
L 716.879779 550.9704
Q 732.838579 550.9704 732.838579 538.7736
L 732.838579 458.5704
Q 732.838579 446.3736 716.879779 446.3736
L 575.972478 446.3736
Q 560.013678 446.3736 560.013678 458.5704
L 560.013678 538.7736
Q 560.013678 550.9704 575.972478 550.9704
z
" clip-path="url(#p872ea4c059)" style="fill: #7bb369; opacity: 0.92; stroke: #7bb369; stroke-linejoin: miter"/>
   </g>
   <g id="line2d_68">
    <path d="M 646.426128 441.384
L 646.426128 430.296
" clip-path="url(#p872ea4c059)" style="fill: none; stroke: #c2493d; stroke-opacity: 0.7; stroke-width: 0.7; stroke-linecap: square"/>
   </g>
   <g id="line2d_69">
    <path d="M 362.619 556.884
L 362.619 545.796
" clip-path="url(#p872ea4c059)" style="fill: none; stroke: #c2493d; stroke-opacity: 0.7; stroke-width: 0.7; stroke-linecap: square"/>
   </g>
   <g id="text_1">
    <text style="font-weight: 700; font-size: 17px; font-family: 'Helvetica', 'Arial', 'DejaVu Sans', sans-serif; text-anchor: start; fill: #1f2a36" x="25.308" y="32.033344" transform="rotate(-0 25.308 32.033344)">Weight perturbation across three AI weather models</text>
   </g>
   <g id="text_2">
    <!-- Phase 2 layer-group ablation at $\sigma_{\rm full}=0.01$ with $\sqrt{N_{\rm total}/N_{\rm group}}$ variance scaling.  Multiplicative noise: w' = w (1 + σ · N(0,1)). -->
    <g style="fill: #5c6b7a" transform="translate(25.308 54.514)">
     <text>
      <tspan x="0" y="-0.603438" style="font-size: 9.5px; font-family: 'DejaVu Sans'; fill: #5c6b7a">P</tspan>
      <tspan x="5.72876" y="-0.603438" style="font-size: 9.5px; font-family: 'DejaVu Sans'; fill: #5c6b7a">h</tspan>
      <tspan x="11.749756" y="-0.603438" style="font-size: 9.5px; font-family: 'DejaVu Sans'; fill: #5c6b7a">a</tspan>
      <tspan x="17.571289" y="-0.603438" style="font-size: 9.5px; font-family: 'DejaVu Sans'; fill: #5c6b7a">s</tspan>
      <tspan x="22.520752" y="-0.603438" style="font-size: 9.5px; font-family: 'DejaVu Sans'; fill: #5c6b7a">e</tspan>
      <tspan x="28.365479" y="-0.603438" style="font-size: 9.5px; font-family: 'DejaVu Sans'; fill: #5c6b7a"> </tspan>
      <tspan x="31.385254" y="-0.603438" style="font-size: 9.5px; font-family: 'DejaVu Sans'; fill: #5c6b7a">2</tspan>
      <tspan x="37.429443" y="-0.603438" style="font-size: 9.5px; font-family: 'DejaVu Sans'; fill: #5c6b7a"> </tspan>
      <tspan x="40.449219" y="-0.603438" style="font-size: 9.5px; font-family: 'DejaVu Sans'; fill: #5c6b7a">l</tspan>
      <tspan x="43.088623" y="-0.603438" style="font-size: 9.5px; font-family: 'DejaVu Sans'; fill: #5c6b7a">a</tspan>
      <tspan x="48.910156" y="-0.603438" style="font-size: 9.5px; font-family: 'DejaVu Sans'; fill: #5c6b7a">y</tspan>
      <tspan x="54.532227" y="-0.603438" style="font-size: 9.5px; font-family: 'DejaVu Sans'; fill: #5c6b7a">e</tspan>
      <tspan x="60.376953" y="-0.603438" style="font-size: 9.5px; font-family: 'DejaVu Sans'; fill: #5c6b7a">r</tspan>
      <tspan x="64.282715" y="-0.603438" style="font-size: 9.5px; font-family: 'DejaVu Sans'; fill: #5c6b7a">-</tspan>
      <tspan x="67.710693" y="-0.603438" style="font-size: 9.5px; font-family: 'DejaVu Sans'; fill: #5c6b7a">g</tspan>
      <tspan x="73.740967" y="-0.603438" style="font-size: 9.5px; font-family: 'DejaVu Sans'; fill: #5c6b7a">r</tspan>
      <tspan x="77.646729" y="-0.603438" style="font-size: 9.5px; font-family: 'DejaVu Sans'; fill: #5c6b7a">o</tspan>
      <tspan x="83.458984" y="-0.603438" style="font-size: 9.5px; font-family: 'DejaVu Sans'; fill: #5c6b7a">u</tspan>
      <tspan x="89.47998" y="-0.603438" style="font-size: 9.5px; font-family: 'DejaVu Sans'; fill: #5c6b7a">p</tspan>
      <tspan x="95.510254" y="-0.603438" style="font-size: 9.5px; font-family: 'DejaVu Sans'; fill: #5c6b7a"> </tspan>
      <tspan x="98.530029" y="-0.603438" style="font-size: 9.5px; font-family: 'DejaVu Sans'; fill: #5c6b7a">a</tspan>
      <tspan x="104.351562" y="-0.603438" style="font-size: 9.5px; font-family: 'DejaVu Sans'; fill: #5c6b7a">b</tspan>
      <tspan x="110.381836" y="-0.603438" style="font-size: 9.5px; font-family: 'DejaVu Sans'; fill: #5c6b7a">l</tspan>
      <tspan x="113.02124" y="-0.603438" style="font-size: 9.5px; font-family: 'DejaVu Sans'; fill: #5c6b7a">a</tspan>
      <tspan x="118.842773" y="-0.603438" style="font-size: 9.5px; font-family: 'DejaVu Sans'; fill: #5c6b7a">t</tspan>
      <tspan x="122.567627" y="-0.603438" style="font-size: 9.5px; font-family: 'DejaVu Sans'; fill: #5c6b7a">i</tspan>
      <tspan x="125.207031" y="-0.603438" style="font-size: 9.5px; font-family: 'DejaVu Sans'; fill: #5c6b7a">o</tspan>
      <tspan x="131.019287" y="-0.603438" style="font-size: 9.5px; font-family: 'DejaVu Sans'; fill: #5c6b7a">n</tspan>
      <tspan x="137.040283" y="-0.603438" style="font-size: 9.5px; font-family: 'DejaVu Sans'; fill: #5c6b7a"> </tspan>
      <tspan x="140.060059" y="-0.603438" style="font-size: 9.5px; font-family: 'DejaVu Sans'; fill: #5c6b7a">a</tspan>
      <tspan x="145.881592" y="-0.603438" style="font-size: 9.5px; font-family: 'DejaVu Sans'; fill: #5c6b7a">t</tspan>
      <tspan x="149.606445" y="-0.603438" style="font-size: 9.5px; font-family: 'DejaVu Sans'; fill: #5c6b7a"> </tspan>
      <tspan x="171.022485" y="-0.603438" style="font-size: 9.5px; font-family: 'DejaVu Sans'; fill: #5c6b7a">=</tspan>
      <tspan x="180.833276" y="-0.603438" style="font-size: 9.5px; font-family: 'DejaVu Sans'; fill: #5c6b7a">0</tspan>
      <tspan x="186.877466" y="-0.603438" style="font-size: 9.5px; font-family: 'DejaVu Sans'; fill: #5c6b7a">.</tspan>
      <tspan x="189.897241" y="-0.603438" style="font-size: 9.5px; font-family: 'DejaVu Sans'; fill: #5c6b7a">0</tspan>
      <tspan x="195.941431" y="-0.603438" style="font-size: 9.5px; font-family: 'DejaVu Sans'; fill: #5c6b7a">1</tspan>
      <tspan x="201.98562" y="-0.603438" style="font-size: 9.5px; font-family: 'DejaVu Sans'; fill: #5c6b7a"> </tspan>
      <tspan x="205.005396" y="-0.603438" style="font-size: 9.5px; font-family: 'DejaVu Sans'; fill: #5c6b7a">w</tspan>
      <tspan x="212.775171" y="-0.603438" style="font-size: 9.5px; font-family: 'DejaVu Sans'; fill: #5c6b7a">i</tspan>
      <tspan x="215.414575" y="-0.603438" style="font-size: 9.5px; font-family: 'DejaVu Sans'; fill: #5c6b7a">t</tspan>
      <tspan x="219.139429" y="-0.603438" style="font-size: 9.5px; font-family: 'DejaVu Sans'; fill: #5c6b7a">h</tspan>
      <tspan x="225.160425" y="-0.603438" style="font-size: 9.5px; font-family: 'DejaVu Sans'; fill: #5c6b7a"> </tspan>
      <tspan x="259.22049" y="-0.109375" style="font-size: 9.5px; font-family: 'DejaVu Sans'; fill: #5c6b7a">/</tspan>
      <tspan x="290.448248" y="-0.603438" style="font-size: 9.5px; font-family: 'DejaVu Sans'; fill: #5c6b7a"> </tspan>
      <tspan x="293.468024" y="-0.603438" style="font-size: 9.5px; font-family: 'DejaVu Sans'; fill: #5c6b7a">v</tspan>
      <tspan x="299.090094" y="-0.603438" style="font-size: 9.5px; font-family: 'DejaVu Sans'; fill: #5c6b7a">a</tspan>
      <tspan x="304.911627" y="-0.603438" style="font-size: 9.5px; font-family: 'DejaVu Sans'; fill: #5c6b7a">r</tspan>
      <tspan x="308.817389" y="-0.603438" style="font-size: 9.5px; font-family: 'DejaVu Sans'; fill: #5c6b7a">i</tspan>
      <tspan x="311.456793" y="-0.603438" style="font-size: 9.5px; font-family: 'DejaVu Sans'; fill: #5c6b7a">a</tspan>
      <tspan x="317.278326" y="-0.603438" style="font-size: 9.5px; font-family: 'DejaVu Sans'; fill: #5c6b7a">n</tspan>
      <tspan x="323.299323" y="-0.603438" style="font-size: 9.5px; font-family: 'DejaVu Sans'; fill: #5c6b7a">c</tspan>
      <tspan x="328.522467" y="-0.603438" style="font-size: 9.5px; font-family: 'DejaVu Sans'; fill: #5c6b7a">e</tspan>
      <tspan x="334.367194" y="-0.603438" style="font-size: 9.5px; font-family: 'DejaVu Sans'; fill: #5c6b7a"> </tspan>
      <tspan x="337.386969" y="-0.603438" style="font-size: 9.5px; font-family: 'DejaVu Sans'; fill: #5c6b7a">s</tspan>
      <tspan x="342.336432" y="-0.603438" style="font-size: 9.5px; font-family: 'DejaVu Sans'; fill: #5c6b7a">c</tspan>
      <tspan x="347.559576" y="-0.603438" style="font-size: 9.5px; font-family: 'DejaVu Sans'; fill: #5c6b7a">a</tspan>
      <tspan x="353.38111" y="-0.603438" style="font-size: 9.5px; font-family: 'DejaVu Sans'; fill: #5c6b7a">l</tspan>
      <tspan x="356.020514" y="-0.603438" style="font-size: 9.5px; font-family: 'DejaVu Sans'; fill: #5c6b7a">i</tspan>
      <tspan x="358.659918" y="-0.603438" style="font-size: 9.5px; font-family: 'DejaVu Sans'; fill: #5c6b7a">n</tspan>
      <tspan x="364.680914" y="-0.603438" style="font-size: 9.5px; font-family: 'DejaVu Sans'; fill: #5c6b7a">g</tspan>
      <tspan x="370.711188" y="-0.603438" style="font-size: 9.5px; font-family: 'DejaVu Sans'; fill: #5c6b7a">.</tspan>
      <tspan x="373.730963" y="-0.603438" style="font-size: 9.5px; font-family: 'DejaVu Sans'; fill: #5c6b7a"> </tspan>
      <tspan x="376.750739" y="-0.603438" style="font-size: 9.5px; font-family: 'DejaVu Sans'; fill: #5c6b7a"> </tspan>
      <tspan x="379.770514" y="-0.603438" style="font-size: 9.5px; font-family: 'DejaVu Sans'; fill: #5c6b7a">M</tspan>
      <tspan x="387.967047" y="-0.603438" style="font-size: 9.5px; font-family: 'DejaVu Sans'; fill: #5c6b7a">u</tspan>
      <tspan x="393.988043" y="-0.603438" style="font-size: 9.5px; font-family: 'DejaVu Sans'; fill: #5c6b7a">l</tspan>
      <tspan x="396.627448" y="-0.603438" style="font-size: 9.5px; font-family: 'DejaVu Sans'; fill: #5c6b7a">t</tspan>
      <tspan x="400.352301" y="-0.603438" style="font-size: 9.5px; font-family: 'DejaVu Sans'; fill: #5c6b7a">i</tspan>
      <tspan x="402.991705" y="-0.603438" style="font-size: 9.5px; font-family: 'DejaVu Sans'; fill: #5c6b7a">p</tspan>
      <tspan x="409.021979" y="-0.603438" style="font-size: 9.5px; font-family: 'DejaVu Sans'; fill: #5c6b7a">l</tspan>
      <tspan x="411.661383" y="-0.603438" style="font-size: 9.5px; font-family: 'DejaVu Sans'; fill: #5c6b7a">i</tspan>
      <tspan x="414.300787" y="-0.603438" style="font-size: 9.5px; font-family: 'DejaVu Sans'; fill: #5c6b7a">c</tspan>
      <tspan x="419.523932" y="-0.603438" style="font-size: 9.5px; font-family: 'DejaVu Sans'; fill: #5c6b7a">a</tspan>
      <tspan x="425.345465" y="-0.603438" style="font-size: 9.5px; font-family: 'DejaVu Sans'; fill: #5c6b7a">t</tspan>
      <tspan x="429.070319" y="-0.603438" style="font-size: 9.5px; font-family: 'DejaVu Sans'; fill: #5c6b7a">i</tspan>
      <tspan x="431.709723" y="-0.603438" style="font-size: 9.5px; font-family: 'DejaVu Sans'; fill: #5c6b7a">v</tspan>
      <tspan x="437.331793" y="-0.603438" style="font-size: 9.5px; font-family: 'DejaVu Sans'; fill: #5c6b7a">e</tspan>
      <tspan x="443.17652" y="-0.603438" style="font-size: 9.5px; font-family: 'DejaVu Sans'; fill: #5c6b7a"> </tspan>
      <tspan x="446.196295" y="-0.603438" style="font-size: 9.5px; font-family: 'DejaVu Sans'; fill: #5c6b7a">n</tspan>
      <tspan x="452.217291" y="-0.603438" style="font-size: 9.5px; font-family: 'DejaVu Sans'; fill: #5c6b7a">o</tspan>
      <tspan x="458.029547" y="-0.603438" style="font-size: 9.5px; font-family: 'DejaVu Sans'; fill: #5c6b7a">i</tspan>
      <tspan x="460.668951" y="-0.603438" style="font-size: 9.5px; font-family: 'DejaVu Sans'; fill: #5c6b7a">s</tspan>
      <tspan x="465.618414" y="-0.603438" style="font-size: 9.5px; font-family: 'DejaVu Sans'; fill: #5c6b7a">e</tspan>
      <tspan x="471.463141" y="-0.603438" style="font-size: 9.5px; font-family: 'DejaVu Sans'; fill: #5c6b7a">:</tspan>
      <tspan x="474.663824" y="-0.603438" style="font-size: 9.5px; font-family: 'DejaVu Sans'; fill: #5c6b7a"> </tspan>
      <tspan x="477.6836" y="-0.603438" style="font-size: 9.5px; font-family: 'DejaVu Sans'; fill: #5c6b7a">w</tspan>
      <tspan x="485.453375" y="-0.603438" style="font-size: 9.5px; font-family: 'DejaVu Sans'; fill: #5c6b7a">'</tspan>
      <tspan x="488.064948" y="-0.603438" style="font-size: 9.5px; font-family: 'DejaVu Sans'; fill: #5c6b7a"> </tspan>
      <tspan x="491.084723" y="-0.603438" style="font-size: 9.5px; font-family: 'DejaVu Sans'; fill: #5c6b7a">=</tspan>
      <tspan x="499.044684" y="-0.603438" style="font-size: 9.5px; font-family: 'DejaVu Sans'; fill: #5c6b7a"> </tspan>
      <tspan x="502.064459" y="-0.603438" style="font-size: 9.5px; font-family: 'DejaVu Sans'; fill: #5c6b7a">w</tspan>
      <tspan x="509.834235" y="-0.603438" style="font-size: 9.5px; font-family: 'DejaVu Sans'; fill: #5c6b7a"> </tspan>
      <tspan x="512.85401" y="-0.603438" style="font-size: 9.5px; font-family: 'DejaVu Sans'; fill: #5c6b7a">(</tspan>
      <tspan x="516.560309" y="-0.603438" style="font-size: 9.5px; font-family: 'DejaVu Sans'; fill: #5c6b7a">1</tspan>
      <tspan x="522.604498" y="-0.603438" style="font-size: 9.5px; font-family: 'DejaVu Sans'; fill: #5c6b7a"> </tspan>
      <tspan x="525.624274" y="-0.603438" style="font-size: 9.5px; font-family: 'DejaVu Sans'; fill: #5c6b7a">+</tspan>
      <tspan x="533.584235" y="-0.603438" style="font-size: 9.5px; font-family: 'DejaVu Sans'; fill: #5c6b7a"> </tspan>
      <tspan x="536.60401" y="-0.603438" style="font-size: 9.5px; font-family: 'DejaVu Sans'; fill: #5c6b7a">σ</tspan>
      <tspan x="542.625006" y="-0.603438" style="font-size: 9.5px; font-family: 'DejaVu Sans'; fill: #5c6b7a"> </tspan>
      <tspan x="545.644781" y="-0.603438" style="font-size: 9.5px; font-family: 'DejaVu Sans'; fill: #5c6b7a">·</tspan>
      <tspan x="548.664557" y="-0.603438" style="font-size: 9.5px; font-family: 'DejaVu Sans'; fill: #5c6b7a"> </tspan>
      <tspan x="551.684332" y="-0.603438" style="font-size: 9.5px; font-family: 'DejaVu Sans'; fill: #5c6b7a">N</tspan>
      <tspan x="558.790778" y="-0.603438" style="font-size: 9.5px; font-family: 'DejaVu Sans'; fill: #5c6b7a">(</tspan>
      <tspan x="562.497076" y="-0.603438" style="font-size: 9.5px; font-family: 'DejaVu Sans'; fill: #5c6b7a">0</tspan>
      <tspan x="568.541266" y="-0.603438" style="font-size: 9.5px; font-family: 'DejaVu Sans'; fill: #5c6b7a">,</tspan>
      <tspan x="571.561041" y="-0.603438" style="font-size: 9.5px; font-family: 'DejaVu Sans'; fill: #5c6b7a">1</tspan>
      <tspan x="577.605231" y="-0.603438" style="font-size: 9.5px; font-family: 'DejaVu Sans'; fill: #5c6b7a">)</tspan>
      <tspan x="581.31153" y="-0.603438" style="font-size: 9.5px; font-family: 'DejaVu Sans'; fill: #5c6b7a">)</tspan>
      <tspan x="585.017828" y="-0.603438" style="font-size: 9.5px; font-family: 'DejaVu Sans'; fill: #5c6b7a">.</tspan>
      <tspan x="152.626221" y="-0.603438" style="font-style: oblique; font-size: 9.5px; font-family: 'DejaVu Sans'; fill: #5c6b7a">σ</tspan>
      <tspan x="236.634576" y="-0.109375" style="font-style: oblique; font-size: 9.5px; font-family: 'DejaVu Sans'; fill: #5c6b7a">N</tspan>
      <tspan x="262.421173" y="-0.109375" style="font-style: oblique; font-size: 9.5px; font-family: 'DejaVu Sans'; fill: #5c6b7a">N</tspan>
      <tspan x="158.647217" y="1.037187" style="font-size: 6.65px; font-family: 'DejaVu Sans'; fill: #5c6b7a">f</tspan>
      <tspan x="160.988354" y="1.037187" style="font-size: 6.65px; font-family: 'DejaVu Sans'; fill: #5c6b7a">u</tspan>
      <tspan x="165.203052" y="1.037187" style="font-size: 6.65px; font-family: 'DejaVu Sans'; fill: #5c6b7a">l</tspan>
      <tspan x="167.050635" y="1.037187" style="font-size: 6.65px; font-family: 'DejaVu Sans'; fill: #5c6b7a">l</tspan>
      <tspan x="243.741022" y="1.53125" style="font-size: 6.65px; font-family: 'DejaVu Sans'; fill: #5c6b7a">t</tspan>
      <tspan x="246.348419" y="1.53125" style="font-size: 6.65px; font-family: 'DejaVu Sans'; fill: #5c6b7a">o</tspan>
      <tspan x="250.416998" y="1.53125" style="font-size: 6.65px; font-family: 'DejaVu Sans'; fill: #5c6b7a">t</tspan>
      <tspan x="253.024396" y="1.53125" style="font-size: 6.65px; font-family: 'DejaVu Sans'; fill: #5c6b7a">a</tspan>
      <tspan x="257.099469" y="1.53125" style="font-size: 6.65px; font-family: 'DejaVu Sans'; fill: #5c6b7a">l</tspan>
      <tspan x="269.527618" y="1.53125" style="font-size: 6.65px; font-family: 'DejaVu Sans'; fill: #5c6b7a">g</tspan>
      <tspan x="273.74881" y="1.53125" style="font-size: 6.65px; font-family: 'DejaVu Sans'; fill: #5c6b7a">r</tspan>
      <tspan x="276.482843" y="1.53125" style="font-size: 6.65px; font-family: 'DejaVu Sans'; fill: #5c6b7a">o</tspan>
      <tspan x="280.551422" y="1.53125" style="font-size: 6.65px; font-family: 'DejaVu Sans'; fill: #5c6b7a">u</tspan>
      <tspan x="284.766119" y="1.53125" style="font-size: 6.65px; font-family: 'DejaVu Sans'; fill: #5c6b7a">p</tspan>
      <tspan x="228.1802" y="0.429375" style="font-size: 6.872631px; font-family: 'STIXSizeOneSym'; fill: #5c6b7a">√</tspan>
     </text>
     <rect x="235.447076" y="-10.8125" width="55.001172" height="0.59375"/>
    </g>
   </g>
   <g id="text_3">
    <text style="font-weight: 700; font-size: 14px; font-family: 'Helvetica', 'Arial', 'DejaVu Sans', sans-serif; text-anchor: start; fill: #1f2a36" x="25.308" y="93.509813" transform="rotate(-0 25.308 93.509813)">Aurora</text>
   </g>
   <g id="text_4">
    <text style="font-style: italic; font-size: 8px; font-family: 'Helvetica', 'Arial', 'DejaVu Sans', sans-serif; text-anchor: start; fill: #5c6b7a" x="25.308" y="108.35475" transform="rotate(-0 25.308 108.35475)">Swin-Transformer 3D U-Net</text>
   </g>
   <g id="text_5">
    <text style="font-size: 8px; font-family: 'Helvetica', 'Arial', 'DejaVu Sans', sans-serif; text-anchor: start; fill: #1f2a36" x="25.308" y="127.75875" transform="rotate(-0 25.308 127.75875)">N_total = 644</text>
   </g>
   <g id="patch_25">
    <path d="M 195.240708 132.9528
L 322.234149 132.9528
Q 335.291349 132.9528 335.291349 122.9736
L 335.291349 53.8584
Q 335.291349 43.8792 322.234149 43.8792
L 195.240708 43.8792
Q 182.183508 43.8792 182.183508 53.8584
L 182.183508 122.9736
Q 182.183508 132.9528 195.240708 132.9528
z
" clip-path="url(#p872ea4c059)" style="fill: #ffffff; opacity: 0.18"/>
   </g>
   <g id="patch_26">
    <path d="M 370.110549 132.9528
L 552.911349 132.9528
Q 565.968549 132.9528 565.968549 122.9736
L 565.968549 53.8584
Q 565.968549 43.8792 552.911349 43.8792
L 370.110549 43.8792
Q 357.053349 43.8792 357.053349 53.8584
L 357.053349 122.9736
Q 357.053349 132.9528 370.110549 132.9528
z
" clip-path="url(#p872ea4c059)" style="fill: #ffffff; opacity: 0.18"/>
   </g>
   <g id="patch_27">
    <path d="M 600.787749 132.9528
L 714.974292 132.9528
Q 728.031492 132.9528 728.031492 122.9736
L 728.031492 53.8584
Q 728.031492 43.8792 714.974292 43.8792
L 600.787749 43.8792
Q 587.730549 43.8792 587.730549 53.8584
L 587.730549 122.9736
Q 587.730549 132.9528 600.787749 132.9528
z
" clip-path="url(#p872ea4c059)" style="fill: #ffffff; opacity: 0.18"/>
   </g>
   <g id="text_6">
    <text style="font-weight: 700; font-size: 14px; font-family: 'Helvetica', 'Arial', 'DejaVu Sans', sans-serif; text-anchor: start; fill: #1f2a36" x="25.308" y="230.261813" transform="rotate(-0 25.308 230.261813)">SFNO</text>
   </g>
   <g id="text_7">
    <text style="font-style: italic; font-size: 8px; font-family: 'Helvetica', 'Arial', 'DejaVu Sans', sans-serif; text-anchor: start; fill: #5c6b7a" x="25.308" y="245.10675" transform="rotate(-0 25.308 245.10675)">Spherical Fourier Neural Operator</text>
   </g>
   <g id="text_8">
    <text style="font-size: 8px; font-family: 'Helvetica', 'Arial', 'DejaVu Sans', sans-serif; text-anchor: start; fill: #1f2a36" x="25.308" y="264.51075" transform="rotate(-0 25.308 264.51075)">N_total = 87</text>
   </g>
   <g id="patch_28">
    <path d="M 200.81114 269.7048
L 281.505969 269.7048
Q 294.563169 269.7048 294.563169 259.7256
L 294.563169 190.6104
Q 294.563169 180.6312 281.505969 180.6312
L 200.81114 180.6312
Q 187.75394 180.6312 187.75394 190.6104
L 187.75394 259.7256
Q 187.75394 269.7048 200.81114 269.7048
z
" clip-path="url(#p872ea4c059)" style="fill: #ffffff; opacity: 0.18"/>
   </g>
   <g id="patch_29">
    <path d="M 329.382369 269.7048
L 473.473431 269.7048
Q 486.530631 269.7048 486.530631 259.7256
L 486.530631 190.6104
Q 486.530631 180.6312 473.473431 180.6312
L 329.382369 180.6312
Q 316.325169 180.6312 316.325169 190.6104
L 316.325169 259.7256
Q 316.325169 269.7048 329.382369 269.7048
z
" clip-path="url(#p872ea4c059)" style="fill: #ffffff; opacity: 0.18"/>
   </g>
   <g id="patch_30">
    <path d="M 521.349831 269.7048
L 602.04466 269.7048
Q 615.10186 269.7048 615.10186 259.7256
L 615.10186 190.6104
Q 615.10186 180.6312 602.04466 180.6312
L 521.349831 180.6312
Q 508.292631 180.6312 508.292631 190.6104
L 508.292631 259.7256
Q 508.292631 269.7048 521.349831 269.7048
z
" clip-path="url(#p872ea4c059)" style="fill: #ffffff; opacity: 0.18"/>
   </g>
   <g id="patch_31">
    <path d="M 649.92106 269.7048
L 709.40386 269.7048
Q 722.46106 269.7048 722.46106 259.7256
L 722.46106 190.6104
Q 722.46106 180.6312 709.40386 180.6312
L 649.92106 180.6312
Q 636.86386 180.6312 636.86386 190.6104
L 636.86386 259.7256
Q 636.86386 269.7048 649.92106 269.7048
z
" clip-path="url(#p872ea4c059)" style="fill: #ffffff; opacity: 0.18"/>
   </g>
   <g id="PathCollection_1">
    <defs>
     <path id="m07974b3ad4" d="M 0 1.224745
C 0.324806 1.224745 0.636353 1.095698 0.866025 0.866025
C 1.095698 0.636353 1.224745 0.324806 1.224745 0
C 1.224745 -0.324806 1.095698 -0.636353 0.866025 -0.866025
C 0.636353 -1.095698 0.324806 -1.224745 0 -1.224745
C -0.324806 -1.224745 -0.636353 -1.095698 -0.866025 -0.866025
C -1.095698 -0.636353 -1.224745 -0.324806 -1.224745 0
C -1.224745 0.324806 -1.095698 0.636353 -0.866025 0.866025
C -0.636353 1.095698 -0.324806 1.224745 0 1.224745
z
" style="stroke: #1f2a36; stroke-width: 0.4"/>
    </defs>
    <g clip-path="url(#p872ea4c059)">
     <use xlink:href="#m07974b3ad4" x="50.697" y="314.57424" style="fill: #2c7a8c; stroke: #1f2a36; stroke-width: 0.4"/>
     <use xlink:href="#m07974b3ad4" x="41.12172" y="320.67264" style="fill: #2c7a8c; stroke: #1f2a36; stroke-width: 0.4"/>
     <use xlink:href="#m07974b3ad4" x="60.27228" y="320.67264" style="fill: #2c7a8c; stroke: #1f2a36; stroke-width: 0.4"/>
     <use xlink:href="#m07974b3ad4" x="45.11142" y="327.38088" style="fill: #2c7a8c; stroke: #1f2a36; stroke-width: 0.4"/>
     <use xlink:href="#m07974b3ad4" x="56.28258" y="327.38088" style="fill: #2c7a8c; stroke: #1f2a36; stroke-width: 0.4"/>
     <use xlink:href="#m07974b3ad4" x="50.697" y="331.64976" style="fill: #2c7a8c; stroke: #1f2a36; stroke-width: 0.4"/>
     <use xlink:href="#m07974b3ad4" x="50.697" y="323.112" style="fill: #2c7a8c; stroke: #1f2a36; stroke-width: 0.4"/>
    </g>
   </g>
   <g id="text_9">
    <text style="font-weight: 700; font-size: 14px; font-family: 'Helvetica', 'Arial', 'DejaVu Sans', sans-serif; text-anchor: start; fill: #1f2a36" x="25.308" y="367.013813" transform="rotate(-0 25.308 367.013813)">GraphCast</text>
   </g>
   <g id="text_10">
    <text style="font-style: italic; font-size: 8px; font-family: 'Helvetica', 'Arial', 'DejaVu Sans', sans-serif; text-anchor: start; fill: #5c6b7a" x="25.308" y="381.85875" transform="rotate(-0 25.308 381.85875)">Multi-Mesh Graph Neural Network</text>
   </g>
   <g id="text_11">
    <text style="font-size: 8px; font-family: 'Helvetica', 'Arial', 'DejaVu Sans', sans-serif; text-anchor: start; fill: #1f2a36" x="25.308" y="401.26275" transform="rotate(-0 25.308 401.26275)">N_total = 264</text>
   </g>
   <g id="patch_32">
    <path d="M 199.52339 406.4568
L 328.196849 406.4568
Q 341.254049 406.4568 341.254049 396.4776
L 341.254049 327.3624
Q 341.254049 317.3832 328.196849 317.3832
L 199.52339 317.3832
Q 186.46619 317.3832 186.46619 327.3624
L 186.46619 396.4776
Q 186.46619 406.4568 199.52339 406.4568
z
" clip-path="url(#p872ea4c059)" style="fill: #ffffff; opacity: 0.18"/>
   </g>
   <g id="patch_33">
    <path d="M 376.073249 406.4568
L 537.66202 406.4568
Q 550.71922 406.4568 550.71922 396.4776
L 550.71922 327.3624
Q 550.71922 317.3832 537.66202 317.3832
L 376.073249 317.3832
Q 363.016049 317.3832 363.016049 327.3624
L 363.016049 396.4776
Q 363.016049 406.4568 376.073249 406.4568
z
" clip-path="url(#p872ea4c059)" style="fill: #ffffff; opacity: 0.18"/>
   </g>
   <g id="patch_34">
    <path d="M 585.53842 406.4568
L 710.69161 406.4568
Q 723.74881 406.4568 723.74881 396.4776
L 723.74881 327.3624
Q 723.74881 317.3832 710.69161 317.3832
L 585.53842 317.3832
Q 572.48122 317.3832 572.48122 327.3624
L 572.48122 396.4776
Q 572.48122 406.4568 585.53842 406.4568
z
" clip-path="url(#p872ea4c059)" style="fill: #ffffff; opacity: 0.18"/>
   </g>
   <g id="text_12">
    <text style="font-weight: 700; font-size: 14px; font-family: 'Helvetica', 'Arial', 'DejaVu Sans', sans-serif; text-anchor: start; fill: #1f2a36" x="25.308" y="503.765813" transform="rotate(-0 25.308 503.765813)">AIFS</text>
   </g>
   <g id="text_13">
    <text style="font-style: italic; font-size: 8px; font-family: 'Helvetica', 'Arial', 'DejaVu Sans', sans-serif; text-anchor: start; fill: #5c6b7a" x="25.308" y="518.61075" transform="rotate(-0 25.308 518.61075)">GNN encoder/decoder + sliding-window transformer</text>
   </g>
   <g id="text_14">
    <text style="font-size: 8px; font-family: 'Helvetica', 'Arial', 'DejaVu Sans', sans-serif; text-anchor: start; fill: #1f2a36" x="25.308" y="538.01475" transform="rotate(-0 25.308 538.01475)">N_total = 242</text>
   </g>
   <g id="patch_35">
    <path d="M 200.589221 543.2088
L 328.159064 543.2088
Q 341.216264 543.2088 341.216264 533.2296
L 341.216264 464.1144
Q 341.216264 454.1352 328.159064 454.1352
L 200.589221 454.1352
Q 187.532021 454.1352 187.532021 464.1144
L 187.532021 533.2296
Q 187.532021 543.2088 200.589221 543.2088
z
" clip-path="url(#p872ea4c059)" style="fill: #ffffff; opacity: 0.18"/>
   </g>
   <g id="patch_36">
    <path d="M 376.035464 543.2088
L 535.350078 543.2088
Q 548.407278 543.2088 548.407278 533.2296
L 548.407278 464.1144
Q 548.407278 454.1352 535.350078 454.1352
L 376.035464 454.1352
Q 362.978264 454.1352 362.978264 464.1144
L 362.978264 533.2296
Q 362.978264 543.2088 376.035464 543.2088
z
" clip-path="url(#p872ea4c059)" style="fill: #ffffff; opacity: 0.18"/>
   </g>
   <g id="patch_37">
    <path d="M 583.226478 543.2088
L 709.625779 543.2088
Q 722.682979 543.2088 722.682979 533.2296
L 722.682979 464.1144
Q 722.682979 454.1352 709.625779 454.1352
L 583.226478 454.1352
Q 570.169278 454.1352 570.169278 464.1144
L 570.169278 533.2296
Q 570.169278 543.2088 583.226478 543.2088
z
" clip-path="url(#p872ea4c059)" style="fill: #ffffff; opacity: 0.18"/>
   </g>
   <g id="text_15">
    <text style="font-weight: 700; font-size: 10px; font-family: 'Helvetica', 'Arial', 'DejaVu Sans', sans-serif; text-anchor: start; fill: #e08b3a" x="25.308" y="556.467513" transform="rotate(-0 25.308 556.467513)">encoder</text>
   </g>
   <g id="text_16">
    <text style="font-weight: 700; font-size: 10px; font-family: 'Helvetica', 'Arial', 'DejaVu Sans', sans-serif; text-anchor: start; fill: #2c7a8c" x="105.102" y="556.467513" transform="rotate(-0 105.102 556.467513)">processor</text>
   </g>
   <g id="text_17">
    <text style="font-weight: 700; font-size: 10px; font-family: 'Helvetica', 'Arial', 'DejaVu Sans', sans-serif; text-anchor: start; fill: #7bb369" x="184.896" y="556.467513" transform="rotate(-0 184.896 556.467513)">decoder</text>
   </g>
   <g id="text_18">
    <text style="font-weight: 700; font-size: 10px; font-family: 'Helvetica', 'Arial', 'DejaVu Sans', sans-serif; text-anchor: start; fill: #a0a0a0" x="264.69" y="556.467513" transform="rotate(-0 264.69 556.467513)">aux / residual</text>
   </g>
   <g id="text_19">
    <text style="font-size: 9px; font-family: 'Helvetica', 'Arial', 'DejaVu Sans', sans-serif; text-anchor: start; fill: #1f2a36" x="384.381" y="556.675481" transform="rotate(-0 384.381 556.675481)">= Gaussian noise injection on every learnable tensor in the group</text>
   </g>
   <g id="patch_38">
    <path d="M 341.642496 88.416
Q 346.17144 88.416 349.135137 88.416
" clip-path="url(#p872ea4c059)" style="fill: none; stroke: #5c6b7a; stroke-width: 1.4; stroke-linecap: round"/>
    <path d="M 344.335137 86.016
L 349.135137 88.416
L 344.335137 90.816
z
" clip-path="url(#p872ea4c059)" style="fill: #5c6b7a; stroke: #5c6b7a; stroke-width: 1.4; stroke-linecap: round"/>
   </g>
   <g id="patch_39">
    <path d="M 572.319696 88.416
Q 576.84864 88.416 579.812337 88.416
" clip-path="url(#p872ea4c059)" style="fill: none; stroke: #5c6b7a; stroke-width: 1.4; stroke-linecap: round"/>
    <path d="M 575.012337 86.016
L 579.812337 88.416
L 575.012337 90.816
z
" clip-path="url(#p872ea4c059)" style="fill: #5c6b7a; stroke: #5c6b7a; stroke-width: 1.4; stroke-linecap: round"/>
   </g>
   <g id="patch_40">
    <path d="M 300.914315 225.168
Q 305.443259 225.168 308.406956 225.168
" clip-path="url(#p872ea4c059)" style="fill: none; stroke: #5c6b7a; stroke-width: 1.4; stroke-linecap: round"/>
    <path d="M 303.606956 222.768
L 308.406956 225.168
L 303.606956 227.568
z
" clip-path="url(#p872ea4c059)" style="fill: #5c6b7a; stroke: #5c6b7a; stroke-width: 1.4; stroke-linecap: round"/>
   </g>
   <g id="patch_41">
    <path d="M 492.881777 225.168
Q 497.410722 225.168 500.374419 225.168
" clip-path="url(#p872ea4c059)" style="fill: none; stroke: #5c6b7a; stroke-width: 1.4; stroke-linecap: round"/>
    <path d="M 495.574419 222.768
L 500.374419 225.168
L 495.574419 227.568
z
" clip-path="url(#p872ea4c059)" style="fill: #5c6b7a; stroke: #5c6b7a; stroke-width: 1.4; stroke-linecap: round"/>
   </g>
   <g id="patch_42">
    <path d="M 621.453006 225.168
Q 625.981951 225.168 628.945648 225.168
" clip-path="url(#p872ea4c059)" style="fill: none; stroke: #5c6b7a; stroke-width: 1.4; stroke-linecap: round"/>
    <path d="M 624.145648 222.768
L 628.945648 225.168
L 624.145648 227.568
z
" clip-path="url(#p872ea4c059)" style="fill: #5c6b7a; stroke: #5c6b7a; stroke-width: 1.4; stroke-linecap: round"/>
   </g>
   <g id="patch_43">
    <path d="M 347.605195 361.92
Q 352.134139 361.92 355.097836 361.92
" clip-path="url(#p872ea4c059)" style="fill: none; stroke: #5c6b7a; stroke-width: 1.4; stroke-linecap: round"/>
    <path d="M 350.297836 359.52
L 355.097836 361.92
L 350.297836 364.32
z
" clip-path="url(#p872ea4c059)" style="fill: #5c6b7a; stroke: #5c6b7a; stroke-width: 1.4; stroke-linecap: round"/>
   </g>
   <g id="patch_44">
    <path d="M 557.070366 361.92
Q 561.59931 361.92 564.563007 361.92
" clip-path="url(#p872ea4c059)" style="fill: none; stroke: #5c6b7a; stroke-width: 1.4; stroke-linecap: round"/>
    <path d="M 559.763007 359.52
L 564.563007 361.92
L 559.763007 364.32
z
" clip-path="url(#p872ea4c059)" style="fill: #5c6b7a; stroke: #5c6b7a; stroke-width: 1.4; stroke-linecap: round"/>
   </g>
   <g id="patch_45">
    <path d="M 347.56741 498.672
Q 352.096355 498.672 355.060051 498.672
" clip-path="url(#p872ea4c059)" style="fill: none; stroke: #5c6b7a; stroke-width: 1.4; stroke-linecap: round"/>
    <path d="M 350.260051 496.272
L 355.060051 498.672
L 350.260051 501.072
z
" clip-path="url(#p872ea4c059)" style="fill: #5c6b7a; stroke: #5c6b7a; stroke-width: 1.4; stroke-linecap: round"/>
   </g>
   <g id="patch_46">
    <path d="M 554.758424 498.672
Q 559.287368 498.672 562.251065 498.672
" clip-path="url(#p872ea4c059)" style="fill: none; stroke: #5c6b7a; stroke-width: 1.4; stroke-linecap: round"/>
    <path d="M 557.451065 496.272
L 562.251065 498.672
L 557.451065 501.072
z
" clip-path="url(#p872ea4c059)" style="fill: #5c6b7a; stroke: #5c6b7a; stroke-width: 1.4; stroke-linecap: round"/>
   </g>
   <g id="text_20">
    <text style="font-weight: 700; font-size: 11px; font-family: 'Helvetica', 'Arial', 'DejaVu Sans', sans-serif; text-anchor: middle; fill: #ffffff" x="258.737429" y="56.989809" transform="rotate(-0 258.737429 56.989809)">encoder</text>
   </g>
   <g id="text_21">
    <text style="font-size: 9px; font-family: 'Helvetica', 'Arial', 'DejaVu Sans', sans-serif; text-anchor: middle; fill: #ffffff; opacity: 0.97" x="258.737429" y="73.668686" transform="rotate(-0 258.737429 73.668686)">N = 33</text>
   </g>
   <g id="text_22">
    <text style="font-size: 8.5px; font-family: 'Helvetica', 'Arial', 'DejaVu Sans', sans-serif; text-anchor: middle; fill: #ffffff; opacity: 0.97" x="258.737429" y="88.846941" transform="rotate(-0 258.737429 88.846941)">σ = 0.0442</text>
   </g>
   <g id="text_23">
    <text style="font-style: italic; font-size: 6.5px; font-family: 'Helvetica', 'Arial', 'DejaVu Sans', sans-serif; fill: #ffffff; opacity: 0.92" transform="translate(238.981999 121.938706)">Perceiver-IO</text>
    <text style="font-style: italic; font-size: 6.5px; font-family: 'Helvetica', 'Arial', 'DejaVu Sans', sans-serif; fill: #ffffff; opacity: 0.92" transform="translate(201.768991 129.003038)">14 embed | 6 norm | 7 attn | 6 MLP</text>
   </g>
   <g id="line2d_70">
    <path d="M 218.284268 30.992331
L 219.655562 30.944881
L 221.026855 30.88338
L 222.398149 30.804585
L 223.769443 30.704808
L 225.140736 30.579947
L 226.51203 30.425548
L 227.883323 30.236915
L 229.254617 30.009258
L 230.62591 29.737889
L 231.997204 29.418466
L 233.368498 29.047275
L 234.739791 28.621544
L 236.111085 28.13977
L 237.482378 27.602046
L 238.853672 27.010366
L 240.224965 26.368871
L 241.596259 25.684028
L 242.967553 24.964707
L 244.338846 24.222132
L 245.71014 23.469699
L 247.081433 22.722663
L 248.452727 21.997672
L 249.82402 21.312187
L 251.195314 20.683811
L 252.566608 20.129542
L 253.937901 19.665023
L 255.309195 19.303803
L 256.680488 19.056688
L 258.051782 18.9312
L 259.423075 18.9312
L 260.794369 19.056688
L 262.165663 19.303803
L 263.536956 19.665023
L 264.90825 20.129542
L 266.279543 20.683811
L 267.650837 21.312187
L 269.02213 21.997672
L 270.393424 22.722663
L 271.764718 23.469699
L 273.136011 24.222132
L 274.507305 24.964707
L 275.878598 25.684028
L 277.249892 26.368871
L 278.621185 27.010366
L 279.992479 27.602046
L 281.363773 28.13977
L 282.735066 28.621544
L 284.10636 29.047275
L 285.477653 29.418466
L 286.848947 29.737889
L 288.22024 30.009258
L 289.591534 30.236915
L 290.962828 30.425548
L 292.334121 30.579947
L 293.705415 30.704808
L 295.076708 30.804585
L 296.448002 30.88338
L 297.819295 30.944881
L 299.190589 30.992331
" clip-path="url(#p872ea4c059)" style="fill: none; stroke: #c2493d; stroke-opacity: 0.85; stroke-width: 0.9; stroke-linecap: square"/>
   </g>
   <g id="text_24">
    <text style="font-weight: 700; font-size: 11px; font-family: 'Helvetica', 'Arial', 'DejaVu Sans', sans-serif; text-anchor: middle; fill: #ffffff" x="461.510949" y="56.989809" transform="rotate(-0 461.510949 56.989809)">backbone</text>
   </g>
   <g id="text_25">
    <text style="font-size: 9px; font-family: 'Helvetica', 'Arial', 'DejaVu Sans', sans-serif; text-anchor: middle; fill: #ffffff; opacity: 0.97" x="461.510949" y="73.668686" transform="rotate(-0 461.510949 73.668686)">N = 594</text>
   </g>
   <g id="text_26">
    <text style="font-size: 8.5px; font-family: 'Helvetica', 'Arial', 'DejaVu Sans', sans-serif; text-anchor: middle; fill: #ffffff; opacity: 0.97" x="461.510949" y="88.846941" transform="rotate(-0 461.510949 88.846941)">σ = 0.0104</text>
   </g>
   <g id="text_27">
    <text style="font-style: italic; font-size: 6.5px; font-family: 'Helvetica', 'Arial', 'DejaVu Sans', sans-serif; fill: #ffffff; opacity: 0.92" transform="translate(431.566262 115.120561)">48 Swin-3D blocks</text>
    <text style="font-style: italic; font-size: 6.5px; font-family: 'Helvetica', 'Arial', 'DejaVu Sans', sans-serif; fill: #ffffff; opacity: 0.92" transform="translate(420.246613 122.15219)">attn (192) + MLP (192) +</text>
    <text style="font-style: italic; font-size: 6.5px; font-family: 'Helvetica', 'Arial', 'DejaVu Sans', sans-serif; fill: #ffffff; opacity: 0.92" transform="translate(400.422629 129.183819)">LayerNorm (192) + AdaLN mod (192)</text>
   </g>
   <g id="line2d_71">
    <path d="M 407.105949 30.992331
L 408.950187 30.944881
L 410.794424 30.88338
L 412.638661 30.804585
L 414.482898 30.704808
L 416.327136 30.579947
L 418.171373 30.425548
L 420.01561 30.236915
L 421.859848 30.009258
L 423.704085 29.737889
L 425.548322 29.418466
L 427.39256 29.047275
L 429.236797 28.621544
L 431.081034 28.13977
L 432.925271 27.602046
L 434.769509 27.010366
L 436.613746 26.368871
L 438.457983 25.684028
L 440.302221 24.964707
L 442.146458 24.222132
L 443.990695 23.469699
L 445.834932 22.722663
L 447.67917 21.997672
L 449.523407 21.312187
L 451.367644 20.683811
L 453.211882 20.129542
L 455.056119 19.665023
L 456.900356 19.303803
L 458.744593 19.056688
L 460.588831 18.9312
L 462.433068 18.9312
L 464.277305 19.056688
L 466.121543 19.303803
L 467.96578 19.665023
L 469.810017 20.129542
L 471.654254 20.683811
L 473.498492 21.312187
L 475.342729 21.997672
L 477.186966 22.722663
L 479.031204 23.469699
L 480.875441 24.222132
L 482.719678 24.964707
L 484.563915 25.684028
L 486.408153 26.368871
L 488.25239 27.010366
L 490.096627 27.602046
L 491.940865 28.13977
L 493.785102 28.621544
L 495.629339 29.047275
L 497.473576 29.418466
L 499.317814 29.737889
L 501.162051 30.009258
L 503.006288 30.236915
L 504.850526 30.425548
L 506.694763 30.579947
L 508.539 30.704808
L 510.383237 30.804585
L 512.227475 30.88338
L 514.071712 30.944881
L 515.915949 30.992331
" clip-path="url(#p872ea4c059)" style="fill: none; stroke: #c2493d; stroke-opacity: 0.85; stroke-width: 0.9; stroke-linecap: square"/>
   </g>
   <g id="text_28">
    <text style="font-weight: 700; font-size: 11px; font-family: 'Helvetica', 'Arial', 'DejaVu Sans', sans-serif; text-anchor: middle; fill: #ffffff" x="657.881021" y="56.989809" transform="rotate(-0 657.881021 56.989809)">decoder</text>
   </g>
   <g id="text_29">
    <text style="font-size: 9px; font-family: 'Helvetica', 'Arial', 'DejaVu Sans', sans-serif; text-anchor: middle; fill: #ffffff; opacity: 0.97" x="657.881021" y="73.668686" transform="rotate(-0 657.881021 73.668686)">N = 17</text>
   </g>
   <g id="text_30">
    <text style="font-size: 8.5px; font-family: 'Helvetica', 'Arial', 'DejaVu Sans', sans-serif; text-anchor: middle; fill: #ffffff; opacity: 0.97" x="657.881021" y="88.846941" transform="rotate(-0 657.881021 88.846941)">σ = 0.0615</text>
   </g>
   <g id="text_31">
    <text style="font-style: italic; font-size: 6.5px; font-family: 'Helvetica', 'Arial', 'DejaVu Sans', sans-serif; fill: #ffffff; opacity: 0.92" transform="translate(626.373286 121.938706)">Perceiver-IO output</text>
    <text style="font-style: italic; font-size: 6.5px; font-family: 'Helvetica', 'Arial', 'DejaVu Sans', sans-serif; fill: #ffffff; opacity: 0.92" transform="translate(588.604732 129.003038)">2 embed | 4 norm | 3 attn | 4 MLP | 4 head</text>
   </g>
   <g id="line2d_72">
    <path d="M 620.629585 30.992331
L 621.892346 30.944881
L 623.155106 30.88338
L 624.417867 30.804585
L 625.680627 30.704808
L 626.943388 30.579947
L 628.206148 30.425548
L 629.468909 30.236915
L 630.731669 30.009258
L 631.99443 29.737889
L 633.25719 29.418466
L 634.519951 29.047275
L 635.782711 28.621544
L 637.045472 28.13977
L 638.308232 27.602046
L 639.570993 27.010366
L 640.833754 26.368871
L 642.096514 25.684028
L 643.359275 24.964707
L 644.622035 24.222132
L 645.884796 23.469699
L 647.147556 22.722663
L 648.410317 21.997672
L 649.673077 21.312187
L 650.935838 20.683811
L 652.198598 20.129542
L 653.461359 19.665023
L 654.724119 19.303803
L 655.98688 19.056688
L 657.24964 18.9312
L 658.512401 18.9312
L 659.775162 19.056688
L 661.037922 19.303803
L 662.300683 19.665023
L 663.563443 20.129542
L 664.826204 20.683811
L 666.088964 21.312187
L 667.351725 21.997672
L 668.614485 22.722663
L 669.877246 23.469699
L 671.140006 24.222132
L 672.402767 24.964707
L 673.665527 25.684028
L 674.928288 26.368871
L 676.191048 27.010366
L 677.453809 27.602046
L 678.716569 28.13977
L 679.97933 28.621544
L 681.242091 29.047275
L 682.504851 29.418466
L 683.767612 29.737889
L 685.030372 30.009258
L 686.293133 30.236915
L 687.555893 30.425548
L 688.818654 30.579947
L 690.081414 30.704808
L 691.344175 30.804585
L 692.606935 30.88338
L 693.869696 30.944881
L 695.132456 30.992331
" clip-path="url(#p872ea4c059)" style="fill: none; stroke: #c2493d; stroke-opacity: 0.85; stroke-width: 0.9; stroke-linecap: square"/>
   </g>
   <g id="text_32">
    <text style="font-weight: 700; font-size: 11px; font-family: 'Helvetica', 'Arial', 'DejaVu Sans', sans-serif; text-anchor: middle; fill: #ffffff" x="241.158554" y="193.741809" transform="rotate(-0 241.158554 193.741809)">encoder</text>
   </g>
   <g id="text_33">
    <text style="font-size: 9px; font-family: 'Helvetica', 'Arial', 'DejaVu Sans', sans-serif; text-anchor: middle; fill: #ffffff; opacity: 0.97" x="241.158554" y="210.420686" transform="rotate(-0 241.158554 210.420686)">N = 3</text>
   </g>
   <g id="text_34">
    <text style="font-size: 8.5px; font-family: 'Helvetica', 'Arial', 'DejaVu Sans', sans-serif; text-anchor: middle; fill: #ffffff; opacity: 0.97" x="241.158554" y="225.598941" transform="rotate(-0 241.158554 225.598941)">σ = 0.0539</text>
   </g>
   <g id="text_35">
    <text style="font-style: italic; font-size: 6.5px; font-family: 'Helvetica', 'Arial', 'DejaVu Sans', sans-serif; fill: #ffffff; opacity: 0.92" transform="translate(212.070039 258.90419)">Conv2d input proj</text>
    <text style="font-style: italic; font-size: 6.5px; font-family: 'Helvetica', 'Arial', 'DejaVu Sans', sans-serif; fill: #ffffff; opacity: 0.92" transform="translate(202.820234 265.935819)">(channels in -&gt; embed)</text>
   </g>
   <g id="line2d_73">
    <path d="M 212.280047 167.744331
L 213.258979 167.696881
L 214.237912 167.63538
L 215.216844 167.556585
L 216.195777 167.456808
L 217.174709 167.331947
L 218.153642 167.177548
L 219.132574 166.988915
L 220.111507 166.761258
L 221.090439 166.489889
L 222.069372 166.170466
L 223.048304 165.799275
L 224.027236 165.373544
L 225.006169 164.89177
L 225.985101 164.354046
L 226.964034 163.762366
L 227.942966 163.120871
L 228.921899 162.436028
L 229.900831 161.716707
L 230.879764 160.974132
L 231.858696 160.221699
L 232.837628 159.474663
L 233.816561 158.749672
L 234.795493 158.064187
L 235.774426 157.435811
L 236.753358 156.881542
L 237.732291 156.417023
L 238.711223 156.055803
L 239.690156 155.808688
L 240.669088 155.6832
L 241.648021 155.6832
L 242.626953 155.808688
L 243.605885 156.055803
L 244.584818 156.417023
L 245.56375 156.881542
L 246.542683 157.435811
L 247.521615 158.064187
L 248.500548 158.749672
L 249.47948 159.474663
L 250.458413 160.221699
L 251.437345 160.974132
L 252.416277 161.716707
L 253.39521 162.436028
L 254.374142 163.120871
L 255.353075 163.762366
L 256.332007 164.354046
L 257.31094 164.89177
L 258.289872 165.373544
L 259.268805 165.799275
L 260.247737 166.170466
L 261.22667 166.489889
L 262.205602 166.761258
L 263.184534 166.988915
L 264.163467 167.177548
L 265.142399 167.331947
L 266.121332 167.456808
L 267.100264 167.556585
L 268.079197 167.63538
L 269.058129 167.696881
L 270.037062 167.744331
" clip-path="url(#p872ea4c059)" style="fill: none; stroke: #c2493d; stroke-opacity: 0.85; stroke-width: 0.9; stroke-linecap: square"/>
   </g>
   <g id="text_36">
    <text style="font-weight: 700; font-size: 11px; font-family: 'Helvetica', 'Arial', 'DejaVu Sans', sans-serif; text-anchor: middle; fill: #ffffff" x="401.4279" y="193.741809" transform="rotate(-0 401.4279 193.741809)">processor</text>
   </g>
   <g id="text_37">
    <text style="font-size: 9px; font-family: 'Helvetica', 'Arial', 'DejaVu Sans', sans-serif; text-anchor: middle; fill: #ffffff; opacity: 0.97" x="401.4279" y="210.420686" transform="rotate(-0 401.4279 210.420686)">N = 80</text>
   </g>
   <g id="text_38">
    <text style="font-size: 8.5px; font-family: 'Helvetica', 'Arial', 'DejaVu Sans', sans-serif; text-anchor: middle; fill: #ffffff; opacity: 0.97" x="401.4279" y="225.598941" transform="rotate(-0 401.4279 225.598941)">σ = 0.0104</text>
   </g>
   <g id="text_39">
    <text style="font-style: italic; font-size: 6.5px; font-family: 'Helvetica', 'Arial', 'DejaVu Sans', sans-serif; fill: #ffffff; opacity: 0.92" transform="translate(347.982158 251.872561)">8 SFNO blocks x 10 tensors each</text>
    <text style="font-style: italic; font-size: 6.5px; font-family: 'Helvetica', 'Arial', 'DejaVu Sans', sans-serif; fill: #ffffff; opacity: 0.92" transform="translate(331.177627 258.90419)">1 complex64 spectral conv (384, 384, 240)</text>
    <text style="font-style: italic; font-size: 6.5px; font-family: 'Helvetica', 'Arial', 'DejaVu Sans', sans-serif; fill: #ffffff; opacity: 0.92" transform="translate(355.432275 265.935819)">+ 4 MLP + 4 norms + 1 skip</text>
   </g>
   <g id="line2d_74">
    <path d="M 356.700334 167.744331
L 358.216523 167.696881
L 359.732712 167.63538
L 361.2489 167.556585
L 362.765089 167.456808
L 364.281278 167.331947
L 365.797466 167.177548
L 367.313655 166.988915
L 368.829844 166.761258
L 370.346032 166.489889
L 371.862221 166.170466
L 373.37841 165.799275
L 374.894598 165.373544
L 376.410787 164.89177
L 377.926976 164.354046
L 379.443164 163.762366
L 380.959353 163.120871
L 382.475542 162.436028
L 383.99173 161.716707
L 385.507919 160.974132
L 387.024108 160.221699
L 388.540296 159.474663
L 390.056485 158.749672
L 391.572674 158.064187
L 393.088862 157.435811
L 394.605051 156.881542
L 396.12124 156.417023
L 397.637428 156.055803
L 399.153617 155.808688
L 400.669806 155.6832
L 402.185994 155.6832
L 403.702183 155.808688
L 405.218372 156.055803
L 406.73456 156.417023
L 408.250749 156.881542
L 409.766938 157.435811
L 411.283126 158.064187
L 412.799315 158.749672
L 414.315504 159.474663
L 415.831692 160.221699
L 417.347881 160.974132
L 418.86407 161.716707
L 420.380258 162.436028
L 421.896447 163.120871
L 423.412636 163.762366
L 424.928824 164.354046
L 426.445013 164.89177
L 427.961202 165.373544
L 429.47739 165.799275
L 430.993579 166.170466
L 432.509768 166.489889
L 434.025956 166.761258
L 435.542145 166.988915
L 437.058334 167.177548
L 438.574522 167.331947
L 440.090711 167.456808
L 441.6069 167.556585
L 443.123088 167.63538
L 444.639277 167.696881
L 446.155466 167.744331
" clip-path="url(#p872ea4c059)" style="fill: none; stroke: #c2493d; stroke-opacity: 0.85; stroke-width: 0.9; stroke-linecap: square"/>
   </g>
   <g id="text_40">
    <text style="font-weight: 700; font-size: 11px; font-family: 'Helvetica', 'Arial', 'DejaVu Sans', sans-serif; text-anchor: middle; fill: #ffffff" x="561.697246" y="193.741809" transform="rotate(-0 561.697246 193.741809)">decoder</text>
   </g>
   <g id="text_41">
    <text style="font-size: 9px; font-family: 'Helvetica', 'Arial', 'DejaVu Sans', sans-serif; text-anchor: middle; fill: #ffffff; opacity: 0.97" x="561.697246" y="210.420686" transform="rotate(-0 561.697246 210.420686)">N = 3</text>
   </g>
   <g id="text_42">
    <text style="font-size: 8.5px; font-family: 'Helvetica', 'Arial', 'DejaVu Sans', sans-serif; text-anchor: middle; fill: #ffffff; opacity: 0.97" x="561.697246" y="225.598941" transform="rotate(-0 561.697246 225.598941)">σ = 0.0539</text>
   </g>
   <g id="text_43">
    <text style="font-style: italic; font-size: 6.5px; font-family: 'Helvetica', 'Arial', 'DejaVu Sans', sans-serif; fill: #ffffff; opacity: 0.92" transform="translate(530.248925 258.90419)">Conv2d output proj</text>
    <text style="font-style: italic; font-size: 6.5px; font-family: 'Helvetica', 'Arial', 'DejaVu Sans', sans-serif; fill: #ffffff; opacity: 0.92" transform="translate(520.999121 265.935819)">(embed -&gt; channels out)</text>
   </g>
   <g id="line2d_75">
    <path d="M 532.818738 167.744331
L 533.797671 167.696881
L 534.776603 167.63538
L 535.755536 167.556585
L 536.734468 167.456808
L 537.713401 167.331947
L 538.692333 167.177548
L 539.671266 166.988915
L 540.650198 166.761258
L 541.62913 166.489889
L 542.608063 166.170466
L 543.586995 165.799275
L 544.565928 165.373544
L 545.54486 164.89177
L 546.523793 164.354046
L 547.502725 163.762366
L 548.481658 163.120871
L 549.46059 162.436028
L 550.439523 161.716707
L 551.418455 160.974132
L 552.397387 160.221699
L 553.37632 159.474663
L 554.355252 158.749672
L 555.334185 158.064187
L 556.313117 157.435811
L 557.29205 156.881542
L 558.270982 156.417023
L 559.249915 156.055803
L 560.228847 155.808688
L 561.207779 155.6832
L 562.186712 155.6832
L 563.165644 155.808688
L 564.144577 156.055803
L 565.123509 156.417023
L 566.102442 156.881542
L 567.081374 157.435811
L 568.060307 158.064187
L 569.039239 158.749672
L 570.018172 159.474663
L 570.997104 160.221699
L 571.976036 160.974132
L 572.954969 161.716707
L 573.933901 162.436028
L 574.912834 163.120871
L 575.891766 163.762366
L 576.870699 164.354046
L 577.849631 164.89177
L 578.828564 165.373544
L 579.807496 165.799275
L 580.786428 166.170466
L 581.765361 166.489889
L 582.744293 166.761258
L 583.723226 166.988915
L 584.702158 167.177548
L 585.681091 167.331947
L 586.660023 167.456808
L 587.638956 167.556585
L 588.617888 167.63538
L 589.596821 167.696881
L 590.575753 167.744331
" clip-path="url(#p872ea4c059)" style="fill: none; stroke: #c2493d; stroke-opacity: 0.85; stroke-width: 0.9; stroke-linecap: square"/>
   </g>
   <g id="text_44">
    <text style="font-weight: 700; font-size: 11px; font-family: 'Helvetica', 'Arial', 'DejaVu Sans', sans-serif; text-anchor: middle; fill: #ffffff" x="679.66246" y="193.741809" transform="rotate(-0 679.66246 193.741809)">residual</text>
   </g>
   <g id="text_45">
    <text style="font-size: 9px; font-family: 'Helvetica', 'Arial', 'DejaVu Sans', sans-serif; text-anchor: middle; fill: #ffffff; opacity: 0.97" x="679.66246" y="210.420686" transform="rotate(-0 679.66246 210.420686)">N = 1</text>
   </g>
   <g id="text_46">
    <text style="font-size: 8.5px; font-family: 'Helvetica', 'Arial', 'DejaVu Sans', sans-serif; text-anchor: middle; fill: #ffffff; opacity: 0.97" x="679.66246" y="225.598941" transform="rotate(-0 679.66246 225.598941)">σ = 0.0933</text>
   </g>
   <g id="text_47">
    <text style="font-style: italic; font-size: 6.5px; font-family: 'Helvetica', 'Arial', 'DejaVu Sans', sans-serif; fill: #ffffff; opacity: 0.92" transform="translate(661.987538 258.90419)">Linear skip</text>
    <text style="font-style: italic; font-size: 6.5px; font-family: 'Helvetica', 'Arial', 'DejaVu Sans', sans-serif; fill: #ffffff; opacity: 0.92" transform="translate(652.085702 265.935819)">(input -&gt; output)</text>
   </g>
   <g id="line2d_76">
    <path d="M 656.08696 167.744331
L 656.88613 167.696881
L 657.685299 167.63538
L 658.484469 167.556585
L 659.283638 167.456808
L 660.082808 167.331947
L 660.881977 167.177548
L 661.681147 166.988915
L 662.480316 166.761258
L 663.279486 166.489889
L 664.078655 166.170466
L 664.877825 165.799275
L 665.676994 165.373544
L 666.476164 164.89177
L 667.275333 164.354046
L 668.074503 163.762366
L 668.873672 163.120871
L 669.672842 162.436028
L 670.472011 161.716707
L 671.271181 160.974132
L 672.07035 160.221699
L 672.86952 159.474663
L 673.668689 158.749672
L 674.467859 158.064187
L 675.267028 157.435811
L 676.066198 156.881542
L 676.865367 156.417023
L 677.664537 156.055803
L 678.463706 155.808688
L 679.262876 155.6832
L 680.062045 155.6832
L 680.861215 155.808688
L 681.660384 156.055803
L 682.459553 156.417023
L 683.258723 156.881542
L 684.057892 157.435811
L 684.857062 158.064187
L 685.656231 158.749672
L 686.455401 159.474663
L 687.25457 160.221699
L 688.05374 160.974132
L 688.852909 161.716707
L 689.652079 162.436028
L 690.451248 163.120871
L 691.250418 163.762366
L 692.049587 164.354046
L 692.848757 164.89177
L 693.647926 165.373544
L 694.447096 165.799275
L 695.246265 166.170466
L 696.045435 166.489889
L 696.844604 166.761258
L 697.643774 166.988915
L 698.442943 167.177548
L 699.242113 167.331947
L 700.041282 167.456808
L 700.840452 167.556585
L 701.639621 167.63538
L 702.438791 167.696881
L 703.23796 167.744331
" clip-path="url(#p872ea4c059)" style="fill: none; stroke: #c2493d; stroke-opacity: 0.85; stroke-width: 0.9; stroke-linecap: square"/>
   </g>
   <g id="text_48">
    <text style="font-weight: 700; font-size: 11px; font-family: 'Helvetica', 'Arial', 'DejaVu Sans', sans-serif; text-anchor: middle; fill: #ffffff" x="263.860119" y="330.407871" transform="rotate(-0 263.860119 330.407871)">g2m</text>
   </g>
   <g id="text_49">
    <text style="font-size: 9px; font-family: 'Helvetica', 'Arial', 'DejaVu Sans', sans-serif; text-anchor: middle; fill: #ffffff; opacity: 0.97" x="263.860119" y="347.172686" transform="rotate(-0 263.860119 347.172686)">N = 36</text>
   </g>
   <g id="text_50">
    <text style="font-size: 8.5px; font-family: 'Helvetica', 'Arial', 'DejaVu Sans', sans-serif; text-anchor: middle; fill: #ffffff; opacity: 0.97" x="263.860119" y="362.350941" transform="rotate(-0 263.860119 362.350941)">σ = 0.0271</text>
   </g>
   <g id="text_51">
    <text style="font-style: italic; font-size: 6.5px; font-family: 'Helvetica', 'Arial', 'DejaVu Sans', sans-serif; fill: #ffffff; opacity: 0.92" transform="translate(234.200822 395.65619)">grid -&gt; mesh GNN</text>
    <text style="font-style: italic; font-size: 6.5px; font-family: 'Helvetica', 'Arial', 'DejaVu Sans', sans-serif; fill: #ffffff; opacity: 0.92" transform="translate(216.730041 402.687819)">(encoder edge + node MLPs)</text>
   </g>
   <g id="line2d_77">
    <path d="M 222.986955 304.496331
L 224.372486 304.448881
L 225.758017 304.38738
L 227.143548 304.308585
L 228.529079 304.208808
L 229.91461 304.083947
L 231.300141 303.929548
L 232.685672 303.740915
L 234.071203 303.513258
L 235.456734 303.241889
L 236.842265 302.922466
L 238.227796 302.551275
L 239.613327 302.125544
L 240.998858 301.64377
L 242.384389 301.106046
L 243.76992 300.514366
L 245.155451 299.872871
L 246.540982 299.188028
L 247.926513 298.468707
L 249.312044 297.726132
L 250.697575 296.973699
L 252.083106 296.226663
L 253.468637 295.501672
L 254.854168 294.816187
L 256.239699 294.187811
L 257.62523 293.633542
L 259.010761 293.169023
L 260.396292 292.807803
L 261.781823 292.560688
L 263.167354 292.4352
L 264.552885 292.4352
L 265.938416 292.560688
L 267.323947 292.807803
L 268.709478 293.169023
L 270.095009 293.633542
L 271.48054 294.187811
L 272.866071 294.816187
L 274.251602 295.501672
L 275.637133 296.226663
L 277.022664 296.973699
L 278.408195 297.726132
L 279.793726 298.468707
L 281.179257 299.188028
L 282.564788 299.872871
L 283.950319 300.514366
L 285.33585 301.106046
L 286.721381 301.64377
L 288.106912 302.125544
L 289.492443 302.551275
L 290.877974 302.922466
L 292.263505 303.241889
L 293.649036 303.513258
L 295.034567 303.740915
L 296.420098 303.929548
L 297.805629 304.083947
L 299.19116 304.208808
L 300.576691 304.308585
L 301.962222 304.38738
L 303.347753 304.448881
L 304.733284 304.496331
" clip-path="url(#p872ea4c059)" style="fill: none; stroke: #c2493d; stroke-opacity: 0.85; stroke-width: 0.9; stroke-linecap: square"/>
   </g>
   <g id="text_52">
    <text style="font-weight: 700; font-size: 11px; font-family: 'Helvetica', 'Arial', 'DejaVu Sans', sans-serif; text-anchor: middle; fill: #ffffff" x="456.867634" y="330.493809" transform="rotate(-0 456.867634 330.493809)">m2m</text>
   </g>
   <g id="text_53">
    <text style="font-size: 9px; font-family: 'Helvetica', 'Arial', 'DejaVu Sans', sans-serif; text-anchor: middle; fill: #ffffff; opacity: 0.97" x="456.867634" y="347.172686" transform="rotate(-0 456.867634 347.172686)">N = 198</text>
   </g>
   <g id="text_54">
    <text style="font-size: 8.5px; font-family: 'Helvetica', 'Arial', 'DejaVu Sans', sans-serif; text-anchor: middle; fill: #ffffff; opacity: 0.97" x="456.867634" y="362.350941" transform="rotate(-0 456.867634 362.350941)">σ = 0.0115</text>
   </g>
   <g id="text_55">
    <text style="font-style: italic; font-size: 6.5px; font-family: 'Helvetica', 'Arial', 'DejaVu Sans', sans-serif; fill: #ffffff; opacity: 0.92" transform="translate(411.220369 388.624561)">16 message-passing rounds</text>
    <text style="font-style: italic; font-size: 6.5px; font-family: 'Helvetica', 'Arial', 'DejaVu Sans', sans-serif; fill: #ffffff; opacity: 0.92" transform="translate(418.857869 395.65619)">on multi-mesh (lvl 0..6)</text>
    <text style="font-style: italic; font-size: 6.5px; font-family: 'Helvetica', 'Arial', 'DejaVu Sans', sans-serif; fill: #ffffff; opacity: 0.92" transform="translate(419.959314 402.687819)">~12 tensors per round</text>
   </g>
   <g id="line2d_78">
    <path d="M 407.765642 304.496331
L 409.430116 304.448881
L 411.09459 304.38738
L 412.759064 304.308585
L 414.423539 304.208808
L 416.088013 304.083947
L 417.752487 303.929548
L 419.416962 303.740915
L 421.081436 303.513258
L 422.74591 303.241889
L 424.410385 302.922466
L 426.074859 302.551275
L 427.739333 302.125544
L 429.403808 301.64377
L 431.068282 301.106046
L 432.732756 300.514366
L 434.397231 299.872871
L 436.061705 299.188028
L 437.726179 298.468707
L 439.390654 297.726132
L 441.055128 296.973699
L 442.719602 296.226663
L 444.384077 295.501672
L 446.048551 294.816187
L 447.713025 294.187811
L 449.3775 293.633542
L 451.041974 293.169023
L 452.706448 292.807803
L 454.370923 292.560688
L 456.035397 292.4352
L 457.699871 292.4352
L 459.364346 292.560688
L 461.02882 292.807803
L 462.693294 293.169023
L 464.357769 293.633542
L 466.022243 294.187811
L 467.686717 294.816187
L 469.351192 295.501672
L 471.015666 296.226663
L 472.68014 296.973699
L 474.344615 297.726132
L 476.009089 298.468707
L 477.673563 299.188028
L 479.338038 299.872871
L 481.002512 300.514366
L 482.666986 301.106046
L 484.331461 301.64377
L 485.995935 302.125544
L 487.660409 302.551275
L 489.324884 302.922466
L 490.989358 303.241889
L 492.653832 303.513258
L 494.318307 303.740915
L 495.982781 303.929548
L 497.647255 304.083947
L 499.31173 304.208808
L 500.976204 304.308585
L 502.640678 304.38738
L 504.305153 304.448881
L 505.969627 304.496331
" clip-path="url(#p872ea4c059)" style="fill: none; stroke: #c2493d; stroke-opacity: 0.85; stroke-width: 0.9; stroke-linecap: square"/>
   </g>
   <g id="text_56">
    <text style="font-weight: 700; font-size: 11px; font-family: 'Helvetica', 'Arial', 'DejaVu Sans', sans-serif; text-anchor: middle; fill: #ffffff" x="648.115015" y="330.407871" transform="rotate(-0 648.115015 330.407871)">m2g</text>
   </g>
   <g id="text_57">
    <text style="font-size: 9px; font-family: 'Helvetica', 'Arial', 'DejaVu Sans', sans-serif; text-anchor: middle; fill: #ffffff; opacity: 0.97" x="648.115015" y="347.172686" transform="rotate(-0 648.115015 347.172686)">N = 30</text>
   </g>
   <g id="text_58">
    <text style="font-size: 8.5px; font-family: 'Helvetica', 'Arial', 'DejaVu Sans', sans-serif; text-anchor: middle; fill: #ffffff; opacity: 0.97" x="648.115015" y="362.350941" transform="rotate(-0 648.115015 362.350941)">σ = 0.0297</text>
   </g>
   <g id="text_59">
    <text style="font-style: italic; font-size: 6.5px; font-family: 'Helvetica', 'Arial', 'DejaVu Sans', sans-serif; fill: #ffffff; opacity: 0.92" transform="translate(618.455718 395.65619)">mesh -&gt; grid GNN</text>
    <text style="font-style: italic; font-size: 6.5px; font-family: 'Helvetica', 'Arial', 'DejaVu Sans', sans-serif; fill: #ffffff; opacity: 0.92" transform="translate(600.981382 402.687819)">(decoder edge + node MLPs)</text>
   </g>
   <g id="line2d_79">
    <path d="M 608.121917 304.496331
L 609.477615 304.448881
L 610.833314 304.38738
L 612.189012 304.308585
L 613.54471 304.208808
L 614.900408 304.083947
L 616.256107 303.929548
L 617.611805 303.740915
L 618.967503 303.513258
L 620.323201 303.241889
L 621.6789 302.922466
L 623.034598 302.551275
L 624.390296 302.125544
L 625.745994 301.64377
L 627.101692 301.106046
L 628.457391 300.514366
L 629.813089 299.872871
L 631.168787 299.188028
L 632.524485 298.468707
L 633.880184 297.726132
L 635.235882 296.973699
L 636.59158 296.226663
L 637.947278 295.501672
L 639.302976 294.816187
L 640.658675 294.187811
L 642.014373 293.633542
L 643.370071 293.169023
L 644.725769 292.807803
L 646.081468 292.560688
L 647.437166 292.4352
L 648.792864 292.4352
L 650.148562 292.560688
L 651.50426 292.807803
L 652.859959 293.169023
L 654.215657 293.633542
L 655.571355 294.187811
L 656.927053 294.816187
L 658.282752 295.501672
L 659.63845 296.226663
L 660.994148 296.973699
L 662.349846 297.726132
L 663.705544 298.468707
L 665.061243 299.188028
L 666.416941 299.872871
L 667.772639 300.514366
L 669.128337 301.106046
L 670.484036 301.64377
L 671.839734 302.125544
L 673.195432 302.551275
L 674.55113 302.922466
L 675.906828 303.241889
L 677.262527 303.513258
L 678.618225 303.740915
L 679.973923 303.929548
L 681.329621 304.083947
L 682.68532 304.208808
L 684.041018 304.308585
L 685.396716 304.38738
L 686.752414 304.448881
L 688.108112 304.496331
" clip-path="url(#p872ea4c059)" style="fill: none; stroke: #c2493d; stroke-opacity: 0.85; stroke-width: 0.9; stroke-linecap: square"/>
   </g>
   <g id="text_60">
    <text style="font-weight: 700; font-size: 11px; font-family: 'Helvetica', 'Arial', 'DejaVu Sans', sans-serif; text-anchor: middle; fill: #ffffff" x="264.374142" y="467.245809" transform="rotate(-0 264.374142 467.245809)">encoder</text>
   </g>
   <g id="text_61">
    <text style="font-size: 9px; font-family: 'Helvetica', 'Arial', 'DejaVu Sans', sans-serif; text-anchor: middle; fill: #ffffff; opacity: 0.97" x="264.374142" y="483.924686" transform="rotate(-0 264.374142 483.924686)">N = 34</text>
   </g>
   <g id="text_62">
    <text style="font-size: 8.5px; font-family: 'Helvetica', 'Arial', 'DejaVu Sans', sans-serif; text-anchor: middle; fill: #ffffff; opacity: 0.97" x="264.374142" y="499.102941" transform="rotate(-0 264.374142 499.102941)">σ = 0.0267</text>
   </g>
   <g id="text_63">
    <text style="font-style: italic; font-size: 6.5px; font-family: 'Helvetica', 'Arial', 'DejaVu Sans', sans-serif; fill: #ffffff; opacity: 0.92" transform="translate(226.987971 525.19578)">grid -&gt; O96 mesh GNN</text>
    <text style="font-style: italic; font-size: 6.5px; font-family: 'Helvetica', 'Arial', 'DejaVu Sans', sans-serif; fill: #ffffff; opacity: 0.92" transform="translate(216.051721 532.227409)">+ node-attribute embeddings</text>
    <text style="font-style: italic; font-size: 6.5px; font-family: 'Helvetica', 'Arial', 'DejaVu Sans', sans-serif; fill: #ffffff; opacity: 0.92" transform="translate(213.200861 539.259038)">(emb_nodes, emb_edges, proc)</text>
   </g>
   <g id="line2d_80">
    <path d="M 223.776882 441.248331
L 225.15306 441.200881
L 226.529238 441.13938
L 227.905417 441.060585
L 229.281595 440.960808
L 230.657773 440.835947
L 232.033952 440.681548
L 233.41013 440.492915
L 234.786308 440.265258
L 236.162487 439.993889
L 237.538665 439.674466
L 238.914843 439.303275
L 240.291022 438.877544
L 241.6672 438.39577
L 243.043378 437.858046
L 244.419557 437.266366
L 245.795735 436.624871
L 247.171913 435.940028
L 248.548092 435.220707
L 249.92427 434.478132
L 251.300448 433.725699
L 252.676627 432.978663
L 254.052805 432.253672
L 255.428983 431.568187
L 256.805162 430.939811
L 258.18134 430.385542
L 259.557518 429.921023
L 260.933697 429.559803
L 262.309875 429.312688
L 263.686053 429.1872
L 265.062232 429.1872
L 266.43841 429.312688
L 267.814588 429.559803
L 269.190767 429.921023
L 270.566945 430.385542
L 271.943123 430.939811
L 273.319302 431.568187
L 274.69548 432.253672
L 276.071658 432.978663
L 277.447837 433.725699
L 278.824015 434.478132
L 280.200193 435.220707
L 281.576372 435.940028
L 282.95255 436.624871
L 284.328728 437.266366
L 285.704907 437.858046
L 287.081085 438.39577
L 288.457263 438.877544
L 289.833442 439.303275
L 291.20962 439.674466
L 292.585798 439.993889
L 293.961977 440.265258
L 295.338155 440.492915
L 296.714333 440.681548
L 298.090512 440.835947
L 299.46669 440.960808
L 300.842868 441.060585
L 302.219047 441.13938
L 303.595225 441.200881
L 304.971403 441.248331
" clip-path="url(#p872ea4c059)" style="fill: none; stroke: #c2493d; stroke-opacity: 0.85; stroke-width: 0.9; stroke-linecap: square"/>
   </g>
   <g id="text_64">
    <text style="font-weight: 700; font-size: 11px; font-family: 'Helvetica', 'Arial', 'DejaVu Sans', sans-serif; text-anchor: middle; fill: #ffffff" x="455.692771" y="467.245809" transform="rotate(-0 455.692771 467.245809)">processor</text>
   </g>
   <g id="text_65">
    <text style="font-size: 9px; font-family: 'Helvetica', 'Arial', 'DejaVu Sans', sans-serif; text-anchor: middle; fill: #ffffff; opacity: 0.97" x="455.692771" y="483.924686" transform="rotate(-0 455.692771 483.924686)">N = 176</text>
   </g>
   <g id="text_66">
    <text style="font-size: 8.5px; font-family: 'Helvetica', 'Arial', 'DejaVu Sans', sans-serif; text-anchor: middle; fill: #ffffff; opacity: 0.97" x="455.692771" y="499.102941" transform="rotate(-0 455.692771 499.102941)">σ = 0.0117</text>
   </g>
   <g id="text_67">
    <text style="font-style: italic; font-size: 6.5px; font-family: 'Helvetica', 'Arial', 'DejaVu Sans', sans-serif; fill: #ffffff; opacity: 0.92" transform="translate(406.075935 525.376561)">16 sliding-window transformer</text>
    <text style="font-style: italic; font-size: 6.5px; font-family: 'Helvetica', 'Arial', 'DejaVu Sans', sans-serif; fill: #ffffff; opacity: 0.92" transform="translate(405.710818 532.40819)">blocks (attn + MLP + 2 norms)</text>
    <text style="font-style: italic; font-size: 6.5px; font-family: 'Helvetica', 'Arial', 'DejaVu Sans', sans-serif; fill: #ffffff; opacity: 0.92" transform="translate(408.528669 539.439819)">on O96 mesh, latitude bands</text>
   </g>
   <g id="line2d_81">
    <path d="M 407.159317 441.248331
L 408.804519 441.200881
L 410.449721 441.13938
L 412.094923 441.060585
L 413.740125 440.960808
L 415.385326 440.835947
L 417.030528 440.681548
L 418.67573 440.492915
L 420.320932 440.265258
L 421.966134 439.993889
L 423.611335 439.674466
L 425.256537 439.303275
L 426.901739 438.877544
L 428.546941 438.39577
L 430.192143 437.858046
L 431.837344 437.266366
L 433.482546 436.624871
L 435.127748 435.940028
L 436.77295 435.220707
L 438.418152 434.478132
L 440.063354 433.725699
L 441.708555 432.978663
L 443.353757 432.253672
L 444.998959 431.568187
L 446.644161 430.939811
L 448.289363 430.385542
L 449.934564 429.921023
L 451.579766 429.559803
L 453.224968 429.312688
L 454.87017 429.1872
L 456.515372 429.1872
L 458.160573 429.312688
L 459.805775 429.559803
L 461.450977 429.921023
L 463.096179 430.385542
L 464.741381 430.939811
L 466.386582 431.568187
L 468.031784 432.253672
L 469.676986 432.978663
L 471.322188 433.725699
L 472.96739 434.478132
L 474.612592 435.220707
L 476.257793 435.940028
L 477.902995 436.624871
L 479.548197 437.266366
L 481.193399 437.858046
L 482.838601 438.39577
L 484.483802 438.877544
L 486.129004 439.303275
L 487.774206 439.674466
L 489.419408 439.993889
L 491.06461 440.265258
L 492.709811 440.492915
L 494.355013 440.681548
L 496.000215 440.835947
L 497.645417 440.960808
L 499.290619 441.060585
L 500.935821 441.13938
L 502.581022 441.200881
L 504.226224 441.248331
" clip-path="url(#p872ea4c059)" style="fill: none; stroke: #c2493d; stroke-opacity: 0.85; stroke-width: 0.9; stroke-linecap: square"/>
   </g>
   <g id="text_68">
    <text style="font-weight: 700; font-size: 11px; font-family: 'Helvetica', 'Arial', 'DejaVu Sans', sans-serif; text-anchor: middle; fill: #ffffff" x="646.426128" y="467.245809" transform="rotate(-0 646.426128 467.245809)">decoder</text>
   </g>
   <g id="text_69">
    <text style="font-size: 9px; font-family: 'Helvetica', 'Arial', 'DejaVu Sans', sans-serif; text-anchor: middle; fill: #ffffff; opacity: 0.97" x="646.426128" y="483.924686" transform="rotate(-0 646.426128 483.924686)">N = 32</text>
   </g>
   <g id="text_70">
    <text style="font-size: 8.5px; font-family: 'Helvetica', 'Arial', 'DejaVu Sans', sans-serif; text-anchor: middle; fill: #ffffff; opacity: 0.97" x="646.426128" y="499.102941" transform="rotate(-0 646.426128 499.102941)">σ = 0.0275</text>
   </g>
   <g id="text_71">
    <text style="font-style: italic; font-size: 6.5px; font-family: 'Helvetica', 'Arial', 'DejaVu Sans', sans-serif; fill: #ffffff; opacity: 0.92" transform="translate(609.039956 532.227409)">O96 mesh -&gt; grid GNN</text>
    <text style="font-style: italic; font-size: 6.5px; font-family: 'Helvetica', 'Arial', 'DejaVu Sans', sans-serif; fill: #ffffff; opacity: 0.92" transform="translate(599.9298 539.259038)">+ node_data_extractor head</text>
   </g>
   <g id="line2d_82">
    <path d="M 606.121503 441.248331
L 607.487761 441.200881
L 608.85402 441.13938
L 610.220278 441.060585
L 611.586537 440.960808
L 612.952795 440.835947
L 614.319054 440.681548
L 615.685312 440.492915
L 617.051571 440.265258
L 618.417829 439.993889
L 619.784088 439.674466
L 621.150346 439.303275
L 622.516605 438.877544
L 623.882863 438.39577
L 625.249122 437.858046
L 626.61538 437.266366
L 627.981639 436.624871
L 629.347897 435.940028
L 630.714156 435.220707
L 632.080414 434.478132
L 633.446673 433.725699
L 634.812931 432.978663
L 636.17919 432.253672
L 637.545448 431.568187
L 638.911707 430.939811
L 640.277965 430.385542
L 641.644224 429.921023
L 643.010482 429.559803
L 644.376741 429.312688
L 645.742999 429.1872
L 647.109258 429.1872
L 648.475516 429.312688
L 649.841775 429.559803
L 651.208033 429.921023
L 652.574291 430.385542
L 653.94055 430.939811
L 655.306808 431.568187
L 656.673067 432.253672
L 658.039325 432.978663
L 659.405584 433.725699
L 660.771842 434.478132
L 662.138101 435.220707
L 663.504359 435.940028
L 664.870618 436.624871
L 666.236876 437.266366
L 667.603135 437.858046
L 668.969393 438.39577
L 670.335652 438.877544
L 671.70191 439.303275
L 673.068169 439.674466
L 674.434427 439.993889
L 675.800686 440.265258
L 677.166944 440.492915
L 678.533203 440.681548
L 679.899461 440.835947
L 681.26572 440.960808
L 682.631978 441.060585
L 683.998237 441.13938
L 685.364495 441.200881
L 686.730754 441.248331
" clip-path="url(#p872ea4c059)" style="fill: none; stroke: #c2493d; stroke-opacity: 0.85; stroke-width: 0.9; stroke-linecap: square"/>
   </g>
   <g id="line2d_83">
    <path d="M 346.2975 556.760664
L 346.850771 556.717528
L 347.404042 556.661618
L 347.957314 556.589986
L 348.510585 556.49928
L 349.063856 556.38577
L 349.617127 556.245408
L 350.170398 556.073923
L 350.723669 555.866962
L 351.276941 555.620262
L 351.830212 555.329878
L 352.383483 554.992432
L 352.936754 554.605404
L 353.490025 554.167427
L 354.043297 553.678588
L 354.596568 553.140696
L 355.149839 552.557519
L 355.70311 551.934935
L 356.256381 551.281007
L 356.809653 550.605938
L 357.362924 549.921909
L 357.916195 549.242785
L 358.469466 548.583701
L 359.022737 547.960534
L 359.576008 547.389282
L 360.12928 546.885402
L 360.682551 546.463111
L 361.235822 546.13473
L 361.789093 545.91008
L 362.342364 545.796
L 362.895636 545.796
L 363.448907 545.91008
L 364.002178 546.13473
L 364.555449 546.463111
L 365.10872 546.885402
L 365.661992 547.389282
L 366.215263 547.960534
L 366.768534 548.583701
L 367.321805 549.242785
L 367.875076 549.921909
L 368.428347 550.605938
L 368.981619 551.281007
L 369.53489 551.934935
L 370.088161 552.557519
L 370.641432 553.140696
L 371.194703 553.678588
L 371.747975 554.167427
L 372.301246 554.605404
L 372.854517 554.992432
L 373.407788 555.329878
L 373.961059 555.620262
L 374.514331 555.866962
L 375.067602 556.073923
L 375.620873 556.245408
L 376.174144 556.38577
L 376.727415 556.49928
L 377.280686 556.589986
L 377.833958 556.661618
L 378.387229 556.717528
L 378.9405 556.760664
" clip-path="url(#p872ea4c059)" style="fill: none; stroke: #c2493d; stroke-opacity: 0.85; stroke-width: 0.9; stroke-linecap: square"/>
   </g>
  </g>
 </g>
 <defs>
  <clipPath id="p872ea4c059">
   <rect x="10.8" y="10.8" width="725.4" height="554.4"/>
  </clipPath>
 </defs>
</svg>
