<?xml version="1.0" encoding="utf-8" standalone="no"?>
<!DOCTYPE svg PUBLIC "-//W3C//DTD SVG 1.1//EN"
  "http://www.w3.org/Graphics/SVG/1.1/DTD/svg11.dtd">
<svg xmlns:xlink="http://www.w3.org/1999/xlink" width="747pt" height="576pt" viewBox="0 0 747 576" xmlns="http://www.w3.org/2000/svg" version="1.1">
 <metadata>
  <rdf:RDF xmlns:dc="http://purl.org/dc/elements/1.1/" xmlns:cc="http://creativecommons.org/ns#" xmlns:rdf="http://www.w3.org/1999/02/22-rdf-syntax-ns#">
   <cc:Work>
    <dc:type rdf:resource="http://purl.org/dc/dcmitype/StillImage"/>
    <dc:date>2026-05-29T21:01:34.860183</dc:date>
    <dc:format>image/svg+xml</dc:format>
    <dc:creator>
     <cc:Agent>
      <dc:title>Matplotlib v3.10.9, https://matplotlib.org/</dc:title>
     </cc:Agent>
    </dc:creator>
   </cc:Work>
  </rdf:RDF>
 </metadata>
 <defs>
  <style type="text/css">*{stroke-linejoin: round; stroke-linecap: butt}</style>
 </defs>
 <g id="figure_1">
  <g id="patch_1">
   <path d="M 0 576
L 747 576
L 747 0
L 0 0
z
" style="fill: #ffffff"/>
  </g>
  <g id="axes_1">
   <g id="patch_2">
    <path d="M 10.8 565.2
L 736.2 565.2
L 736.2 10.8
L 10.8 10.8
z
" style="fill: #ffffff"/>
   </g>
   <g id="line2d_1">
    <path d="M 47.07 565.2
L 47.07 10.8
" clip-path="url(#p5cc28abf8d)" style="fill: none; stroke: #e9ecef; stroke-opacity: 0.3; stroke-width: 0.4; stroke-linecap: square"/>
   </g>
   <g id="line2d_2">
    <path d="M 83.34 565.2
L 83.34 10.8
" clip-path="url(#p5cc28abf8d)" style="fill: none; stroke: #e9ecef; stroke-opacity: 0.3; stroke-width: 0.4; stroke-linecap: square"/>
   </g>
   <g id="line2d_3">
    <path d="M 119.61 565.2
L 119.61 10.8
" clip-path="url(#p5cc28abf8d)" style="fill: none; stroke: #e9ecef; stroke-opacity: 0.3; stroke-width: 0.4; stroke-linecap: square"/>
   </g>
   <g id="line2d_4">
    <path d="M 155.88 565.2
L 155.88 10.8
" clip-path="url(#p5cc28abf8d)" style="fill: none; stroke: #e9ecef; stroke-opacity: 0.3; stroke-width: 0.4; stroke-linecap: square"/>
   </g>
   <g id="line2d_5">
    <path d="M 192.15 565.2
L 192.15 10.8
" clip-path="url(#p5cc28abf8d)" style="fill: none; stroke: #e9ecef; stroke-opacity: 0.3; stroke-width: 0.4; stroke-linecap: square"/>
   </g>
   <g id="line2d_6">
    <path d="M 228.42 565.2
L 228.42 10.8
" clip-path="url(#p5cc28abf8d)" style="fill: none; stroke: #e9ecef; stroke-opacity: 0.3; stroke-width: 0.4; stroke-linecap: square"/>
   </g>
   <g id="line2d_7">
    <path d="M 264.69 565.2
L 264.69 10.8
" clip-path="url(#p5cc28abf8d)" style="fill: none; stroke: #e9ecef; stroke-opacity: 0.3; stroke-width: 0.4; stroke-linecap: square"/>
   </g>
   <g id="line2d_8">
    <path d="M 300.96 565.2
L 300.96 10.8
" clip-path="url(#p5cc28abf8d)" style="fill: none; stroke: #e9ecef; stroke-opacity: 0.3; stroke-width: 0.4; stroke-linecap: square"/>
   </g>
   <g id="line2d_9">
    <path d="M 337.23 565.2
L 337.23 10.8
" clip-path="url(#p5cc28abf8d)" style="fill: none; stroke: #e9ecef; stroke-opacity: 0.3; stroke-width: 0.4; stroke-linecap: square"/>
   </g>
   <g id="line2d_10">
    <path d="M 373.5 565.2
L 373.5 10.8
" clip-path="url(#p5cc28abf8d)" style="fill: none; stroke: #e9ecef; stroke-opacity: 0.3; stroke-width: 0.4; stroke-linecap: square"/>
   </g>
   <g id="line2d_11">
    <path d="M 409.77 565.2
L 409.77 10.8
" clip-path="url(#p5cc28abf8d)" style="fill: none; stroke: #e9ecef; stroke-opacity: 0.3; stroke-width: 0.4; stroke-linecap: square"/>
   </g>
   <g id="line2d_12">
    <path d="M 446.04 565.2
L 446.04 10.8
" clip-path="url(#p5cc28abf8d)" style="fill: none; stroke: #e9ecef; stroke-opacity: 0.3; stroke-width: 0.4; stroke-linecap: square"/>
   </g>
   <g id="line2d_13">
    <path d="M 482.31 565.2
L 482.31 10.8
" clip-path="url(#p5cc28abf8d)" style="fill: none; stroke: #e9ecef; stroke-opacity: 0.3; stroke-width: 0.4; stroke-linecap: square"/>
   </g>
   <g id="line2d_14">
    <path d="M 518.58 565.2
L 518.58 10.8
" clip-path="url(#p5cc28abf8d)" style="fill: none; stroke: #e9ecef; stroke-opacity: 0.3; stroke-width: 0.4; stroke-linecap: square"/>
   </g>
   <g id="line2d_15">
    <path d="M 554.85 565.2
L 554.85 10.8
" clip-path="url(#p5cc28abf8d)" style="fill: none; stroke: #e9ecef; stroke-opacity: 0.3; stroke-width: 0.4; stroke-linecap: square"/>
   </g>
   <g id="line2d_16">
    <path d="M 591.12 565.2
L 591.12 10.8
" clip-path="url(#p5cc28abf8d)" style="fill: none; stroke: #e9ecef; stroke-opacity: 0.3; stroke-width: 0.4; stroke-linecap: square"/>
   </g>
   <g id="line2d_17">
    <path d="M 627.39 565.2
L 627.39 10.8
" clip-path="url(#p5cc28abf8d)" style="fill: none; stroke: #e9ecef; stroke-opacity: 0.3; stroke-width: 0.4; stroke-linecap: square"/>
   </g>
   <g id="line2d_18">
    <path d="M 663.66 565.2
L 663.66 10.8
" clip-path="url(#p5cc28abf8d)" style="fill: none; stroke: #e9ecef; stroke-opacity: 0.3; stroke-width: 0.4; stroke-linecap: square"/>
   </g>
   <g id="line2d_19">
    <path d="M 699.93 565.2
L 699.93 10.8
" clip-path="url(#p5cc28abf8d)" style="fill: none; stroke: #e9ecef; stroke-opacity: 0.3; stroke-width: 0.4; stroke-linecap: square"/>
   </g>
   <g id="line2d_20">
    <path d="M 10.8 537.48
L 736.2 537.48
" clip-path="url(#p5cc28abf8d)" style="fill: none; stroke: #e9ecef; stroke-opacity: 0.3; stroke-width: 0.4; stroke-linecap: square"/>
   </g>
   <g id="line2d_21">
    <path d="M 10.8 509.76
L 736.2 509.76
" clip-path="url(#p5cc28abf8d)" style="fill: none; stroke: #e9ecef; stroke-opacity: 0.3; stroke-width: 0.4; stroke-linecap: square"/>
   </g>
   <g id="line2d_22">
    <path d="M 10.8 482.04
L 736.2 482.04
" clip-path="url(#p5cc28abf8d)" style="fill: none; stroke: #e9ecef; stroke-opacity: 0.3; stroke-width: 0.4; stroke-linecap: square"/>
   </g>
   <g id="line2d_23">
    <path d="M 10.8 454.32
L 736.2 454.32
" clip-path="url(#p5cc28abf8d)" style="fill: none; stroke: #e9ecef; stroke-opacity: 0.3; stroke-width: 0.4; stroke-linecap: square"/>
   </g>
   <g id="line2d_24">
    <path d="M 10.8 426.6
L 736.2 426.6
" clip-path="url(#p5cc28abf8d)" style="fill: none; stroke: #e9ecef; stroke-opacity: 0.3; stroke-width: 0.4; stroke-linecap: square"/>
   </g>
   <g id="line2d_25">
    <path d="M 10.8 398.88
L 736.2 398.88
" clip-path="url(#p5cc28abf8d)" style="fill: none; stroke: #e9ecef; stroke-opacity: 0.3; stroke-width: 0.4; stroke-linecap: square"/>
   </g>
   <g id="line2d_26">
    <path d="M 10.8 371.16
L 736.2 371.16
" clip-path="url(#p5cc28abf8d)" style="fill: none; stroke: #e9ecef; stroke-opacity: 0.3; stroke-width: 0.4; stroke-linecap: square"/>
   </g>
   <g id="line2d_27">
    <path d="M 10.8 343.44
L 736.2 343.44
" clip-path="url(#p5cc28abf8d)" style="fill: none; stroke: #e9ecef; stroke-opacity: 0.3; stroke-width: 0.4; stroke-linecap: square"/>
   </g>
   <g id="line2d_28">
    <path d="M 10.8 315.72
L 736.2 315.72
" clip-path="url(#p5cc28abf8d)" style="fill: none; stroke: #e9ecef; stroke-opacity: 0.3; stroke-width: 0.4; stroke-linecap: square"/>
   </g>
   <g id="line2d_29">
    <path d="M 10.8 288
L 736.2 288
" clip-path="url(#p5cc28abf8d)" style="fill: none; stroke: #e9ecef; stroke-opacity: 0.3; stroke-width: 0.4; stroke-linecap: square"/>
   </g>
   <g id="line2d_30">
    <path d="M 10.8 260.28
L 736.2 260.28
" clip-path="url(#p5cc28abf8d)" style="fill: none; stroke: #e9ecef; stroke-opacity: 0.3; stroke-width: 0.4; stroke-linecap: square"/>
   </g>
   <g id="line2d_31">
    <path d="M 10.8 232.56
L 736.2 232.56
" clip-path="url(#p5cc28abf8d)" style="fill: none; stroke: #e9ecef; stroke-opacity: 0.3; stroke-width: 0.4; stroke-linecap: square"/>
   </g>
   <g id="line2d_32">
    <path d="M 10.8 204.84
L 736.2 204.84
" clip-path="url(#p5cc28abf8d)" style="fill: none; stroke: #e9ecef; stroke-opacity: 0.3; stroke-width: 0.4; stroke-linecap: square"/>
   </g>
   <g id="line2d_33">
    <path d="M 10.8 177.12
L 736.2 177.12
" clip-path="url(#p5cc28abf8d)" style="fill: none; stroke: #e9ecef; stroke-opacity: 0.3; stroke-width: 0.4; stroke-linecap: square"/>
   </g>
   <g id="line2d_34">
    <path d="M 10.8 149.4
L 736.2 149.4
" clip-path="url(#p5cc28abf8d)" style="fill: none; stroke: #e9ecef; stroke-opacity: 0.3; stroke-width: 0.4; stroke-linecap: square"/>
   </g>
   <g id="line2d_35">
    <path d="M 10.8 121.68
L 736.2 121.68
" clip-path="url(#p5cc28abf8d)" style="fill: none; stroke: #e9ecef; stroke-opacity: 0.3; stroke-width: 0.4; stroke-linecap: square"/>
   </g>
   <g id="line2d_36">
    <path d="M 10.8 93.96
L 736.2 93.96
" clip-path="url(#p5cc28abf8d)" style="fill: none; stroke: #e9ecef; stroke-opacity: 0.3; stroke-width: 0.4; stroke-linecap: square"/>
   </g>
   <g id="line2d_37">
    <path d="M 10.8 66.24
L 736.2 66.24
" clip-path="url(#p5cc28abf8d)" style="fill: none; stroke: #e9ecef; stroke-opacity: 0.3; stroke-width: 0.4; stroke-linecap: square"/>
   </g>
   <g id="line2d_38">
    <path d="M 10.8 38.52
L 736.2 38.52
" clip-path="url(#p5cc28abf8d)" style="fill: none; stroke: #e9ecef; stroke-opacity: 0.3; stroke-width: 0.4; stroke-linecap: square"/>
   </g>
   <g id="patch_3">
    <path d="M 28.935 129.996
L 34.055471 129.996
L 34.055471 102.276
L 28.935 102.276
z
" clip-path="url(#p5cc28abf8d)" style="fill: #2c7a8c; opacity: 0.85; stroke: #1f2a36; stroke-width: 0.5; stroke-linejoin: miter"/>
   </g>
   <g id="patch_4">
    <path d="M 35.335588 126.531
L 40.456059 126.531
L 40.456059 105.741
L 35.335588 105.741
z
" clip-path="url(#p5cc28abf8d)" style="fill: #2c7a8c; opacity: 0.85; stroke: #1f2a36; stroke-width: 0.5; stroke-linejoin: miter"/>
   </g>
   <g id="patch_5">
    <path d="M 41.736176 123.066
L 46.856647 123.066
L 46.856647 109.206
L 41.736176 109.206
z
" clip-path="url(#p5cc28abf8d)" style="fill: #2c7a8c; opacity: 0.85; stroke: #1f2a36; stroke-width: 0.5; stroke-linejoin: miter"/>
   </g>
   <g id="patch_6">
    <path d="M 48.136765 120.294
L 53.257235 120.294
L 53.257235 111.978
L 48.136765 111.978
z
" clip-path="url(#p5cc28abf8d)" style="fill: #2c7a8c; opacity: 0.85; stroke: #1f2a36; stroke-width: 0.5; stroke-linejoin: miter"/>
   </g>
   <g id="patch_7">
    <path d="M 54.537353 123.066
L 59.657824 123.066
L 59.657824 109.206
L 54.537353 109.206
z
" clip-path="url(#p5cc28abf8d)" style="fill: #2c7a8c; opacity: 0.85; stroke: #1f2a36; stroke-width: 0.5; stroke-linejoin: miter"/>
   </g>
   <g id="patch_8">
    <path d="M 60.937941 126.531
L 66.058412 126.531
L 66.058412 105.741
L 60.937941 105.741
z
" clip-path="url(#p5cc28abf8d)" style="fill: #2c7a8c; opacity: 0.85; stroke: #1f2a36; stroke-width: 0.5; stroke-linejoin: miter"/>
   </g>
   <g id="patch_9">
    <path d="M 67.338529 129.996
L 72.459 129.996
L 72.459 102.276
L 67.338529 102.276
z
" clip-path="url(#p5cc28abf8d)" style="fill: #2c7a8c; opacity: 0.85; stroke: #1f2a36; stroke-width: 0.5; stroke-linejoin: miter"/>
   </g>
   <g id="patch_10">
    <path d="M 50.697 283.5648
C 54.929323 283.5648 58.988871 282.279668 61.981576 279.99244
C 64.97428 277.705212 66.6558 274.602629 66.6558 271.368
C 66.6558 268.133371 64.97428 265.030788 61.981576 262.74356
C 58.988871 260.456332 54.929323 259.1712 50.697 259.1712
C 46.464677 259.1712 42.405129 260.456332 39.412424 262.74356
C 36.41972 265.030788 34.7382 268.133371 34.7382 271.368
C 34.7382 274.602629 36.41972 277.705212 39.412424 279.99244
C 42.405129 282.279668 46.464677 283.5648 50.697 283.5648
z
" clip-path="url(#p5cc28abf8d)" style="fill: #ffffff; stroke: #1f2a36; stroke-linejoin: miter"/>
   </g>
   <g id="patch_11">
    <path d="M 50.697 438.7968
C 54.929323 438.7968 58.988871 437.511668 61.981576 435.22444
C 64.97428 432.937212 66.6558 429.834629 66.6558 426.6
C 66.6558 423.365371 64.97428 420.262788 61.981576 417.97556
C 58.988871 415.688332 54.929323 414.4032 50.697 414.4032
C 46.464677 414.4032 42.405129 415.688332 39.412424 417.97556
C 36.41972 420.262788 34.7382 423.365371 34.7382 426.6
C 34.7382 429.834629 36.41972 432.937212 39.412424 435.22444
C 42.405129 437.511668 46.464677 438.7968 50.697 438.7968
z
" clip-path="url(#p5cc28abf8d)" style="fill: #ffffff; stroke: #1f2a36; stroke-linejoin: miter"/>
   </g>
   <g id="matplotlib.axis_1"/>
   <g id="matplotlib.axis_2"/>
   <g id="patch_12">
    <path d="M 187.986708 212.0472
L 329.488149 212.0472
Q 345.446949 212.0472 345.446949 199.8504
L 345.446949 110.0376
Q 345.446949 97.8408 329.488149 97.8408
L 187.986708 97.8408
Q 172.027908 97.8408 172.027908 110.0376
L 172.027908 199.8504
Q 172.027908 212.0472 187.986708 212.0472
z
" clip-path="url(#p5cc28abf8d)" style="fill: #e08b3a; opacity: 0.92; stroke: #e08b3a; stroke-linejoin: miter"/>
   </g>
   <g id="line2d_39">
    <path d="M 258.737429 92.8512
L 258.737429 81.7632
" clip-path="url(#p5cc28abf8d)" style="fill: none; stroke: #c2493d; stroke-opacity: 0.7; stroke-width: 0.7; stroke-linecap: square"/>
   </g>
   <g id="patch_13">
    <path d="M 362.856549 212.0472
L 560.165349 212.0472
Q 576.124149 212.0472 576.124149 199.8504
L 576.124149 110.0376
Q 576.124149 97.8408 560.165349 97.8408
L 362.856549 97.8408
Q 346.897749 97.8408 346.897749 110.0376
L 346.897749 199.8504
Q 346.897749 212.0472 362.856549 212.0472
z
" clip-path="url(#p5cc28abf8d)" style="fill: #2c7a8c; opacity: 0.92; stroke: #2c7a8c; stroke-linejoin: miter"/>
   </g>
   <g id="line2d_40">
    <path d="M 461.510949 92.8512
L 461.510949 81.7632
" clip-path="url(#p5cc28abf8d)" style="fill: none; stroke: #c2493d; stroke-opacity: 0.7; stroke-width: 0.7; stroke-linecap: square"/>
   </g>
   <g id="patch_14">
    <path d="M 593.533749 212.0472
L 722.228292 212.0472
Q 738.187092 212.0472 738.187092 199.8504
L 738.187092 110.0376
Q 738.187092 97.8408 722.228292 97.8408
L 593.533749 97.8408
Q 577.574949 97.8408 577.574949 110.0376
L 577.574949 199.8504
Q 577.574949 212.0472 593.533749 212.0472
z
" clip-path="url(#p5cc28abf8d)" style="fill: #7bb369; opacity: 0.92; stroke: #7bb369; stroke-linejoin: miter"/>
   </g>
   <g id="line2d_41">
    <path d="M 657.881021 92.8512
L 657.881021 81.7632
" clip-path="url(#p5cc28abf8d)" style="fill: none; stroke: #c2493d; stroke-opacity: 0.7; stroke-width: 0.7; stroke-linecap: square"/>
   </g>
   <g id="line2d_42">
    <path d="M 36.692339 273.885381
L 37.343718 274.659851
L 37.995098 275.380269
L 38.646478 276.034806
L 39.297857 276.612713
L 39.949237 277.104503
L 40.600616 277.502099
L 41.251996 277.798974
L 41.903376 277.990252
L 42.554755 278.072793
L 43.206135 278.045242
L 43.857514 277.90805
L 44.508894 277.663471
L 45.160273 277.315521
L 45.811653 276.869912
L 46.463033 276.333962
L 47.114412 275.716472
L 47.765792 275.027579
L 48.417171 274.278596
L 49.068551 273.481822
L 49.719931 272.650338
L 50.37131 271.797798
L 51.02269 270.938202
L 51.674069 270.085662
L 52.325449 269.254178
L 52.976829 268.457404
L 53.628208 267.708421
L 54.279588 267.019528
L 54.930967 266.402038
L 55.582347 265.866088
L 56.233727 265.420479
L 56.885106 265.072529
L 57.536486 264.82795
L 58.187865 264.690758
L 58.839245 264.663207
L 59.490624 264.745748
L 60.142004 264.937026
L 60.793384 265.233901
L 61.444763 265.631497
L 62.096143 266.123287
L 62.747522 266.701194
L 63.398902 267.355731
L 64.050282 268.076149
L 64.701661 268.850619
" clip-path="url(#p5cc28abf8d)" style="fill: none; stroke: #2c7a8c; stroke-opacity: 0.85; stroke-width: 0.9; stroke-linecap: square"/>
   </g>
   <g id="line2d_43">
    <path d="M 36.692339 268.82247
L 37.343718 268.238998
L 37.995098 267.860196
L 38.646478 267.71084
L 39.297857 267.8007
L 39.949237 268.123898
L 40.600616 268.659293
L 41.251996 269.371866
L 41.903376 270.215006
L 42.554755 271.133565
L 43.206135 272.067457
L 43.857514 272.955598
L 44.508894 273.739894
L 45.160273 274.369043
L 45.811653 274.801893
L 46.463033 275.010132
L 47.114412 274.980138
L 47.765792 274.713872
L 48.417171 274.228753
L 49.068551 273.55651
L 49.719931 272.741117
L 50.37131 271.835908
L 51.02269 270.900092
L 51.674069 269.994883
L 52.325449 269.17949
L 52.976829 268.507247
L 53.628208 268.022128
L 54.279588 267.755862
L 54.930967 267.725868
L 55.582347 267.934107
L 56.233727 268.366957
L 56.885106 268.996106
L 57.536486 269.780402
L 58.187865 270.668543
L 58.839245 271.602435
L 59.490624 272.520994
L 60.142004 273.364134
L 60.793384 274.076707
L 61.444763 274.612102
L 62.096143 274.9353
L 62.747522 275.02516
L 63.398902 274.875804
L 64.050282 274.497002
L 64.701661 273.91353
" clip-path="url(#p5cc28abf8d)" style="fill: none; stroke: #2c7a8c; stroke-opacity: 0.85; stroke-width: 0.9; stroke-linecap: square"/>
   </g>
   <g id="line2d_44">
    <path d="M 36.692339 273.375523
L 37.343718 273.562296
L 37.995098 273.428336
L 38.646478 272.993224
L 39.297857 272.320559
L 39.949237 271.508661
L 40.600616 270.676204
L 41.251996 269.944864
L 41.903376 269.421539
L 42.554755 269.182721
L 43.206135 269.263318
L 43.857514 269.651548
L 44.508894 270.290667
L 45.160273 271.087255
L 45.811653 271.924879
L 46.463033 272.681106
L 47.114412 273.245401
L 47.765792 273.535283
L 48.417171 273.50838
L 49.068551 273.168626
L 49.719931 272.56568
L 50.37131 271.787674
L 51.02269 270.948326
L 51.674069 270.17032
L 52.325449 269.567374
L 52.976829 269.22762
L 53.628208 269.200717
L 54.279588 269.490599
L 54.930967 270.054894
L 55.582347 270.811121
L 56.233727 271.648745
L 56.885106 272.445333
L 57.536486 273.084452
L 58.187865 273.472682
L 58.839245 273.553279
L 59.490624 273.314461
L 60.142004 272.791136
L 60.793384 272.059796
L 61.444763 271.227339
L 62.096143 270.415441
L 62.747522 269.742776
L 63.398902 269.307664
L 64.050282 269.173704
L 64.701661 269.360477
" clip-path="url(#p5cc28abf8d)" style="fill: none; stroke: #2c7a8c; stroke-opacity: 0.85; stroke-width: 0.9; stroke-linecap: square"/>
   </g>
   <g id="patch_15">
    <path d="M 193.55714 367.2792
L 288.759969 367.2792
Q 304.718769 367.2792 304.718769 355.0824
L 304.718769 265.2696
Q 304.718769 253.0728 288.759969 253.0728
L 193.55714 253.0728
Q 177.59834 253.0728 177.59834 265.2696
L 177.59834 355.0824
Q 177.59834 367.2792 193.55714 367.2792
z
" clip-path="url(#p5cc28abf8d)" style="fill: #e08b3a; opacity: 0.92; stroke: #e08b3a; stroke-linejoin: miter"/>
   </g>
   <g id="line2d_45">
    <path d="M 241.158554 248.0832
L 241.158554 236.9952
" clip-path="url(#p5cc28abf8d)" style="fill: none; stroke: #c2493d; stroke-opacity: 0.7; stroke-width: 0.7; stroke-linecap: square"/>
   </g>
   <g id="patch_16">
    <path d="M 322.128369 367.2792
L 480.727431 367.2792
Q 496.686231 367.2792 496.686231 355.0824
L 496.686231 265.2696
Q 496.686231 253.0728 480.727431 253.0728
L 322.128369 253.0728
Q 306.169569 253.0728 306.169569 265.2696
L 306.169569 355.0824
Q 306.169569 367.2792 322.128369 367.2792
z
" clip-path="url(#p5cc28abf8d)" style="fill: #2c7a8c; opacity: 0.92; stroke: #2c7a8c; stroke-linejoin: miter"/>
   </g>
   <g id="line2d_46">
    <path d="M 401.4279 248.0832
L 401.4279 236.9952
" clip-path="url(#p5cc28abf8d)" style="fill: none; stroke: #c2493d; stroke-opacity: 0.7; stroke-width: 0.7; stroke-linecap: square"/>
   </g>
   <g id="patch_17">
    <path d="M 514.095831 367.2792
L 609.29866 367.2792
Q 625.25746 367.2792 625.25746 355.0824
L 625.25746 265.2696
Q 625.25746 253.0728 609.29866 253.0728
L 514.095831 253.0728
Q 498.137031 253.0728 498.137031 265.2696
L 498.137031 355.0824
Q 498.137031 367.2792 514.095831 367.2792
z
" clip-path="url(#p5cc28abf8d)" style="fill: #7bb369; opacity: 0.92; stroke: #7bb369; stroke-linejoin: miter"/>
   </g>
   <g id="line2d_47">
    <path d="M 561.697246 248.0832
L 561.697246 236.9952
" clip-path="url(#p5cc28abf8d)" style="fill: none; stroke: #c2493d; stroke-opacity: 0.7; stroke-width: 0.7; stroke-linecap: square"/>
   </g>
   <g id="patch_18">
    <path d="M 642.66706 367.2792
L 716.65786 367.2792
Q 732.61666 367.2792 732.61666 355.0824
L 732.61666 265.2696
Q 732.61666 253.0728 716.65786 253.0728
L 642.66706 253.0728
Q 626.70826 253.0728 626.70826 265.2696
L 626.70826 355.0824
Q 626.70826 367.2792 642.66706 367.2792
z
" clip-path="url(#p5cc28abf8d)" style="fill: #a0a0a0; opacity: 0.92; stroke: #a0a0a0; stroke-linejoin: miter"/>
   </g>
   <g id="line2d_48">
    <path d="M 679.66246 248.0832
L 679.66246 236.9952
" clip-path="url(#p5cc28abf8d)" style="fill: none; stroke: #c2493d; stroke-opacity: 0.7; stroke-width: 0.7; stroke-linecap: square"/>
   </g>
   <g id="line2d_49">
    <path d="M 50.697 418.06224
L 41.12172 424.16064
" clip-path="url(#p5cc28abf8d)" style="fill: none; stroke: #2c7a8c; stroke-opacity: 0.7; stroke-width: 0.6; stroke-linecap: square"/>
   </g>
   <g id="line2d_50">
    <path d="M 50.697 418.06224
L 60.27228 424.16064
" clip-path="url(#p5cc28abf8d)" style="fill: none; stroke: #2c7a8c; stroke-opacity: 0.7; stroke-width: 0.6; stroke-linecap: square"/>
   </g>
   <g id="line2d_51">
    <path d="M 41.12172 424.16064
L 60.27228 424.16064
" clip-path="url(#p5cc28abf8d)" style="fill: none; stroke: #2c7a8c; stroke-opacity: 0.7; stroke-width: 0.6; stroke-linecap: square"/>
   </g>
   <g id="line2d_52">
    <path d="M 41.12172 424.16064
L 45.11142 430.86888
" clip-path="url(#p5cc28abf8d)" style="fill: none; stroke: #2c7a8c; stroke-opacity: 0.7; stroke-width: 0.6; stroke-linecap: square"/>
   </g>
   <g id="line2d_53">
    <path d="M 60.27228 424.16064
L 56.28258 430.86888
" clip-path="url(#p5cc28abf8d)" style="fill: none; stroke: #2c7a8c; stroke-opacity: 0.7; stroke-width: 0.6; stroke-linecap: square"/>
   </g>
   <g id="line2d_54">
    <path d="M 45.11142 430.86888
L 56.28258 430.86888
" clip-path="url(#p5cc28abf8d)" style="fill: none; stroke: #2c7a8c; stroke-opacity: 0.7; stroke-width: 0.6; stroke-linecap: square"/>
   </g>
   <g id="line2d_55">
    <path d="M 45.11142 430.86888
L 50.697 435.13776
" clip-path="url(#p5cc28abf8d)" style="fill: none; stroke: #2c7a8c; stroke-opacity: 0.7; stroke-width: 0.6; stroke-linecap: square"/>
   </g>
   <g id="line2d_56">
    <path d="M 56.28258 430.86888
L 50.697 435.13776
" clip-path="url(#p5cc28abf8d)" style="fill: none; stroke: #2c7a8c; stroke-opacity: 0.7; stroke-width: 0.6; stroke-linecap: square"/>
   </g>
   <g id="line2d_57">
    <path d="M 41.12172 424.16064
L 50.697 426.6
" clip-path="url(#p5cc28abf8d)" style="fill: none; stroke: #2c7a8c; stroke-opacity: 0.7; stroke-width: 0.6; stroke-linecap: square"/>
   </g>
   <g id="line2d_58">
    <path d="M 60.27228 424.16064
L 50.697 426.6
" clip-path="url(#p5cc28abf8d)" style="fill: none; stroke: #2c7a8c; stroke-opacity: 0.7; stroke-width: 0.6; stroke-linecap: square"/>
   </g>
   <g id="line2d_59">
    <path d="M 45.11142 430.86888
L 50.697 426.6
" clip-path="url(#p5cc28abf8d)" style="fill: none; stroke: #2c7a8c; stroke-opacity: 0.7; stroke-width: 0.6; stroke-linecap: square"/>
   </g>
   <g id="line2d_60">
    <path d="M 56.28258 430.86888
L 50.697 426.6
" clip-path="url(#p5cc28abf8d)" style="fill: none; stroke: #2c7a8c; stroke-opacity: 0.7; stroke-width: 0.6; stroke-linecap: square"/>
   </g>
   <g id="line2d_61">
    <path d="M 50.697 418.06224
L 50.697 426.6
" clip-path="url(#p5cc28abf8d)" style="fill: none; stroke: #2c7a8c; stroke-opacity: 0.7; stroke-width: 0.6; stroke-linecap: square"/>
   </g>
   <g id="line2d_62">
    <path d="M 50.697 435.13776
L 50.697 426.6
" clip-path="url(#p5cc28abf8d)" style="fill: none; stroke: #2c7a8c; stroke-opacity: 0.7; stroke-width: 0.6; stroke-linecap: square"/>
   </g>
   <g id="patch_19">
    <path d="M 192.26939 522.5112
L 335.450849 522.5112
Q 351.409649 522.5112 351.409649 510.3144
L 351.409649 420.5016
Q 351.409649 408.3048 335.450849 408.3048
L 192.26939 408.3048
Q 176.31059 408.3048 176.31059 420.5016
L 176.31059 510.3144
Q 176.31059 522.5112 192.26939 522.5112
z
" clip-path="url(#p5cc28abf8d)" style="fill: #e08b3a; opacity: 0.92; stroke: #e08b3a; stroke-linejoin: miter"/>
   </g>
   <g id="line2d_63">
    <path d="M 263.860119 403.3152
L 263.860119 392.2272
" clip-path="url(#p5cc28abf8d)" style="fill: none; stroke: #c2493d; stroke-opacity: 0.7; stroke-width: 0.7; stroke-linecap: square"/>
   </g>
   <g id="patch_20">
    <path d="M 368.819249 522.5112
L 544.91602 522.5112
Q 560.87482 522.5112 560.87482 510.3144
L 560.87482 420.5016
Q 560.87482 408.3048 544.91602 408.3048
L 368.819249 408.3048
Q 352.860449 408.3048 352.860449 420.5016
L 352.860449 510.3144
Q 352.860449 522.5112 368.819249 522.5112
z
" clip-path="url(#p5cc28abf8d)" style="fill: #2c7a8c; opacity: 0.92; stroke: #2c7a8c; stroke-linejoin: miter"/>
   </g>
   <g id="line2d_64">
    <path d="M 456.867634 403.3152
L 456.867634 392.2272
" clip-path="url(#p5cc28abf8d)" style="fill: none; stroke: #c2493d; stroke-opacity: 0.7; stroke-width: 0.7; stroke-linecap: square"/>
   </g>
   <g id="patch_21">
    <path d="M 578.28442 522.5112
L 717.94561 522.5112
Q 733.90441 522.5112 733.90441 510.3144
L 733.90441 420.5016
Q 733.90441 408.3048 717.94561 408.3048
L 578.28442 408.3048
Q 562.32562 408.3048 562.32562 420.5016
L 562.32562 510.3144
Q 562.32562 522.5112 578.28442 522.5112
z
" clip-path="url(#p5cc28abf8d)" style="fill: #7bb369; opacity: 0.92; stroke: #7bb369; stroke-linejoin: miter"/>
   </g>
   <g id="line2d_65">
    <path d="M 648.115015 403.3152
L 648.115015 392.2272
" clip-path="url(#p5cc28abf8d)" style="fill: none; stroke: #c2493d; stroke-opacity: 0.7; stroke-width: 0.7; stroke-linecap: square"/>
   </g>
   <g id="line2d_66">
    <path d="M 362.619 556.884
L 362.619 545.796
" clip-path="url(#p5cc28abf8d)" style="fill: none; stroke: #c2493d; stroke-opacity: 0.7; stroke-width: 0.7; stroke-linecap: square"/>
   </g>
   <g id="text_1">
    <text style="font-weight: 700; font-size: 17px; font-family: 'Helvetica', 'Arial', 'DejaVu Sans', sans-serif; text-anchor: start; fill: #1f2a36" x="25.308" y="32.033344" transform="rotate(-0 25.308 32.033344)">Weight perturbation across three AI weather models</text>
   </g>
   <g id="text_2">
    <!-- Phase 2 layer-group ablation at $\sigma_{\rm full}=0.01$ with $\sqrt{N_{\rm total}/N_{\rm group}}$ variance scaling.  Multiplicative noise: w' = w (1 + σ · N(0,1)). -->
    <g style="fill: #5c6b7a" transform="translate(25.308 54.514)">
     <text>
      <tspan x="0" y="-0.603438" style="font-size: 9.5px; font-family: 'DejaVu Sans'; fill: #5c6b7a">P</tspan>
      <tspan x="5.72876" y="-0.603438" style="font-size: 9.5px; font-family: 'DejaVu Sans'; fill: #5c6b7a">h</tspan>
      <tspan x="11.749756" y="-0.603438" style="font-size: 9.5px; font-family: 'DejaVu Sans'; fill: #5c6b7a">a</tspan>
      <tspan x="17.571289" y="-0.603438" style="font-size: 9.5px; font-family: 'DejaVu Sans'; fill: #5c6b7a">s</tspan>
      <tspan x="22.520752" y="-0.603438" style="font-size: 9.5px; font-family: 'DejaVu Sans'; fill: #5c6b7a">e</tspan>
      <tspan x="28.365479" y="-0.603438" style="font-size: 9.5px; font-family: 'DejaVu Sans'; fill: #5c6b7a"> </tspan>
      <tspan x="31.385254" y="-0.603438" style="font-size: 9.5px; font-family: 'DejaVu Sans'; fill: #5c6b7a">2</tspan>
      <tspan x="37.429443" y="-0.603438" style="font-size: 9.5px; font-family: 'DejaVu Sans'; fill: #5c6b7a"> </tspan>
      <tspan x="40.449219" y="-0.603438" style="font-size: 9.5px; font-family: 'DejaVu Sans'; fill: #5c6b7a">l</tspan>
      <tspan x="43.088623" y="-0.603438" style="font-size: 9.5px; font-family: 'DejaVu Sans'; fill: #5c6b7a">a</tspan>
      <tspan x="48.910156" y="-0.603438" style="font-size: 9.5px; font-family: 'DejaVu Sans'; fill: #5c6b7a">y</tspan>
      <tspan x="54.532227" y="-0.603438" style="font-size: 9.5px; font-family: 'DejaVu Sans'; fill: #5c6b7a">e</tspan>
      <tspan x="60.376953" y="-0.603438" style="font-size: 9.5px; font-family: 'DejaVu Sans'; fill: #5c6b7a">r</tspan>
      <tspan x="64.282715" y="-0.603438" style="font-size: 9.5px; font-family: 'DejaVu Sans'; fill: #5c6b7a">-</tspan>
      <tspan x="67.710693" y="-0.603438" style="font-size: 9.5px; font-family: 'DejaVu Sans'; fill: #5c6b7a">g</tspan>
      <tspan x="73.740967" y="-0.603438" style="font-size: 9.5px; font-family: 'DejaVu Sans'; fill: #5c6b7a">r</tspan>
      <tspan x="77.646729" y="-0.603438" style="font-size: 9.5px; font-family: 'DejaVu Sans'; fill: #5c6b7a">o</tspan>
      <tspan x="83.458984" y="-0.603438" style="font-size: 9.5px; font-family: 'DejaVu Sans'; fill: #5c6b7a">u</tspan>
      <tspan x="89.47998" y="-0.603438" style="font-size: 9.5px; font-family: 'DejaVu Sans'; fill: #5c6b7a">p</tspan>
      <tspan x="95.510254" y="-0.603438" style="font-size: 9.5px; font-family: 'DejaVu Sans'; fill: #5c6b7a"> </tspan>
      <tspan x="98.530029" y="-0.603438" style="font-size: 9.5px; font-family: 'DejaVu Sans'; fill: #5c6b7a">a</tspan>
      <tspan x="104.351562" y="-0.603438" style="font-size: 9.5px; font-family: 'DejaVu Sans'; fill: #5c6b7a">b</tspan>
      <tspan x="110.381836" y="-0.603438" style="font-size: 9.5px; font-family: 'DejaVu Sans'; fill: #5c6b7a">l</tspan>
      <tspan x="113.02124" y="-0.603438" style="font-size: 9.5px; font-family: 'DejaVu Sans'; fill: #5c6b7a">a</tspan>
      <tspan x="118.842773" y="-0.603438" style="font-size: 9.5px; font-family: 'DejaVu Sans'; fill: #5c6b7a">t</tspan>
      <tspan x="122.567627" y="-0.603438" style="font-size: 9.5px; font-family: 'DejaVu Sans'; fill: #5c6b7a">i</tspan>
      <tspan x="125.207031" y="-0.603438" style="font-size: 9.5px; font-family: 'DejaVu Sans'; fill: #5c6b7a">o</tspan>
      <tspan x="131.019287" y="-0.603438" style="font-size: 9.5px; font-family: 'DejaVu Sans'; fill: #5c6b7a">n</tspan>
      <tspan x="137.040283" y="-0.603438" style="font-size: 9.5px; font-family: 'DejaVu Sans'; fill: #5c6b7a"> </tspan>
      <tspan x="140.060059" y="-0.603438" style="font-size: 9.5px; font-family: 'DejaVu Sans'; fill: #5c6b7a">a</tspan>
      <tspan x="145.881592" y="-0.603438" style="font-size: 9.5px; font-family: 'DejaVu Sans'; fill: #5c6b7a">t</tspan>
      <tspan x="149.606445" y="-0.603438" style="font-size: 9.5px; font-family: 'DejaVu Sans'; fill: #5c6b7a"> </tspan>
      <tspan x="171.022485" y="-0.603438" style="font-size: 9.5px; font-family: 'DejaVu Sans'; fill: #5c6b7a">=</tspan>
      <tspan x="180.833276" y="-0.603438" style="font-size: 9.5px; font-family: 'DejaVu Sans'; fill: #5c6b7a">0</tspan>
      <tspan x="186.877466" y="-0.603438" style="font-size: 9.5px; font-family: 'DejaVu Sans'; fill: #5c6b7a">.</tspan>
      <tspan x="189.897241" y="-0.603438" style="font-size: 9.5px; font-family: 'DejaVu Sans'; fill: #5c6b7a">0</tspan>
      <tspan x="195.941431" y="-0.603438" style="font-size: 9.5px; font-family: 'DejaVu Sans'; fill: #5c6b7a">1</tspan>
      <tspan x="201.98562" y="-0.603438" style="font-size: 9.5px; font-family: 'DejaVu Sans'; fill: #5c6b7a"> </tspan>
      <tspan x="205.005396" y="-0.603438" style="font-size: 9.5px; font-family: 'DejaVu Sans'; fill: #5c6b7a">w</tspan>
      <tspan x="212.775171" y="-0.603438" style="font-size: 9.5px; font-family: 'DejaVu Sans'; fill: #5c6b7a">i</tspan>
      <tspan x="215.414575" y="-0.603438" style="font-size: 9.5px; font-family: 'DejaVu Sans'; fill: #5c6b7a">t</tspan>
      <tspan x="219.139429" y="-0.603438" style="font-size: 9.5px; font-family: 'DejaVu Sans'; fill: #5c6b7a">h</tspan>
      <tspan x="225.160425" y="-0.603438" style="font-size: 9.5px; font-family: 'DejaVu Sans'; fill: #5c6b7a"> </tspan>
      <tspan x="259.22049" y="-0.109375" style="font-size: 9.5px; font-family: 'DejaVu Sans'; fill: #5c6b7a">/</tspan>
      <tspan x="290.448248" y="-0.603438" style="font-size: 9.5px; font-family: 'DejaVu Sans'; fill: #5c6b7a"> </tspan>
      <tspan x="293.468024" y="-0.603438" style="font-size: 9.5px; font-family: 'DejaVu Sans'; fill: #5c6b7a">v</tspan>
      <tspan x="299.090094" y="-0.603438" style="font-size: 9.5px; font-family: 'DejaVu Sans'; fill: #5c6b7a">a</tspan>
      <tspan x="304.911627" y="-0.603438" style="font-size: 9.5px; font-family: 'DejaVu Sans'; fill: #5c6b7a">r</tspan>
      <tspan x="308.817389" y="-0.603438" style="font-size: 9.5px; font-family: 'DejaVu Sans'; fill: #5c6b7a">i</tspan>
      <tspan x="311.456793" y="-0.603438" style="font-size: 9.5px; font-family: 'DejaVu Sans'; fill: #5c6b7a">a</tspan>
      <tspan x="317.278326" y="-0.603438" style="font-size: 9.5px; font-family: 'DejaVu Sans'; fill: #5c6b7a">n</tspan>
      <tspan x="323.299323" y="-0.603438" style="font-size: 9.5px; font-family: 'DejaVu Sans'; fill: #5c6b7a">c</tspan>
      <tspan x="328.522467" y="-0.603438" style="font-size: 9.5px; font-family: 'DejaVu Sans'; fill: #5c6b7a">e</tspan>
      <tspan x="334.367194" y="-0.603438" style="font-size: 9.5px; font-family: 'DejaVu Sans'; fill: #5c6b7a"> </tspan>
      <tspan x="337.386969" y="-0.603438" style="font-size: 9.5px; font-family: 'DejaVu Sans'; fill: #5c6b7a">s</tspan>
      <tspan x="342.336432" y="-0.603438" style="font-size: 9.5px; font-family: 'DejaVu Sans'; fill: #5c6b7a">c</tspan>
      <tspan x="347.559576" y="-0.603438" style="font-size: 9.5px; font-family: 'DejaVu Sans'; fill: #5c6b7a">a</tspan>
      <tspan x="353.38111" y="-0.603438" style="font-size: 9.5px; font-family: 'DejaVu Sans'; fill: #5c6b7a">l</tspan>
      <tspan x="356.020514" y="-0.603438" style="font-size: 9.5px; font-family: 'DejaVu Sans'; fill: #5c6b7a">i</tspan>
      <tspan x="358.659918" y="-0.603438" style="font-size: 9.5px; font-family: 'DejaVu Sans'; fill: #5c6b7a">n</tspan>
      <tspan x="364.680914" y="-0.603438" style="font-size: 9.5px; font-family: 'DejaVu Sans'; fill: #5c6b7a">g</tspan>
      <tspan x="370.711188" y="-0.603438" style="font-size: 9.5px; font-family: 'DejaVu Sans'; fill: #5c6b7a">.</tspan>
      <tspan x="373.730963" y="-0.603438" style="font-size: 9.5px; font-family: 'DejaVu Sans'; fill: #5c6b7a"> </tspan>
      <tspan x="376.750739" y="-0.603438" style="font-size: 9.5px; font-family: 'DejaVu Sans'; fill: #5c6b7a"> </tspan>
      <tspan x="379.770514" y="-0.603438" style="font-size: 9.5px; font-family: 'DejaVu Sans'; fill: #5c6b7a">M</tspan>
      <tspan x="387.967047" y="-0.603438" style="font-size: 9.5px; font-family: 'DejaVu Sans'; fill: #5c6b7a">u</tspan>
      <tspan x="393.988043" y="-0.603438" style="font-size: 9.5px; font-family: 'DejaVu Sans'; fill: #5c6b7a">l</tspan>
      <tspan x="396.627448" y="-0.603438" style="font-size: 9.5px; font-family: 'DejaVu Sans'; fill: #5c6b7a">t</tspan>
      <tspan x="400.352301" y="-0.603438" style="font-size: 9.5px; font-family: 'DejaVu Sans'; fill: #5c6b7a">i</tspan>
      <tspan x="402.991705" y="-0.603438" style="font-size: 9.5px; font-family: 'DejaVu Sans'; fill: #5c6b7a">p</tspan>
      <tspan x="409.021979" y="-0.603438" style="font-size: 9.5px; font-family: 'DejaVu Sans'; fill: #5c6b7a">l</tspan>
      <tspan x="411.661383" y="-0.603438" style="font-size: 9.5px; font-family: 'DejaVu Sans'; fill: #5c6b7a">i</tspan>
      <tspan x="414.300787" y="-0.603438" style="font-size: 9.5px; font-family: 'DejaVu Sans'; fill: #5c6b7a">c</tspan>
      <tspan x="419.523932" y="-0.603438" style="font-size: 9.5px; font-family: 'DejaVu Sans'; fill: #5c6b7a">a</tspan>
      <tspan x="425.345465" y="-0.603438" style="font-size: 9.5px; font-family: 'DejaVu Sans'; fill: #5c6b7a">t</tspan>
      <tspan x="429.070319" y="-0.603438" style="font-size: 9.5px; font-family: 'DejaVu Sans'; fill: #5c6b7a">i</tspan>
      <tspan x="431.709723" y="-0.603438" style="font-size: 9.5px; font-family: 'DejaVu Sans'; fill: #5c6b7a">v</tspan>
      <tspan x="437.331793" y="-0.603438" style="font-size: 9.5px; font-family: 'DejaVu Sans'; fill: #5c6b7a">e</tspan>
      <tspan x="443.17652" y="-0.603438" style="font-size: 9.5px; font-family: 'DejaVu Sans'; fill: #5c6b7a"> </tspan>
      <tspan x="446.196295" y="-0.603438" style="font-size: 9.5px; font-family: 'DejaVu Sans'; fill: #5c6b7a">n</tspan>
      <tspan x="452.217291" y="-0.603438" style="font-size: 9.5px; font-family: 'DejaVu Sans'; fill: #5c6b7a">o</tspan>
      <tspan x="458.029547" y="-0.603438" style="font-size: 9.5px; font-family: 'DejaVu Sans'; fill: #5c6b7a">i</tspan>
      <tspan x="460.668951" y="-0.603438" style="font-size: 9.5px; font-family: 'DejaVu Sans'; fill: #5c6b7a">s</tspan>
      <tspan x="465.618414" y="-0.603438" style="font-size: 9.5px; font-family: 'DejaVu Sans'; fill: #5c6b7a">e</tspan>
      <tspan x="471.463141" y="-0.603438" style="font-size: 9.5px; font-family: 'DejaVu Sans'; fill: #5c6b7a">:</tspan>
      <tspan x="474.663824" y="-0.603438" style="font-size: 9.5px; font-family: 'DejaVu Sans'; fill: #5c6b7a"> </tspan>
      <tspan x="477.6836" y="-0.603438" style="font-size: 9.5px; font-family: 'DejaVu Sans'; fill: #5c6b7a">w</tspan>
      <tspan x="485.453375" y="-0.603438" style="font-size: 9.5px; font-family: 'DejaVu Sans'; fill: #5c6b7a">'</tspan>
      <tspan x="488.064948" y="-0.603438" style="font-size: 9.5px; font-family: 'DejaVu Sans'; fill: #5c6b7a"> </tspan>
      <tspan x="491.084723" y="-0.603438" style="font-size: 9.5px; font-family: 'DejaVu Sans'; fill: #5c6b7a">=</tspan>
      <tspan x="499.044684" y="-0.603438" style="font-size: 9.5px; font-family: 'DejaVu Sans'; fill: #5c6b7a"> </tspan>
      <tspan x="502.064459" y="-0.603438" style="font-size: 9.5px; font-family: 'DejaVu Sans'; fill: #5c6b7a">w</tspan>
      <tspan x="509.834235" y="-0.603438" style="font-size: 9.5px; font-family: 'DejaVu Sans'; fill: #5c6b7a"> </tspan>
      <tspan x="512.85401" y="-0.603438" style="font-size: 9.5px; font-family: 'DejaVu Sans'; fill: #5c6b7a">(</tspan>
      <tspan x="516.560309" y="-0.603438" style="font-size: 9.5px; font-family: 'DejaVu Sans'; fill: #5c6b7a">1</tspan>
      <tspan x="522.604498" y="-0.603438" style="font-size: 9.5px; font-family: 'DejaVu Sans'; fill: #5c6b7a"> </tspan>
      <tspan x="525.624274" y="-0.603438" style="font-size: 9.5px; font-family: 'DejaVu Sans'; fill: #5c6b7a">+</tspan>
      <tspan x="533.584235" y="-0.603438" style="font-size: 9.5px; font-family: 'DejaVu Sans'; fill: #5c6b7a"> </tspan>
      <tspan x="536.60401" y="-0.603438" style="font-size: 9.5px; font-family: 'DejaVu Sans'; fill: #5c6b7a">σ</tspan>
      <tspan x="542.625006" y="-0.603438" style="font-size: 9.5px; font-family: 'DejaVu Sans'; fill: #5c6b7a"> </tspan>
      <tspan x="545.644781" y="-0.603438" style="font-size: 9.5px; font-family: 'DejaVu Sans'; fill: #5c6b7a">·</tspan>
      <tspan x="548.664557" y="-0.603438" style="font-size: 9.5px; font-family: 'DejaVu Sans'; fill: #5c6b7a"> </tspan>
      <tspan x="551.684332" y="-0.603438" style="font-size: 9.5px; font-family: 'DejaVu Sans'; fill: #5c6b7a">N</tspan>
      <tspan x="558.790778" y="-0.603438" style="font-size: 9.5px; font-family: 'DejaVu Sans'; fill: #5c6b7a">(</tspan>
      <tspan x="562.497076" y="-0.603438" style="font-size: 9.5px; font-family: 'DejaVu Sans'; fill: #5c6b7a">0</tspan>
      <tspan x="568.541266" y="-0.603438" style="font-size: 9.5px; font-family: 'DejaVu Sans'; fill: #5c6b7a">,</tspan>
      <tspan x="571.561041" y="-0.603438" style="font-size: 9.5px; font-family: 'DejaVu Sans'; fill: #5c6b7a">1</tspan>
      <tspan x="577.605231" y="-0.603438" style="font-size: 9.5px; font-family: 'DejaVu Sans'; fill: #5c6b7a">)</tspan>
      <tspan x="581.31153" y="-0.603438" style="font-size: 9.5px; font-family: 'DejaVu Sans'; fill: #5c6b7a">)</tspan>
      <tspan x="585.017828" y="-0.603438" style="font-size: 9.5px; font-family: 'DejaVu Sans'; fill: #5c6b7a">.</tspan>
      <tspan x="152.626221" y="-0.603438" style="font-style: oblique; font-size: 9.5px; font-family: 'DejaVu Sans'; fill: #5c6b7a">σ</tspan>
      <tspan x="236.634576" y="-0.109375" style="font-style: oblique; font-size: 9.5px; font-family: 'DejaVu Sans'; fill: #5c6b7a">N</tspan>
      <tspan x="262.421173" y="-0.109375" style="font-style: oblique; font-size: 9.5px; font-family: 'DejaVu Sans'; fill: #5c6b7a">N</tspan>
      <tspan x="158.647217" y="1.037187" style="font-size: 6.65px; font-family: 'DejaVu Sans'; fill: #5c6b7a">f</tspan>
      <tspan x="160.988354" y="1.037187" style="font-size: 6.65px; font-family: 'DejaVu Sans'; fill: #5c6b7a">u</tspan>
      <tspan x="165.203052" y="1.037187" style="font-size: 6.65px; font-family: 'DejaVu Sans'; fill: #5c6b7a">l</tspan>
      <tspan x="167.050635" y="1.037187" style="font-size: 6.65px; font-family: 'DejaVu Sans'; fill: #5c6b7a">l</tspan>
      <tspan x="243.741022" y="1.53125" style="font-size: 6.65px; font-family: 'DejaVu Sans'; fill: #5c6b7a">t</tspan>
      <tspan x="246.348419" y="1.53125" style="font-size: 6.65px; font-family: 'DejaVu Sans'; fill: #5c6b7a">o</tspan>
      <tspan x="250.416998" y="1.53125" style="font-size: 6.65px; font-family: 'DejaVu Sans'; fill: #5c6b7a">t</tspan>
      <tspan x="253.024396" y="1.53125" style="font-size: 6.65px; font-family: 'DejaVu Sans'; fill: #5c6b7a">a</tspan>
      <tspan x="257.099469" y="1.53125" style="font-size: 6.65px; font-family: 'DejaVu Sans'; fill: #5c6b7a">l</tspan>
      <tspan x="269.527618" y="1.53125" style="font-size: 6.65px; font-family: 'DejaVu Sans'; fill: #5c6b7a">g</tspan>
      <tspan x="273.74881" y="1.53125" style="font-size: 6.65px; font-family: 'DejaVu Sans'; fill: #5c6b7a">r</tspan>
      <tspan x="276.482843" y="1.53125" style="font-size: 6.65px; font-family: 'DejaVu Sans'; fill: #5c6b7a">o</tspan>
      <tspan x="280.551422" y="1.53125" style="font-size: 6.65px; font-family: 'DejaVu Sans'; fill: #5c6b7a">u</tspan>
      <tspan x="284.766119" y="1.53125" style="font-size: 6.65px; font-family: 'DejaVu Sans'; fill: #5c6b7a">p</tspan>
      <tspan x="228.1802" y="0.429375" style="font-size: 6.872631px; font-family: 'STIXSizeOneSym'; fill: #5c6b7a">√</tspan>
     </text>
     <rect x="235.447076" y="-10.8125" width="55.001172" height="0.59375"/>
    </g>
   </g>
   <g id="text_3">
    <text style="font-weight: 700; font-size: 14px; font-family: 'Helvetica', 'Arial', 'DejaVu Sans', sans-serif; text-anchor: start; fill: #1f2a36" x="25.308" y="160.037813" transform="rotate(-0 25.308 160.037813)">Aurora</text>
   </g>
   <g id="text_4">
    <text style="font-style: italic; font-size: 8px; font-family: 'Helvetica', 'Arial', 'DejaVu Sans', sans-serif; text-anchor: start; fill: #5c6b7a" x="25.308" y="174.88275" transform="rotate(-0 25.308 174.88275)">Swin-Transformer 3D U-Net</text>
   </g>
   <g id="text_5">
    <text style="font-size: 8px; font-family: 'Helvetica', 'Arial', 'DejaVu Sans', sans-serif; text-anchor: start; fill: #1f2a36" x="25.308" y="194.28675" transform="rotate(-0 25.308 194.28675)">N_total = 644</text>
   </g>
   <g id="patch_22">
    <path d="M 195.240708 204.2856
L 322.234149 204.2856
Q 335.291349 204.2856 335.291349 194.3064
L 335.291349 115.5816
Q 335.291349 105.6024 322.234149 105.6024
L 195.240708 105.6024
Q 182.183508 105.6024 182.183508 115.5816
L 182.183508 194.3064
Q 182.183508 204.2856 195.240708 204.2856
z
" clip-path="url(#p5cc28abf8d)" style="fill: #ffffff; opacity: 0.18"/>
   </g>
   <g id="patch_23">
    <path d="M 370.110549 204.2856
L 552.911349 204.2856
Q 565.968549 204.2856 565.968549 194.3064
L 565.968549 115.5816
Q 565.968549 105.6024 552.911349 105.6024
L 370.110549 105.6024
Q 357.053349 105.6024 357.053349 115.5816
L 357.053349 194.3064
Q 357.053349 204.2856 370.110549 204.2856
z
" clip-path="url(#p5cc28abf8d)" style="fill: #ffffff; opacity: 0.18"/>
   </g>
   <g id="patch_24">
    <path d="M 600.787749 204.2856
L 714.974292 204.2856
Q 728.031492 204.2856 728.031492 194.3064
L 728.031492 115.5816
Q 728.031492 105.6024 714.974292 105.6024
L 600.787749 105.6024
Q 587.730549 105.6024 587.730549 115.5816
L 587.730549 194.3064
Q 587.730549 204.2856 600.787749 204.2856
z
" clip-path="url(#p5cc28abf8d)" style="fill: #ffffff; opacity: 0.18"/>
   </g>
   <g id="text_6">
    <text style="font-weight: 700; font-size: 14px; font-family: 'Helvetica', 'Arial', 'DejaVu Sans', sans-serif; text-anchor: start; fill: #1f2a36" x="25.308" y="315.269813" transform="rotate(-0 25.308 315.269813)">SFNO</text>
   </g>
   <g id="text_7">
    <text style="font-style: italic; font-size: 8px; font-family: 'Helvetica', 'Arial', 'DejaVu Sans', sans-serif; text-anchor: start; fill: #5c6b7a" x="25.308" y="330.11475" transform="rotate(-0 25.308 330.11475)">Spherical Fourier Neural Operator</text>
   </g>
   <g id="text_8">
    <text style="font-size: 8px; font-family: 'Helvetica', 'Arial', 'DejaVu Sans', sans-serif; text-anchor: start; fill: #1f2a36" x="25.308" y="349.51875" transform="rotate(-0 25.308 349.51875)">N_total = 87</text>
   </g>
   <g id="patch_25">
    <path d="M 200.81114 359.5176
L 281.505969 359.5176
Q 294.563169 359.5176 294.563169 349.5384
L 294.563169 270.8136
Q 294.563169 260.8344 281.505969 260.8344
L 200.81114 260.8344
Q 187.75394 260.8344 187.75394 270.8136
L 187.75394 349.5384
Q 187.75394 359.5176 200.81114 359.5176
z
" clip-path="url(#p5cc28abf8d)" style="fill: #ffffff; opacity: 0.18"/>
   </g>
   <g id="patch_26">
    <path d="M 329.382369 359.5176
L 473.473431 359.5176
Q 486.530631 359.5176 486.530631 349.5384
L 486.530631 270.8136
Q 486.530631 260.8344 473.473431 260.8344
L 329.382369 260.8344
Q 316.325169 260.8344 316.325169 270.8136
L 316.325169 349.5384
Q 316.325169 359.5176 329.382369 359.5176
z
" clip-path="url(#p5cc28abf8d)" style="fill: #ffffff; opacity: 0.18"/>
   </g>
   <g id="patch_27">
    <path d="M 521.349831 359.5176
L 602.04466 359.5176
Q 615.10186 359.5176 615.10186 349.5384
L 615.10186 270.8136
Q 615.10186 260.8344 602.04466 260.8344
L 521.349831 260.8344
Q 508.292631 260.8344 508.292631 270.8136
L 508.292631 349.5384
Q 508.292631 359.5176 521.349831 359.5176
z
" clip-path="url(#p5cc28abf8d)" style="fill: #ffffff; opacity: 0.18"/>
   </g>
   <g id="patch_28">
    <path d="M 649.92106 359.5176
L 709.40386 359.5176
Q 722.46106 359.5176 722.46106 349.5384
L 722.46106 270.8136
Q 722.46106 260.8344 709.40386 260.8344
L 649.92106 260.8344
Q 636.86386 260.8344 636.86386 270.8136
L 636.86386 349.5384
Q 636.86386 359.5176 649.92106 359.5176
z
" clip-path="url(#p5cc28abf8d)" style="fill: #ffffff; opacity: 0.18"/>
   </g>
   <g id="PathCollection_1">
    <defs>
     <path id="m44d9dbf041" d="M 0 1.224745
C 0.324806 1.224745 0.636353 1.095698 0.866025 0.866025
C 1.095698 0.636353 1.224745 0.324806 1.224745 0
C 1.224745 -0.324806 1.095698 -0.636353 0.866025 -0.866025
C 0.636353 -1.095698 0.324806 -1.224745 0 -1.224745
C -0.324806 -1.224745 -0.636353 -1.095698 -0.866025 -0.866025
C -1.095698 -0.636353 -1.224745 -0.324806 -1.224745 0
C -1.224745 0.324806 -1.095698 0.636353 -0.866025 0.866025
C -0.636353 1.095698 -0.324806 1.224745 0 1.224745
z
" style="stroke: #1f2a36; stroke-width: 0.4"/>
    </defs>
    <g clip-path="url(#p5cc28abf8d)">
     <use xlink:href="#m44d9dbf041" x="50.697" y="418.06224" style="fill: #2c7a8c; stroke: #1f2a36; stroke-width: 0.4"/>
     <use xlink:href="#m44d9dbf041" x="41.12172" y="424.16064" style="fill: #2c7a8c; stroke: #1f2a36; stroke-width: 0.4"/>
     <use xlink:href="#m44d9dbf041" x="60.27228" y="424.16064" style="fill: #2c7a8c; stroke: #1f2a36; stroke-width: 0.4"/>
     <use xlink:href="#m44d9dbf041" x="45.11142" y="430.86888" style="fill: #2c7a8c; stroke: #1f2a36; stroke-width: 0.4"/>
     <use xlink:href="#m44d9dbf041" x="56.28258" y="430.86888" style="fill: #2c7a8c; stroke: #1f2a36; stroke-width: 0.4"/>
     <use xlink:href="#m44d9dbf041" x="50.697" y="435.13776" style="fill: #2c7a8c; stroke: #1f2a36; stroke-width: 0.4"/>
     <use xlink:href="#m44d9dbf041" x="50.697" y="426.6" style="fill: #2c7a8c; stroke: #1f2a36; stroke-width: 0.4"/>
    </g>
   </g>
   <g id="text_9">
    <text style="font-weight: 700; font-size: 14px; font-family: 'Helvetica', 'Arial', 'DejaVu Sans', sans-serif; text-anchor: start; fill: #1f2a36" x="25.308" y="470.501813" transform="rotate(-0 25.308 470.501813)">GraphCast</text>
   </g>
   <g id="text_10">
    <text style="font-style: italic; font-size: 8px; font-family: 'Helvetica', 'Arial', 'DejaVu Sans', sans-serif; text-anchor: start; fill: #5c6b7a" x="25.308" y="485.34675" transform="rotate(-0 25.308 485.34675)">Multi-Mesh Graph Neural Network</text>
   </g>
   <g id="text_11">
    <text style="font-size: 8px; font-family: 'Helvetica', 'Arial', 'DejaVu Sans', sans-serif; text-anchor: start; fill: #1f2a36" x="25.308" y="504.75075" transform="rotate(-0 25.308 504.75075)">N_total = 264</text>
   </g>
   <g id="patch_29">
    <path d="M 199.52339 514.7496
L 328.196849 514.7496
Q 341.254049 514.7496 341.254049 504.7704
L 341.254049 426.0456
Q 341.254049 416.0664 328.196849 416.0664
L 199.52339 416.0664
Q 186.46619 416.0664 186.46619 426.0456
L 186.46619 504.7704
Q 186.46619 514.7496 199.52339 514.7496
z
" clip-path="url(#p5cc28abf8d)" style="fill: #ffffff; opacity: 0.18"/>
   </g>
   <g id="patch_30">
    <path d="M 376.073249 514.7496
L 537.66202 514.7496
Q 550.71922 514.7496 550.71922 504.7704
L 550.71922 426.0456
Q 550.71922 416.0664 537.66202 416.0664
L 376.073249 416.0664
Q 363.016049 416.0664 363.016049 426.0456
L 363.016049 504.7704
Q 363.016049 514.7496 376.073249 514.7496
z
" clip-path="url(#p5cc28abf8d)" style="fill: #ffffff; opacity: 0.18"/>
   </g>
   <g id="patch_31">
    <path d="M 585.53842 514.7496
L 710.69161 514.7496
Q 723.74881 514.7496 723.74881 504.7704
L 723.74881 426.0456
Q 723.74881 416.0664 710.69161 416.0664
L 585.53842 416.0664
Q 572.48122 416.0664 572.48122 426.0456
L 572.48122 504.7704
Q 572.48122 514.7496 585.53842 514.7496
z
" clip-path="url(#p5cc28abf8d)" style="fill: #ffffff; opacity: 0.18"/>
   </g>
   <g id="text_12">
    <text style="font-weight: 700; font-size: 10px; font-family: 'Helvetica', 'Arial', 'DejaVu Sans', sans-serif; text-anchor: start; fill: #e08b3a" x="25.308" y="556.467513" transform="rotate(-0 25.308 556.467513)">encoder</text>
   </g>
   <g id="text_13">
    <text style="font-weight: 700; font-size: 10px; font-family: 'Helvetica', 'Arial', 'DejaVu Sans', sans-serif; text-anchor: start; fill: #2c7a8c" x="105.102" y="556.467513" transform="rotate(-0 105.102 556.467513)">processor</text>
   </g>
   <g id="text_14">
    <text style="font-weight: 700; font-size: 10px; font-family: 'Helvetica', 'Arial', 'DejaVu Sans', sans-serif; text-anchor: start; fill: #7bb369" x="184.896" y="556.467513" transform="rotate(-0 184.896 556.467513)">decoder</text>
   </g>
   <g id="text_15">
    <text style="font-weight: 700; font-size: 10px; font-family: 'Helvetica', 'Arial', 'DejaVu Sans', sans-serif; text-anchor: start; fill: #a0a0a0" x="264.69" y="556.467513" transform="rotate(-0 264.69 556.467513)">aux / residual</text>
   </g>
   <g id="text_16">
    <text style="font-size: 9px; font-family: 'Helvetica', 'Arial', 'DejaVu Sans', sans-serif; text-anchor: start; fill: #1f2a36" x="384.381" y="556.675481" transform="rotate(-0 384.381 556.675481)">= Gaussian noise injection on every learnable tensor in the group</text>
   </g>
   <g id="patch_32">
    <path d="M 341.642496 154.944
Q 346.17144 154.944 349.135137 154.944
" clip-path="url(#p5cc28abf8d)" style="fill: none; stroke: #5c6b7a; stroke-width: 1.4; stroke-linecap: round"/>
    <path d="M 344.335137 152.544
L 349.135137 154.944
L 344.335137 157.344
z
" clip-path="url(#p5cc28abf8d)" style="fill: #5c6b7a; stroke: #5c6b7a; stroke-width: 1.4; stroke-linecap: round"/>
   </g>
   <g id="patch_33">
    <path d="M 572.319696 154.944
Q 576.84864 154.944 579.812337 154.944
" clip-path="url(#p5cc28abf8d)" style="fill: none; stroke: #5c6b7a; stroke-width: 1.4; stroke-linecap: round"/>
    <path d="M 575.012337 152.544
L 579.812337 154.944
L 575.012337 157.344
z
" clip-path="url(#p5cc28abf8d)" style="fill: #5c6b7a; stroke: #5c6b7a; stroke-width: 1.4; stroke-linecap: round"/>
   </g>
   <g id="patch_34">
    <path d="M 300.914315 310.176
Q 305.443259 310.176 308.406956 310.176
" clip-path="url(#p5cc28abf8d)" style="fill: none; stroke: #5c6b7a; stroke-width: 1.4; stroke-linecap: round"/>
    <path d="M 303.606956 307.776
L 308.406956 310.176
L 303.606956 312.576
z
" clip-path="url(#p5cc28abf8d)" style="fill: #5c6b7a; stroke: #5c6b7a; stroke-width: 1.4; stroke-linecap: round"/>
   </g>
   <g id="patch_35">
    <path d="M 492.881777 310.176
Q 497.410722 310.176 500.374419 310.176
" clip-path="url(#p5cc28abf8d)" style="fill: none; stroke: #5c6b7a; stroke-width: 1.4; stroke-linecap: round"/>
    <path d="M 495.574419 307.776
L 500.374419 310.176
L 495.574419 312.576
z
" clip-path="url(#p5cc28abf8d)" style="fill: #5c6b7a; stroke: #5c6b7a; stroke-width: 1.4; stroke-linecap: round"/>
   </g>
   <g id="patch_36">
    <path d="M 621.453006 310.176
Q 625.981951 310.176 628.945648 310.176
" clip-path="url(#p5cc28abf8d)" style="fill: none; stroke: #5c6b7a; stroke-width: 1.4; stroke-linecap: round"/>
    <path d="M 624.145648 307.776
L 628.945648 310.176
L 624.145648 312.576
z
" clip-path="url(#p5cc28abf8d)" style="fill: #5c6b7a; stroke: #5c6b7a; stroke-width: 1.4; stroke-linecap: round"/>
   </g>
   <g id="patch_37">
    <path d="M 347.605195 465.408
Q 352.134139 465.408 355.097836 465.408
" clip-path="url(#p5cc28abf8d)" style="fill: none; stroke: #5c6b7a; stroke-width: 1.4; stroke-linecap: round"/>
    <path d="M 350.297836 463.008
L 355.097836 465.408
L 350.297836 467.808
z
" clip-path="url(#p5cc28abf8d)" style="fill: #5c6b7a; stroke: #5c6b7a; stroke-width: 1.4; stroke-linecap: round"/>
   </g>
   <g id="patch_38">
    <path d="M 557.070366 465.408
Q 561.59931 465.408 564.563007 465.408
" clip-path="url(#p5cc28abf8d)" style="fill: none; stroke: #5c6b7a; stroke-width: 1.4; stroke-linecap: round"/>
    <path d="M 559.763007 463.008
L 564.563007 465.408
L 559.763007 467.808
z
" clip-path="url(#p5cc28abf8d)" style="fill: #5c6b7a; stroke: #5c6b7a; stroke-width: 1.4; stroke-linecap: round"/>
   </g>
   <g id="text_17">
    <text style="font-weight: 700; font-size: 11px; font-family: 'Helvetica', 'Arial', 'DejaVu Sans', sans-serif; text-anchor: middle; fill: #ffffff" x="258.737429" y="120.058353" transform="rotate(-0 258.737429 120.058353)">encoder</text>
   </g>
   <g id="text_18">
    <text style="font-size: 9px; font-family: 'Helvetica', 'Arial', 'DejaVu Sans', sans-serif; text-anchor: middle; fill: #ffffff; opacity: 0.97" x="258.737429" y="138.466958" transform="rotate(-0 258.737429 138.466958)">N = 33</text>
   </g>
   <g id="text_19">
    <text style="font-size: 8.5px; font-family: 'Helvetica', 'Arial', 'DejaVu Sans', sans-serif; text-anchor: middle; fill: #ffffff; opacity: 0.97" x="258.737429" y="155.182749" transform="rotate(-0 258.737429 155.182749)">σ = 0.0442</text>
   </g>
   <g id="text_20">
    <text style="font-style: italic; font-size: 6.5px; font-family: 'Helvetica', 'Arial', 'DejaVu Sans', sans-serif; fill: #ffffff; opacity: 0.92" transform="translate(238.981999 192.69493)">Perceiver-IO</text>
    <text style="font-style: italic; font-size: 6.5px; font-family: 'Helvetica', 'Arial', 'DejaVu Sans', sans-serif; fill: #ffffff; opacity: 0.92" transform="translate(201.768991 199.759262)">14 embed | 6 norm | 7 attn | 6 MLP</text>
   </g>
   <g id="line2d_67">
    <path d="M 218.284268 92.715531
L 219.655562 92.668081
L 221.026855 92.60658
L 222.398149 92.527785
L 223.769443 92.428008
L 225.140736 92.303147
L 226.51203 92.148748
L 227.883323 91.960115
L 229.254617 91.732458
L 230.62591 91.461089
L 231.997204 91.141666
L 233.368498 90.770475
L 234.739791 90.344744
L 236.111085 89.86297
L 237.482378 89.325246
L 238.853672 88.733566
L 240.224965 88.092071
L 241.596259 87.407228
L 242.967553 86.687907
L 244.338846 85.945332
L 245.71014 85.192899
L 247.081433 84.445863
L 248.452727 83.720872
L 249.82402 83.035387
L 251.195314 82.407011
L 252.566608 81.852742
L 253.937901 81.388223
L 255.309195 81.027003
L 256.680488 80.779888
L 258.051782 80.6544
L 259.423075 80.6544
L 260.794369 80.779888
L 262.165663 81.027003
L 263.536956 81.388223
L 264.90825 81.852742
L 266.279543 82.407011
L 267.650837 83.035387
L 269.02213 83.720872
L 270.393424 84.445863
L 271.764718 85.192899
L 273.136011 85.945332
L 274.507305 86.687907
L 275.878598 87.407228
L 277.249892 88.092071
L 278.621185 88.733566
L 279.992479 89.325246
L 281.363773 89.86297
L 282.735066 90.344744
L 284.10636 90.770475
L 285.477653 91.141666
L 286.848947 91.461089
L 288.22024 91.732458
L 289.591534 91.960115
L 290.962828 92.148748
L 292.334121 92.303147
L 293.705415 92.428008
L 295.076708 92.527785
L 296.448002 92.60658
L 297.819295 92.668081
L 299.190589 92.715531
" clip-path="url(#p5cc28abf8d)" style="fill: none; stroke: #c2493d; stroke-opacity: 0.85; stroke-width: 0.9; stroke-linecap: square"/>
   </g>
   <g id="text_21">
    <text style="font-weight: 700; font-size: 11px; font-family: 'Helvetica', 'Arial', 'DejaVu Sans', sans-serif; text-anchor: middle; fill: #ffffff" x="461.510949" y="120.058353" transform="rotate(-0 461.510949 120.058353)">backbone</text>
   </g>
   <g id="text_22">
    <text style="font-size: 9px; font-family: 'Helvetica', 'Arial', 'DejaVu Sans', sans-serif; text-anchor: middle; fill: #ffffff; opacity: 0.97" x="461.510949" y="138.466958" transform="rotate(-0 461.510949 138.466958)">N = 594</text>
   </g>
   <g id="text_23">
    <text style="font-size: 8.5px; font-family: 'Helvetica', 'Arial', 'DejaVu Sans', sans-serif; text-anchor: middle; fill: #ffffff; opacity: 0.97" x="461.510949" y="155.182749" transform="rotate(-0 461.510949 155.182749)">σ = 0.0104</text>
   </g>
   <g id="text_24">
    <text style="font-style: italic; font-size: 6.5px; font-family: 'Helvetica', 'Arial', 'DejaVu Sans', sans-serif; fill: #ffffff; opacity: 0.92" transform="translate(431.566262 185.876785)">48 Swin-3D blocks</text>
    <text style="font-style: italic; font-size: 6.5px; font-family: 'Helvetica', 'Arial', 'DejaVu Sans', sans-serif; fill: #ffffff; opacity: 0.92" transform="translate(420.246613 192.908414)">attn (192) + MLP (192) +</text>
    <text style="font-style: italic; font-size: 6.5px; font-family: 'Helvetica', 'Arial', 'DejaVu Sans', sans-serif; fill: #ffffff; opacity: 0.92" transform="translate(400.422629 199.940043)">LayerNorm (192) + AdaLN mod (192)</text>
   </g>
   <g id="line2d_68">
    <path d="M 407.105949 92.715531
L 408.950187 92.668081
L 410.794424 92.60658
L 412.638661 92.527785
L 414.482898 92.428008
L 416.327136 92.303147
L 418.171373 92.148748
L 420.01561 91.960115
L 421.859848 91.732458
L 423.704085 91.461089
L 425.548322 91.141666
L 427.39256 90.770475
L 429.236797 90.344744
L 431.081034 89.86297
L 432.925271 89.325246
L 434.769509 88.733566
L 436.613746 88.092071
L 438.457983 87.407228
L 440.302221 86.687907
L 442.146458 85.945332
L 443.990695 85.192899
L 445.834932 84.445863
L 447.67917 83.720872
L 449.523407 83.035387
L 451.367644 82.407011
L 453.211882 81.852742
L 455.056119 81.388223
L 456.900356 81.027003
L 458.744593 80.779888
L 460.588831 80.6544
L 462.433068 80.6544
L 464.277305 80.779888
L 466.121543 81.027003
L 467.96578 81.388223
L 469.810017 81.852742
L 471.654254 82.407011
L 473.498492 83.035387
L 475.342729 83.720872
L 477.186966 84.445863
L 479.031204 85.192899
L 480.875441 85.945332
L 482.719678 86.687907
L 484.563915 87.407228
L 486.408153 88.092071
L 488.25239 88.733566
L 490.096627 89.325246
L 491.940865 89.86297
L 493.785102 90.344744
L 495.629339 90.770475
L 497.473576 91.141666
L 499.317814 91.461089
L 501.162051 91.732458
L 503.006288 91.960115
L 504.850526 92.148748
L 506.694763 92.303147
L 508.539 92.428008
L 510.383237 92.527785
L 512.227475 92.60658
L 514.071712 92.668081
L 515.915949 92.715531
" clip-path="url(#p5cc28abf8d)" style="fill: none; stroke: #c2493d; stroke-opacity: 0.85; stroke-width: 0.9; stroke-linecap: square"/>
   </g>
   <g id="text_25">
    <text style="font-weight: 700; font-size: 11px; font-family: 'Helvetica', 'Arial', 'DejaVu Sans', sans-serif; text-anchor: middle; fill: #ffffff" x="657.881021" y="120.058353" transform="rotate(-0 657.881021 120.058353)">decoder</text>
   </g>
   <g id="text_26">
    <text style="font-size: 9px; font-family: 'Helvetica', 'Arial', 'DejaVu Sans', sans-serif; text-anchor: middle; fill: #ffffff; opacity: 0.97" x="657.881021" y="138.466958" transform="rotate(-0 657.881021 138.466958)">N = 17</text>
   </g>
   <g id="text_27">
    <text style="font-size: 8.5px; font-family: 'Helvetica', 'Arial', 'DejaVu Sans', sans-serif; text-anchor: middle; fill: #ffffff; opacity: 0.97" x="657.881021" y="155.182749" transform="rotate(-0 657.881021 155.182749)">σ = 0.0615</text>
   </g>
   <g id="text_28">
    <text style="font-style: italic; font-size: 6.5px; font-family: 'Helvetica', 'Arial', 'DejaVu Sans', sans-serif; fill: #ffffff; opacity: 0.92" transform="translate(626.373286 192.69493)">Perceiver-IO output</text>
    <text style="font-style: italic; font-size: 6.5px; font-family: 'Helvetica', 'Arial', 'DejaVu Sans', sans-serif; fill: #ffffff; opacity: 0.92" transform="translate(588.604732 199.759262)">2 embed | 4 norm | 3 attn | 4 MLP | 4 head</text>
   </g>
   <g id="line2d_69">
    <path d="M 620.629585 92.715531
L 621.892346 92.668081
L 623.155106 92.60658
L 624.417867 92.527785
L 625.680627 92.428008
L 626.943388 92.303147
L 628.206148 92.148748
L 629.468909 91.960115
L 630.731669 91.732458
L 631.99443 91.461089
L 633.25719 91.141666
L 634.519951 90.770475
L 635.782711 90.344744
L 637.045472 89.86297
L 638.308232 89.325246
L 639.570993 88.733566
L 640.833754 88.092071
L 642.096514 87.407228
L 643.359275 86.687907
L 644.622035 85.945332
L 645.884796 85.192899
L 647.147556 84.445863
L 648.410317 83.720872
L 649.673077 83.035387
L 650.935838 82.407011
L 652.198598 81.852742
L 653.461359 81.388223
L 654.724119 81.027003
L 655.98688 80.779888
L 657.24964 80.6544
L 658.512401 80.6544
L 659.775162 80.779888
L 661.037922 81.027003
L 662.300683 81.388223
L 663.563443 81.852742
L 664.826204 82.407011
L 666.088964 83.035387
L 667.351725 83.720872
L 668.614485 84.445863
L 669.877246 85.192899
L 671.140006 85.945332
L 672.402767 86.687907
L 673.665527 87.407228
L 674.928288 88.092071
L 676.191048 88.733566
L 677.453809 89.325246
L 678.716569 89.86297
L 679.97933 90.344744
L 681.242091 90.770475
L 682.504851 91.141666
L 683.767612 91.461089
L 685.030372 91.732458
L 686.293133 91.960115
L 687.555893 92.148748
L 688.818654 92.303147
L 690.081414 92.428008
L 691.344175 92.527785
L 692.606935 92.60658
L 693.869696 92.668081
L 695.132456 92.715531
" clip-path="url(#p5cc28abf8d)" style="fill: none; stroke: #c2493d; stroke-opacity: 0.85; stroke-width: 0.9; stroke-linecap: square"/>
   </g>
   <g id="text_29">
    <text style="font-weight: 700; font-size: 11px; font-family: 'Helvetica', 'Arial', 'DejaVu Sans', sans-serif; text-anchor: middle; fill: #ffffff" x="241.158554" y="275.290353" transform="rotate(-0 241.158554 275.290353)">encoder</text>
   </g>
   <g id="text_30">
    <text style="font-size: 9px; font-family: 'Helvetica', 'Arial', 'DejaVu Sans', sans-serif; text-anchor: middle; fill: #ffffff; opacity: 0.97" x="241.158554" y="293.698958" transform="rotate(-0 241.158554 293.698958)">N = 3</text>
   </g>
   <g id="text_31">
    <text style="font-size: 8.5px; font-family: 'Helvetica', 'Arial', 'DejaVu Sans', sans-serif; text-anchor: middle; fill: #ffffff; opacity: 0.97" x="241.158554" y="310.414749" transform="rotate(-0 241.158554 310.414749)">σ = 0.0539</text>
   </g>
   <g id="text_32">
    <text style="font-style: italic; font-size: 6.5px; font-family: 'Helvetica', 'Arial', 'DejaVu Sans', sans-serif; fill: #ffffff; opacity: 0.92" transform="translate(212.070039 348.140414)">Conv2d input proj</text>
    <text style="font-style: italic; font-size: 6.5px; font-family: 'Helvetica', 'Arial', 'DejaVu Sans', sans-serif; fill: #ffffff; opacity: 0.92" transform="translate(202.820234 355.172043)">(channels in -&gt; embed)</text>
   </g>
   <g id="line2d_70">
    <path d="M 212.280047 247.947531
L 213.258979 247.900081
L 214.237912 247.83858
L 215.216844 247.759785
L 216.195777 247.660008
L 217.174709 247.535147
L 218.153642 247.380748
L 219.132574 247.192115
L 220.111507 246.964458
L 221.090439 246.693089
L 222.069372 246.373666
L 223.048304 246.002475
L 224.027236 245.576744
L 225.006169 245.09497
L 225.985101 244.557246
L 226.964034 243.965566
L 227.942966 243.324071
L 228.921899 242.639228
L 229.900831 241.919907
L 230.879764 241.177332
L 231.858696 240.424899
L 232.837628 239.677863
L 233.816561 238.952872
L 234.795493 238.267387
L 235.774426 237.639011
L 236.753358 237.084742
L 237.732291 236.620223
L 238.711223 236.259003
L 239.690156 236.011888
L 240.669088 235.8864
L 241.648021 235.8864
L 242.626953 236.011888
L 243.605885 236.259003
L 244.584818 236.620223
L 245.56375 237.084742
L 246.542683 237.639011
L 247.521615 238.267387
L 248.500548 238.952872
L 249.47948 239.677863
L 250.458413 240.424899
L 251.437345 241.177332
L 252.416277 241.919907
L 253.39521 242.639228
L 254.374142 243.324071
L 255.353075 243.965566
L 256.332007 244.557246
L 257.31094 245.09497
L 258.289872 245.576744
L 259.268805 246.002475
L 260.247737 246.373666
L 261.22667 246.693089
L 262.205602 246.964458
L 263.184534 247.192115
L 264.163467 247.380748
L 265.142399 247.535147
L 266.121332 247.660008
L 267.100264 247.759785
L 268.079197 247.83858
L 269.058129 247.900081
L 270.037062 247.947531
" clip-path="url(#p5cc28abf8d)" style="fill: none; stroke: #c2493d; stroke-opacity: 0.85; stroke-width: 0.9; stroke-linecap: square"/>
   </g>
   <g id="text_33">
    <text style="font-weight: 700; font-size: 11px; font-family: 'Helvetica', 'Arial', 'DejaVu Sans', sans-serif; text-anchor: middle; fill: #ffffff" x="401.4279" y="275.290353" transform="rotate(-0 401.4279 275.290353)">processor</text>
   </g>
   <g id="text_34">
    <text style="font-size: 9px; font-family: 'Helvetica', 'Arial', 'DejaVu Sans', sans-serif; text-anchor: middle; fill: #ffffff; opacity: 0.97" x="401.4279" y="293.698958" transform="rotate(-0 401.4279 293.698958)">N = 80</text>
   </g>
   <g id="text_35">
    <text style="font-size: 8.5px; font-family: 'Helvetica', 'Arial', 'DejaVu Sans', sans-serif; text-anchor: middle; fill: #ffffff; opacity: 0.97" x="401.4279" y="310.414749" transform="rotate(-0 401.4279 310.414749)">σ = 0.0104</text>
   </g>
   <g id="text_36">
    <text style="font-style: italic; font-size: 6.5px; font-family: 'Helvetica', 'Arial', 'DejaVu Sans', sans-serif; fill: #ffffff; opacity: 0.92" transform="translate(347.982158 341.108785)">8 SFNO blocks x 10 tensors each</text>
    <text style="font-style: italic; font-size: 6.5px; font-family: 'Helvetica', 'Arial', 'DejaVu Sans', sans-serif; fill: #ffffff; opacity: 0.92" transform="translate(331.177627 348.140414)">1 complex64 spectral conv (384, 384, 240)</text>
    <text style="font-style: italic; font-size: 6.5px; font-family: 'Helvetica', 'Arial', 'DejaVu Sans', sans-serif; fill: #ffffff; opacity: 0.92" transform="translate(355.432275 355.172043)">+ 4 MLP + 4 norms + 1 skip</text>
   </g>
   <g id="line2d_71">
    <path d="M 356.700334 247.947531
L 358.216523 247.900081
L 359.732712 247.83858
L 361.2489 247.759785
L 362.765089 247.660008
L 364.281278 247.535147
L 365.797466 247.380748
L 367.313655 247.192115
L 368.829844 246.964458
L 370.346032 246.693089
L 371.862221 246.373666
L 373.37841 246.002475
L 374.894598 245.576744
L 376.410787 245.09497
L 377.926976 244.557246
L 379.443164 243.965566
L 380.959353 243.324071
L 382.475542 242.639228
L 383.99173 241.919907
L 385.507919 241.177332
L 387.024108 240.424899
L 388.540296 239.677863
L 390.056485 238.952872
L 391.572674 238.267387
L 393.088862 237.639011
L 394.605051 237.084742
L 396.12124 236.620223
L 397.637428 236.259003
L 399.153617 236.011888
L 400.669806 235.8864
L 402.185994 235.8864
L 403.702183 236.011888
L 405.218372 236.259003
L 406.73456 236.620223
L 408.250749 237.084742
L 409.766938 237.639011
L 411.283126 238.267387
L 412.799315 238.952872
L 414.315504 239.677863
L 415.831692 240.424899
L 417.347881 241.177332
L 418.86407 241.919907
L 420.380258 242.639228
L 421.896447 243.324071
L 423.412636 243.965566
L 424.928824 244.557246
L 426.445013 245.09497
L 427.961202 245.576744
L 429.47739 246.002475
L 430.993579 246.373666
L 432.509768 246.693089
L 434.025956 246.964458
L 435.542145 247.192115
L 437.058334 247.380748
L 438.574522 247.535147
L 440.090711 247.660008
L 441.6069 247.759785
L 443.123088 247.83858
L 444.639277 247.900081
L 446.155466 247.947531
" clip-path="url(#p5cc28abf8d)" style="fill: none; stroke: #c2493d; stroke-opacity: 0.85; stroke-width: 0.9; stroke-linecap: square"/>
   </g>
   <g id="text_37">
    <text style="font-weight: 700; font-size: 11px; font-family: 'Helvetica', 'Arial', 'DejaVu Sans', sans-serif; text-anchor: middle; fill: #ffffff" x="561.697246" y="275.290353" transform="rotate(-0 561.697246 275.290353)">decoder</text>
   </g>
   <g id="text_38">
    <text style="font-size: 9px; font-family: 'Helvetica', 'Arial', 'DejaVu Sans', sans-serif; text-anchor: middle; fill: #ffffff; opacity: 0.97" x="561.697246" y="293.698958" transform="rotate(-0 561.697246 293.698958)">N = 3</text>
   </g>
   <g id="text_39">
    <text style="font-size: 8.5px; font-family: 'Helvetica', 'Arial', 'DejaVu Sans', sans-serif; text-anchor: middle; fill: #ffffff; opacity: 0.97" x="561.697246" y="310.414749" transform="rotate(-0 561.697246 310.414749)">σ = 0.0539</text>
   </g>
   <g id="text_40">
    <text style="font-style: italic; font-size: 6.5px; font-family: 'Helvetica', 'Arial', 'DejaVu Sans', sans-serif; fill: #ffffff; opacity: 0.92" transform="translate(530.248925 348.140414)">Conv2d output proj</text>
    <text style="font-style: italic; font-size: 6.5px; font-family: 'Helvetica', 'Arial', 'DejaVu Sans', sans-serif; fill: #ffffff; opacity: 0.92" transform="translate(520.999121 355.172043)">(embed -&gt; channels out)</text>
   </g>
   <g id="line2d_72">
    <path d="M 532.818738 247.947531
L 533.797671 247.900081
L 534.776603 247.83858
L 535.755536 247.759785
L 536.734468 247.660008
L 537.713401 247.535147
L 538.692333 247.380748
L 539.671266 247.192115
L 540.650198 246.964458
L 541.62913 246.693089
L 542.608063 246.373666
L 543.586995 246.002475
L 544.565928 245.576744
L 545.54486 245.09497
L 546.523793 244.557246
L 547.502725 243.965566
L 548.481658 243.324071
L 549.46059 242.639228
L 550.439523 241.919907
L 551.418455 241.177332
L 552.397387 240.424899
L 553.37632 239.677863
L 554.355252 238.952872
L 555.334185 238.267387
L 556.313117 237.639011
L 557.29205 237.084742
L 558.270982 236.620223
L 559.249915 236.259003
L 560.228847 236.011888
L 561.207779 235.8864
L 562.186712 235.8864
L 563.165644 236.011888
L 564.144577 236.259003
L 565.123509 236.620223
L 566.102442 237.084742
L 567.081374 237.639011
L 568.060307 238.267387
L 569.039239 238.952872
L 570.018172 239.677863
L 570.997104 240.424899
L 571.976036 241.177332
L 572.954969 241.919907
L 573.933901 242.639228
L 574.912834 243.324071
L 575.891766 243.965566
L 576.870699 244.557246
L 577.849631 245.09497
L 578.828564 245.576744
L 579.807496 246.002475
L 580.786428 246.373666
L 581.765361 246.693089
L 582.744293 246.964458
L 583.723226 247.192115
L 584.702158 247.380748
L 585.681091 247.535147
L 586.660023 247.660008
L 587.638956 247.759785
L 588.617888 247.83858
L 589.596821 247.900081
L 590.575753 247.947531
" clip-path="url(#p5cc28abf8d)" style="fill: none; stroke: #c2493d; stroke-opacity: 0.85; stroke-width: 0.9; stroke-linecap: square"/>
   </g>
   <g id="text_41">
    <text style="font-weight: 700; font-size: 11px; font-family: 'Helvetica', 'Arial', 'DejaVu Sans', sans-serif; text-anchor: middle; fill: #ffffff" x="679.66246" y="275.290353" transform="rotate(-0 679.66246 275.290353)">residual</text>
   </g>
   <g id="text_42">
    <text style="font-size: 9px; font-family: 'Helvetica', 'Arial', 'DejaVu Sans', sans-serif; text-anchor: middle; fill: #ffffff; opacity: 0.97" x="679.66246" y="293.698958" transform="rotate(-0 679.66246 293.698958)">N = 1</text>
   </g>
   <g id="text_43">
    <text style="font-size: 8.5px; font-family: 'Helvetica', 'Arial', 'DejaVu Sans', sans-serif; text-anchor: middle; fill: #ffffff; opacity: 0.97" x="679.66246" y="310.414749" transform="rotate(-0 679.66246 310.414749)">σ = 0.0933</text>
   </g>
   <g id="text_44">
    <text style="font-style: italic; font-size: 6.5px; font-family: 'Helvetica', 'Arial', 'DejaVu Sans', sans-serif; fill: #ffffff; opacity: 0.92" transform="translate(661.987538 348.140414)">Linear skip</text>
    <text style="font-style: italic; font-size: 6.5px; font-family: 'Helvetica', 'Arial', 'DejaVu Sans', sans-serif; fill: #ffffff; opacity: 0.92" transform="translate(652.085702 355.172043)">(input -&gt; output)</text>
   </g>
   <g id="line2d_73">
    <path d="M 656.08696 247.947531
L 656.88613 247.900081
L 657.685299 247.83858
L 658.484469 247.759785
L 659.283638 247.660008
L 660.082808 247.535147
L 660.881977 247.380748
L 661.681147 247.192115
L 662.480316 246.964458
L 663.279486 246.693089
L 664.078655 246.373666
L 664.877825 246.002475
L 665.676994 245.576744
L 666.476164 245.09497
L 667.275333 244.557246
L 668.074503 243.965566
L 668.873672 243.324071
L 669.672842 242.639228
L 670.472011 241.919907
L 671.271181 241.177332
L 672.07035 240.424899
L 672.86952 239.677863
L 673.668689 238.952872
L 674.467859 238.267387
L 675.267028 237.639011
L 676.066198 237.084742
L 676.865367 236.620223
L 677.664537 236.259003
L 678.463706 236.011888
L 679.262876 235.8864
L 680.062045 235.8864
L 680.861215 236.011888
L 681.660384 236.259003
L 682.459553 236.620223
L 683.258723 237.084742
L 684.057892 237.639011
L 684.857062 238.267387
L 685.656231 238.952872
L 686.455401 239.677863
L 687.25457 240.424899
L 688.05374 241.177332
L 688.852909 241.919907
L 689.652079 242.639228
L 690.451248 243.324071
L 691.250418 243.965566
L 692.049587 244.557246
L 692.848757 245.09497
L 693.647926 245.576744
L 694.447096 246.002475
L 695.246265 246.373666
L 696.045435 246.693089
L 696.844604 246.964458
L 697.643774 247.192115
L 698.442943 247.380748
L 699.242113 247.535147
L 700.041282 247.660008
L 700.840452 247.759785
L 701.639621 247.83858
L 702.438791 247.900081
L 703.23796 247.947531
" clip-path="url(#p5cc28abf8d)" style="fill: none; stroke: #c2493d; stroke-opacity: 0.85; stroke-width: 0.9; stroke-linecap: square"/>
   </g>
   <g id="text_45">
    <text style="font-weight: 700; font-size: 11px; font-family: 'Helvetica', 'Arial', 'DejaVu Sans', sans-serif; text-anchor: middle; fill: #ffffff" x="263.860119" y="430.436415" transform="rotate(-0 263.860119 430.436415)">g2m</text>
   </g>
   <g id="text_46">
    <text style="font-size: 9px; font-family: 'Helvetica', 'Arial', 'DejaVu Sans', sans-serif; text-anchor: middle; fill: #ffffff; opacity: 0.97" x="263.860119" y="448.930958" transform="rotate(-0 263.860119 448.930958)">N = 36</text>
   </g>
   <g id="text_47">
    <text style="font-size: 8.5px; font-family: 'Helvetica', 'Arial', 'DejaVu Sans', sans-serif; text-anchor: middle; fill: #ffffff; opacity: 0.97" x="263.860119" y="465.646749" transform="rotate(-0 263.860119 465.646749)">σ = 0.0271</text>
   </g>
   <g id="text_48">
    <text style="font-style: italic; font-size: 6.5px; font-family: 'Helvetica', 'Arial', 'DejaVu Sans', sans-serif; fill: #ffffff; opacity: 0.92" transform="translate(234.200822 503.372414)">grid -&gt; mesh GNN</text>
    <text style="font-style: italic; font-size: 6.5px; font-family: 'Helvetica', 'Arial', 'DejaVu Sans', sans-serif; fill: #ffffff; opacity: 0.92" transform="translate(216.730041 510.404043)">(encoder edge + node MLPs)</text>
   </g>
   <g id="line2d_74">
    <path d="M 222.986955 403.179531
L 224.372486 403.132081
L 225.758017 403.07058
L 227.143548 402.991785
L 228.529079 402.892008
L 229.91461 402.767147
L 231.300141 402.612748
L 232.685672 402.424115
L 234.071203 402.196458
L 235.456734 401.925089
L 236.842265 401.605666
L 238.227796 401.234475
L 239.613327 400.808744
L 240.998858 400.32697
L 242.384389 399.789246
L 243.76992 399.197566
L 245.155451 398.556071
L 246.540982 397.871228
L 247.926513 397.151907
L 249.312044 396.409332
L 250.697575 395.656899
L 252.083106 394.909863
L 253.468637 394.184872
L 254.854168 393.499387
L 256.239699 392.871011
L 257.62523 392.316742
L 259.010761 391.852223
L 260.396292 391.491003
L 261.781823 391.243888
L 263.167354 391.1184
L 264.552885 391.1184
L 265.938416 391.243888
L 267.323947 391.491003
L 268.709478 391.852223
L 270.095009 392.316742
L 271.48054 392.871011
L 272.866071 393.499387
L 274.251602 394.184872
L 275.637133 394.909863
L 277.022664 395.656899
L 278.408195 396.409332
L 279.793726 397.151907
L 281.179257 397.871228
L 282.564788 398.556071
L 283.950319 399.197566
L 285.33585 399.789246
L 286.721381 400.32697
L 288.106912 400.808744
L 289.492443 401.234475
L 290.877974 401.605666
L 292.263505 401.925089
L 293.649036 402.196458
L 295.034567 402.424115
L 296.420098 402.612748
L 297.805629 402.767147
L 299.19116 402.892008
L 300.576691 402.991785
L 301.962222 403.07058
L 303.347753 403.132081
L 304.733284 403.179531
" clip-path="url(#p5cc28abf8d)" style="fill: none; stroke: #c2493d; stroke-opacity: 0.85; stroke-width: 0.9; stroke-linecap: square"/>
   </g>
   <g id="text_49">
    <text style="font-weight: 700; font-size: 11px; font-family: 'Helvetica', 'Arial', 'DejaVu Sans', sans-serif; text-anchor: middle; fill: #ffffff" x="456.867634" y="430.522353" transform="rotate(-0 456.867634 430.522353)">m2m</text>
   </g>
   <g id="text_50">
    <text style="font-size: 9px; font-family: 'Helvetica', 'Arial', 'DejaVu Sans', sans-serif; text-anchor: middle; fill: #ffffff; opacity: 0.97" x="456.867634" y="448.930958" transform="rotate(-0 456.867634 448.930958)">N = 198</text>
   </g>
   <g id="text_51">
    <text style="font-size: 8.5px; font-family: 'Helvetica', 'Arial', 'DejaVu Sans', sans-serif; text-anchor: middle; fill: #ffffff; opacity: 0.97" x="456.867634" y="465.646749" transform="rotate(-0 456.867634 465.646749)">σ = 0.0115</text>
   </g>
   <g id="text_52">
    <text style="font-style: italic; font-size: 6.5px; font-family: 'Helvetica', 'Arial', 'DejaVu Sans', sans-serif; fill: #ffffff; opacity: 0.92" transform="translate(411.220369 496.340785)">16 message-passing rounds</text>
    <text style="font-style: italic; font-size: 6.5px; font-family: 'Helvetica', 'Arial', 'DejaVu Sans', sans-serif; fill: #ffffff; opacity: 0.92" transform="translate(418.857869 503.372414)">on multi-mesh (lvl 0..6)</text>
    <text style="font-style: italic; font-size: 6.5px; font-family: 'Helvetica', 'Arial', 'DejaVu Sans', sans-serif; fill: #ffffff; opacity: 0.92" transform="translate(419.959314 510.404043)">~12 tensors per round</text>
   </g>
   <g id="line2d_75">
    <path d="M 407.765642 403.179531
L 409.430116 403.132081
L 411.09459 403.07058
L 412.759064 402.991785
L 414.423539 402.892008
L 416.088013 402.767147
L 417.752487 402.612748
L 419.416962 402.424115
L 421.081436 402.196458
L 422.74591 401.925089
L 424.410385 401.605666
L 426.074859 401.234475
L 427.739333 400.808744
L 429.403808 400.32697
L 431.068282 399.789246
L 432.732756 399.197566
L 434.397231 398.556071
L 436.061705 397.871228
L 437.726179 397.151907
L 439.390654 396.409332
L 441.055128 395.656899
L 442.719602 394.909863
L 444.384077 394.184872
L 446.048551 393.499387
L 447.713025 392.871011
L 449.3775 392.316742
L 451.041974 391.852223
L 452.706448 391.491003
L 454.370923 391.243888
L 456.035397 391.1184
L 457.699871 391.1184
L 459.364346 391.243888
L 461.02882 391.491003
L 462.693294 391.852223
L 464.357769 392.316742
L 466.022243 392.871011
L 467.686717 393.499387
L 469.351192 394.184872
L 471.015666 394.909863
L 472.68014 395.656899
L 474.344615 396.409332
L 476.009089 397.151907
L 477.673563 397.871228
L 479.338038 398.556071
L 481.002512 399.197566
L 482.666986 399.789246
L 484.331461 400.32697
L 485.995935 400.808744
L 487.660409 401.234475
L 489.324884 401.605666
L 490.989358 401.925089
L 492.653832 402.196458
L 494.318307 402.424115
L 495.982781 402.612748
L 497.647255 402.767147
L 499.31173 402.892008
L 500.976204 402.991785
L 502.640678 403.07058
L 504.305153 403.132081
L 505.969627 403.179531
" clip-path="url(#p5cc28abf8d)" style="fill: none; stroke: #c2493d; stroke-opacity: 0.85; stroke-width: 0.9; stroke-linecap: square"/>
   </g>
   <g id="text_53">
    <text style="font-weight: 700; font-size: 11px; font-family: 'Helvetica', 'Arial', 'DejaVu Sans', sans-serif; text-anchor: middle; fill: #ffffff" x="648.115015" y="430.436415" transform="rotate(-0 648.115015 430.436415)">m2g</text>
   </g>
   <g id="text_54">
    <text style="font-size: 9px; font-family: 'Helvetica', 'Arial', 'DejaVu Sans', sans-serif; text-anchor: middle; fill: #ffffff; opacity: 0.97" x="648.115015" y="448.930958" transform="rotate(-0 648.115015 448.930958)">N = 30</text>
   </g>
   <g id="text_55">
    <text style="font-size: 8.5px; font-family: 'Helvetica', 'Arial', 'DejaVu Sans', sans-serif; text-anchor: middle; fill: #ffffff; opacity: 0.97" x="648.115015" y="465.646749" transform="rotate(-0 648.115015 465.646749)">σ = 0.0297</text>
   </g>
   <g id="text_56">
    <text style="font-style: italic; font-size: 6.5px; font-family: 'Helvetica', 'Arial', 'DejaVu Sans', sans-serif; fill: #ffffff; opacity: 0.92" transform="translate(618.455718 503.372414)">mesh -&gt; grid GNN</text>
    <text style="font-style: italic; font-size: 6.5px; font-family: 'Helvetica', 'Arial', 'DejaVu Sans', sans-serif; fill: #ffffff; opacity: 0.92" transform="translate(600.981382 510.404043)">(decoder edge + node MLPs)</text>
   </g>
   <g id="line2d_76">
    <path d="M 608.121917 403.179531
L 609.477615 403.132081
L 610.833314 403.07058
L 612.189012 402.991785
L 613.54471 402.892008
L 614.900408 402.767147
L 616.256107 402.612748
L 617.611805 402.424115
L 618.967503 402.196458
L 620.323201 401.925089
L 621.6789 401.605666
L 623.034598 401.234475
L 624.390296 400.808744
L 625.745994 400.32697
L 627.101692 399.789246
L 628.457391 399.197566
L 629.813089 398.556071
L 631.168787 397.871228
L 632.524485 397.151907
L 633.880184 396.409332
L 635.235882 395.656899
L 636.59158 394.909863
L 637.947278 394.184872
L 639.302976 393.499387
L 640.658675 392.871011
L 642.014373 392.316742
L 643.370071 391.852223
L 644.725769 391.491003
L 646.081468 391.243888
L 647.437166 391.1184
L 648.792864 391.1184
L 650.148562 391.243888
L 651.50426 391.491003
L 652.859959 391.852223
L 654.215657 392.316742
L 655.571355 392.871011
L 656.927053 393.499387
L 658.282752 394.184872
L 659.63845 394.909863
L 660.994148 395.656899
L 662.349846 396.409332
L 663.705544 397.151907
L 665.061243 397.871228
L 666.416941 398.556071
L 667.772639 399.197566
L 669.128337 399.789246
L 670.484036 400.32697
L 671.839734 400.808744
L 673.195432 401.234475
L 674.55113 401.605666
L 675.906828 401.925089
L 677.262527 402.196458
L 678.618225 402.424115
L 679.973923 402.612748
L 681.329621 402.767147
L 682.68532 402.892008
L 684.041018 402.991785
L 685.396716 403.07058
L 686.752414 403.132081
L 688.108112 403.179531
" clip-path="url(#p5cc28abf8d)" style="fill: none; stroke: #c2493d; stroke-opacity: 0.85; stroke-width: 0.9; stroke-linecap: square"/>
   </g>
   <g id="line2d_77">
    <path d="M 346.2975 556.760664
L 346.850771 556.717528
L 347.404042 556.661618
L 347.957314 556.589986
L 348.510585 556.49928
L 349.063856 556.38577
L 349.617127 556.245408
L 350.170398 556.073923
L 350.723669 555.866962
L 351.276941 555.620262
L 351.830212 555.329878
L 352.383483 554.992432
L 352.936754 554.605404
L 353.490025 554.167427
L 354.043297 553.678588
L 354.596568 553.140696
L 355.149839 552.557519
L 355.70311 551.934935
L 356.256381 551.281007
L 356.809653 550.605938
L 357.362924 549.921909
L 357.916195 549.242785
L 358.469466 548.583701
L 359.022737 547.960534
L 359.576008 547.389282
L 360.12928 546.885402
L 360.682551 546.463111
L 361.235822 546.13473
L 361.789093 545.91008
L 362.342364 545.796
L 362.895636 545.796
L 363.448907 545.91008
L 364.002178 546.13473
L 364.555449 546.463111
L 365.10872 546.885402
L 365.661992 547.389282
L 366.215263 547.960534
L 366.768534 548.583701
L 367.321805 549.242785
L 367.875076 549.921909
L 368.428347 550.605938
L 368.981619 551.281007
L 369.53489 551.934935
L 370.088161 552.557519
L 370.641432 553.140696
L 371.194703 553.678588
L 371.747975 554.167427
L 372.301246 554.605404
L 372.854517 554.992432
L 373.407788 555.329878
L 373.961059 555.620262
L 374.514331 555.866962
L 375.067602 556.073923
L 375.620873 556.245408
L 376.174144 556.38577
L 376.727415 556.49928
L 377.280686 556.589986
L 377.833958 556.661618
L 378.387229 556.717528
L 378.9405 556.760664
" clip-path="url(#p5cc28abf8d)" style="fill: none; stroke: #c2493d; stroke-opacity: 0.85; stroke-width: 0.9; stroke-linecap: square"/>
   </g>
  </g>
 </g>
 <defs>
  <clipPath id="p5cc28abf8d">
   <rect x="10.8" y="10.8" width="725.4" height="554.4"/>
  </clipPath>
 </defs>
</svg>
